<?xml version="1.0" standalone="no"?>
<!DOCTYPE svg PUBLIC "-//W3C//DTD SVG 1.1//EN" "http://www.w3.org/Graphics/SVG/1.1/DTD/svg11.dtd" >
<svg>
<metadata>
Created by FontForge 20110222 at Thu Jul 24 08:57:37 2014
 By Orthosie Webhosting
(c) 1993, 2001, 2002 Adobe Systems Incorporated. All rights reserved.
</metadata>
<defs>
<font id="GiddyupStdRegular" horiz-adv-x="432" >
  <font-face 
    font-family="GiddyupStdRegular"
    font-weight="400"
    font-stretch="normal"
    units-per-em="1000"
    panose-1="3 5 4 2 4 3 2 4 4 4"
    ascent="663"
    descent="-337"
    x-height="338"
    cap-height="642"
    bbox="-184 -333 1067 844.05"
    underline-thickness="50"
    underline-position="-50"
    unicode-range="U+0020-FB02"
  />
<missing-glyph horiz-adv-x="500" 
d="M0 0v700h500v-700h-500zM250 395l170 255h-340zM280 350l170 -255v510zM80 50h340l-170 255zM50 605v-510l170 255z" />
    <glyph glyph-name="f_i" unicode="fi" horiz-adv-x="450" 
d="M50 -201q26 0 42 29.5t31 95.5q22 98 36 306q-70 -59 -107.5 -166.5t-37.5 -192.5q0 -31 10.5 -51.5t25.5 -20.5zM363 -13q-10 0 -16.5 6.5t-6.5 16.5q0 9 4 49.5t13.5 106.5t21.5 118q-18 5 -50 5q-26 0 -63 -8.5t-59 -22.5q-17 -250 -42 -350q-20 -77 -46 -114.5
t-72 -37.5q-33 0 -55.5 30.5t-22.5 84.5q0 63 18.5 138.5t64.5 155t110 119.5q8 110 16 158.5t28 95.5q19 42 53.5 69t75.5 27q40 0 62.5 -22.5t22.5 -54.5q0 -27 -15.5 -48t-29.5 -21q-7 0 -14 4.5t-7 11.5q0 18 12 26q9 7 9 27q0 13 -12.5 24.5t-32.5 11.5q-50 0 -83 -70
q-27 -59 -39 -220q20 12 57.5 20.5t72.5 8.5q40 0 71 -6q20 -3 20 -17q0 -6 -2 -14q-31 -113 -42 -287q-2 -21 -22 -21z" />
    <glyph glyph-name="f_l" unicode="fl" horiz-adv-x="450" 
d="M50 -201q26 0 42 29.5t31 95.5q22 96 37 317q-73 -63 -109.5 -169.5t-36.5 -195.5q0 -35 10.5 -56t25.5 -21zM47 -244q-33 0 -55.5 31.5t-22.5 88.5q0 66 18 141t64 155t112 122q7 106 15 151t30 91q21 44 64.5 71t91.5 27q49 0 80.5 -21.5t31.5 -65.5q0 -13 -1 -26
t-5 -31.5t-6 -28t-9.5 -38.5t-10.5 -41q-53 -217 -53 -314q0 -28 4 -40q3 -5 3 -10q0 -10 -6.5 -16t-15.5 -6q-30 0 -30 72q0 105 49 301q35 143 35 175q0 24 -20 36.5t-51 12.5q-32 0 -62 -18.5t-48 -53.5q-29 -56 -40 -207q38 15 82 15q41 0 41 -24q0 -9 -6 -14t-14 -5
h-13l-8 1q-48 0 -83 -18q-18 -262 -43 -361q-20 -77 -46 -114.5t-72 -37.5z" />
    <glyph glyph-name=".notdef" horiz-adv-x="500" 
d="M0 0v700h500v-700h-500zM250 395l170 255h-340zM280 350l170 -255v510zM80 50h340l-170 255zM50 605v-510l170 255z" />
    <glyph glyph-name=".null" horiz-adv-x="0" 
 />
    <glyph glyph-name="nonmarkingreturn" horiz-adv-x="333" 
 />
    <glyph glyph-name="space" unicode=" " horiz-adv-x="170" 
 />
    <glyph glyph-name="exclam" unicode="!" horiz-adv-x="278" 
d="M139 110q-9 0 -15 6.5t-6 14.5q0 6 2 12q15 25 15 70q0 75 -6 129q-6 56 -6 133q0 44 14 74q-29 37 -29 86q0 46 24 46q20 0 20 -21q0 -2 -1 -12.5t-1 -13.5q0 -23 8 -42q24 42 76 42q26 0 43.5 -17t17.5 -42q0 -29 -20 -48t-52 -19q-27 0 -49 12q-6 -13 -6 -43
q0 -76 3 -120l9 -144q0 -33 -11 -68t-30 -35zM228 592q-28 0 -44 -30q13 -11 39 -11q28 0 28 20q0 9 -6.5 15t-16.5 6zM107 9l5 32q4 21 28 18q11 -1 17 -8.5t4 -16.5l-5 -32q-3 -19 -24 -19q-12 0 -19.5 8t-5.5 18z" />
    <glyph glyph-name="quotedbl" unicode="&#x22;" horiz-adv-x="230" 
d="M71 612q9 0 15.5 -6.5t6.5 -15.5q0 -61 -3 -90q-3 -24 -26 -24q-19 0 -16 23q1 7 1 91q0 9 6.5 15.5t15.5 6.5zM159 612q9 0 15.5 -6.5t6.5 -15.5q0 -61 -3 -90q-3 -24 -26 -24q-19 0 -16 23q1 7 1 91q0 9 6.5 15.5t15.5 6.5z" />
    <glyph glyph-name="numbersign" unicode="#" horiz-adv-x="480" 
d="M412 219l2 -40h-86l-25 -179h-45l26 179h-109l-25 -179h-44l25 179h-86l-3 40h95l17 122h-86l-2 40h93l25 179h45l-26 -179h109l25 179h45l-26 -179h79l3 -40h-88l-16 -122h78zM306 341h-108l-17 -122h109z" />
    <glyph glyph-name="dollar" unicode="$" horiz-adv-x="450" 
d="M210 -73q0 -9 -6.5 -15.5t-16.5 -6.5q-8 0 -14.5 6.5t-6.5 15.5q0 20 17 103q-69 4 -111.5 34t-42.5 76q0 45 40.5 81t100.5 36q81 0 81 -84q0 -27 -14 -103q58 0 97.5 31t39.5 75q0 48 -32.5 75t-112.5 46q-156 37 -156 141q0 53 47 99t130 47q16 64 16 90q0 9 6.5 15.5
t16.5 6.5q22 0 22 -28q0 -21 -16 -87q48 -5 77.5 -37.5t29.5 -77.5q0 -35 -30 -61.5t-72 -25.5q-28 0 -51 17t-23 58q0 20 15 89q-60 -2 -91.5 -33.5t-31.5 -71.5q0 -74 120 -100q38 -9 63.5 -17.5t55.5 -26.5t45.5 -48t15.5 -71q0 -57 -51 -101.5t-139 -45.5
q-18 -94 -18 -101zM192 70q14 75 14 100q0 19 -10 32.5t-29 13.5q-36 0 -65 -22.5t-29 -53.5q0 -30 35.5 -49t83.5 -21zM285 542q-14 -64 -14 -88q0 -34 31 -34q24 0 39.5 13.5t15.5 32.5q0 66 -72 76z" />
    <glyph glyph-name="percent" unicode="%" horiz-adv-x="772" 
d="M159 252q-53 0 -84 38t-31 106q0 49 19 94q7 13 20 13q9 0 15.5 -6.5t6.5 -15.5q0 -7 -2 -9q-16 -38 -16 -76q0 -42 19 -72.5t56 -30.5q48 0 80 47.5t37 104.5q-24 -3 -49 -3q-46 0 -78.5 22t-32.5 56q0 32 26 56t72 24q40 0 69 -30t37 -77q108 26 223 140q6 6 16 6
q9 0 15.5 -6.5t6.5 -15.5q0 -5 -3 -11q-91 -152 -171 -339.5t-99 -304.5q-4 -19 -22 -19q-20 0 -20 23q0 45 64 219t164 350q-88 -62 -174 -83q-3 -76 -49 -138t-115 -62zM533 241q0 38 27 68.5t70 30.5q49 0 78 -38t29 -99q0 -84 -46 -147.5t-120 -63.5q-51 0 -82.5 40
t-31.5 104q-2 48 18 90q6 14 20 14q9 0 15.5 -6.5t6.5 -16.5q0 -2 -2 -8q-15 -36 -15 -73q0 -42 19.5 -72.5t55.5 -30.5q52 0 85 51.5t33 118.5q0 37 -15 66t-48 29q-24 0 -39 -18t-15 -39q0 -34 36 -44q16 -5 16 -22q0 -8 -6.5 -14.5t-15.5 -6.5q-6 0 -20.5 4.5t-33.5 26
t-19 56.5zM278 486q-4 31 -20 52.5t-41 21.5t-39.5 -10.5t-14.5 -27.5q0 -14 20 -26.5t47 -12.5q24 0 48 3z" />
    <glyph glyph-name="ampersand" unicode="&#x26;" horiz-adv-x="760" 
d="M715 482q31 -46 31 -97q0 -85 -78 -134q8 -106 -73.5 -184t-235.5 -78q-141 0 -227.5 76t-86.5 190q0 156 128 223q-7 21 -7 48q0 61 37.5 98.5t86.5 37.5q46 0 68 -23.5t22 -44.5q0 -9 -6.5 -15.5t-16.5 -6.5q-17 0 -21 18q-3 15 -16.5 23t-29.5 8q-32 0 -55.5 -25
t-23.5 -70q0 -21 2 -31q30 13 66 13q57 0 86.5 -23.5t29.5 -56.5t-23 -51t-54 -18q-36 0 -72 19.5t-58 61.5q-98 -56 -98 -185q0 -97 74.5 -161t194.5 -64q128 0 196.5 60t69.5 141q-31 -12 -73 -12q-70 0 -113 31.5t-43 82.5q0 37 29.5 63t72.5 26q53 0 98 -33t63 -91
q43 35 43 88q0 33 -22 69q-5 8 -5 13q0 22 22 22q10 0 18 -8zM351 428q0 16 -19.5 27.5t-52.5 11.5q-30 0 -54 -10q17 -29 44 -43t49 -14q12 0 22.5 7t10.5 21zM441 333q0 -35 33 -54t78 -19q40 0 72 13q-13 50 -47 79t-78 29q-26 0 -42 -14t-16 -34z" />
    <glyph glyph-name="quotesingle" unicode="'" horiz-adv-x="140" 
d="M71 612q9 0 15.5 -6.5t6.5 -15.5q0 -61 -3 -90q-3 -24 -26 -24q-19 0 -16 23q1 7 1 91q0 9 6.5 15.5t15.5 6.5z" />
    <glyph glyph-name="parenleft" unicode="(" horiz-adv-x="243" 
d="M243 669q5 4 13 4q20 0 20 -20q0 -13 -10 -19q-76 -49 -127.5 -148.5t-51.5 -252.5q0 -91 15.5 -164.5t40 -117t47.5 -68t44 -34.5q14 -6 14 -21q0 -20 -19 -20q-9 0 -28 10.5t-47 41t-52.5 75t-42 123t-17.5 174.5q0 161 58.5 271t142.5 166z" />
    <glyph glyph-name="parenright" unicode=")" horiz-adv-x="244" 
d="M26 673q72 -30 125.5 -133.5t53.5 -283.5q0 -98 -19.5 -179t-47 -129t-59 -81.5t-54 -46.5t-34.5 -13q-9 0 -14.5 6t-5.5 14q0 12 11 17q80 30 129.5 147t49.5 266q0 91 -15 163t-40 114t-48 65t-47 35q-13 6 -13 21q0 20 20 20q6 0 8 -2z" />
    <glyph glyph-name="asterisk" unicode="*" horiz-adv-x="275" 
d="M86 670l60 -75l95 40l-73 -68l86 -58l-103 25l-42 -95l1 99l-95 6l97 35z" />
    <glyph glyph-name="plus" unicode="+" 
d="M195 223v162h42v-162h161v-42h-161v-161h-42v161h-161v42h161z" />
    <glyph glyph-name="comma" unicode="," horiz-adv-x="130" 
d="M73 60q25 0 25 -22q0 -114 -37 -114q-11 0 -18 6.5t-7 16.5q0 6 4 13q11 16 11 78q0 9 6.5 15.5t15.5 6.5z" />
    <glyph glyph-name="hyphen" unicode="-" horiz-adv-x="307" 
d="M171 216l-72 1q-31 0 -39 -2q-10 -4 -18 2.5t-8 16.5q0 18 14 22t51 4l72 -1q55 0 72 5q4 2 7 2q9 0 15.5 -7t6.5 -15q0 -32 -101 -28z" />
    <glyph glyph-name="period" unicode="." horiz-adv-x="130" 
d="M46 11l4 34q4 21 29 18q10 -1 16 -8.5t5 -16.5l-5 -34q-3 -18 -25 -18q-12 0 -19 7t-5 18z" />
    <glyph glyph-name="slash" unicode="/" horiz-adv-x="328" 
d="M-19 -14v5q13 51 55 140t70 141t96 174q75 128 112 204q6 12 20 12q9 0 15.5 -6.5t6.5 -14.5q0 -14 -114 -217q-59 -106 -91.5 -165t-73 -144.5t-52.5 -134.5q-5 -21 -28 -16q-16 5 -16 22z" />
    <glyph glyph-name="zero" unicode="0" horiz-adv-x="561" 
d="M334 605q91 0 143 -67.5t52 -179.5q0 -93 -28.5 -175.5t-91.5 -139t-149 -56.5q-105 0 -161.5 68.5t-56.5 190.5q0 49 10.5 96t22.5 67q7 12 22 12q8 0 14 -6.5t6 -15.5q0 -8 -2 -10q-9 -10 -18.5 -53.5t-9.5 -89.5q0 -58 15 -104.5t56 -80.5t104 -34q71 0 123.5 52.5
t76 126t23.5 152.5q0 89 -39 147.5t-115 58.5q-51 0 -87.5 -36.5t-36.5 -93.5q0 -38 23.5 -65t58.5 -27q27 0 35 6q3 2 9 2q9 0 15.5 -6t6.5 -16q0 -30 -66 -30q-55 0 -91 39t-36 95q0 72 49.5 122.5t122.5 50.5z" />
    <glyph glyph-name="one" unicode="1" horiz-adv-x="392" 
d="M244 441q89 39 89 103q0 17 -15 17q-24 0 -46 -35t-28 -85zM208 -14q-20 0 -20 15q0 9 11 23q19 24 19 91q0 25 -3 58.5t-7.5 71.5t-5.5 53q-5 67 -5 80q-28 -13 -79.5 -27t-73.5 -14q-19 0 -19 21q0 16 21 19q80 14 153 44q4 75 39 128.5t84 53.5q25 0 40.5 -16.5
t15.5 -40.5q0 -98 -136 -151q0 -3 -0.5 -10t-0.5 -9q0 -45 11 -126q10 -86 10 -132q0 -132 -54 -132z" />
    <glyph glyph-name="two" unicode="2" horiz-adv-x="537" 
d="M50 508l-16 -1q-8 -1 -14.5 5t-6.5 15q0 22 37 22q41 0 82 -15q63 70 154 70q81 0 132 -57t51 -144q0 -83 -51 -171.5t-125 -147.5q98 -75 138 -75q33 0 49.5 16.5t16.5 44.5q0 27 -18 41q-6 5 -6 15t7 16q6 6 15 6q16 0 31.5 -25t15.5 -53q0 -46 -29 -74t-82 -28
q-34 0 -70.5 20t-101.5 67q-80 -61 -158 -61q-41 0 -64.5 18t-23.5 51q0 39 29.5 68.5t78.5 30.5q62 1 139 -55q65 49 114.5 132t49.5 164q0 68 -38 114t-100 46q-34 0 -66.5 -13.5t-48.5 -34.5q35 -22 54 -56t19 -70q0 -41 -23 -67.5t-61 -26.5q-36 0 -61 28t-25 76
q0 52 28 99q-25 12 -52 10zM58 69q0 -16 12.5 -25t32.5 -9q63 0 123 45q-53 40 -103 40q-28 0 -46.5 -15.5t-18.5 -35.5zM161 336q18 0 28 15t10 38q0 55 -57 94q-24 -38 -24 -84q0 -29 13.5 -46t29.5 -17z" />
    <glyph glyph-name="three" unicode="3" horiz-adv-x="523" 
d="M388 317q78 -57 78 -151q0 -83 -61.5 -137.5t-171.5 -54.5q-100 0 -151.5 53t-51.5 118q0 74 33 74q8 0 14.5 -6.5t6.5 -16.5q0 -6 -2 -10q-7 -16 -7 -37q0 -17 7.5 -38t24 -44t50 -38.5t78.5 -15.5q88 0 137 44.5t49 111.5q0 73 -60 117q-57 -52 -128 -52
q-36 0 -60.5 18t-24.5 45q0 9 3 18t12 21.5t31 20.5t54 8q55 0 107 -26q18 15 29.5 45t11.5 60q0 47 -27.5 83.5t-87.5 36.5q-16 0 -21 -1q18 -27 18 -59q0 -38 -24.5 -64t-55.5 -26q-30 0 -49 19.5t-19 50.5q0 25 16 50t41 41q-25 14 -56 16q-2 0 -11.5 -0.5t-14.5 -0.5
q-23 0 -23 15q0 11 8.5 16.5t17 6.5t23.5 1q56 0 98 -33q28 7 54 7q78 0 117.5 -47t39.5 -112q0 -35 -15 -72t-37 -55zM235 504q0 28 -15 48q-21 -11 -34.5 -30.5t-13.5 -37.5q0 -31 27 -31q14 0 25 14.5t11 36.5zM193 297q0 -8 11 -14.5t29 -6.5q22 0 49 8.5t43 22.5
q-36 17 -77 17q-22 0 -38.5 -7t-16.5 -20z" />
    <glyph glyph-name="four" unicode="4" horiz-adv-x="642" 
d="M310 574l-19 -3q-9 -1 -15.5 5.5t-6.5 15.5q0 25 41 25q44 0 70.5 -32.5t26.5 -80.5q0 -121 -145 -255q131 -49 163 -57q16 95 32 162q24 104 24 124q0 21 -3 28q-2 6 -2 9q0 9 6.5 15.5t15.5 6.5q27 0 27 -54q0 -27 -13 -82q-29 -128 -44 -219q29 -7 60 -7q42 0 76 36
q6 8 17 8q9 0 15 -6.5t6 -15.5t-10.5 -23t-38.5 -27.5t-65 -13.5q-36 0 -68 7q-12 -57 -12 -114q0 -28 5 -35q3 -6 3 -11q0 -9 -6.5 -15.5t-16.5 -6.5q-30 0 -30 71q0 49 14 121q-41 11 -132 45q-27 11 -59 22q-76 -64 -142 -64q-33 0 -53 18.5t-20 47.5q0 35 26 55.5
t65 20.5q43 0 116 -30q65 56 104.5 120t39.5 119q0 25 -12 47t-40 23zM57 219q0 -12 9 -18.5t21 -6.5q44 0 95 42q-43 18 -78 18q-22 0 -34.5 -11t-12.5 -24z" />
    <glyph glyph-name="five" unicode="5" horiz-adv-x="507" 
d="M461 619q8 0 12.5 -6.5t4.5 -14.5q0 -4 -1 -6q-4 -17 -16 -28.5t-23.5 -17t-35.5 -8.5t-35 -3h-41q-12 0 -44.5 2.5t-70.5 5.5t-46 4q43 -43 40 -132q27 3 39 3q109 0 165.5 -61t56.5 -145q0 -103 -74.5 -166.5t-180.5 -63.5q-92 0 -143.5 42.5t-51.5 90.5q0 10 6 16.5
t16 6.5q16 0 20 -18q9 -48 52 -73t102 -25q86 0 147.5 51t61.5 138q0 70 -47 118t-134 48q-1 0 -37 -3q-8 -58 -34.5 -90.5t-57.5 -32.5q-25 0 -42 15t-17 40q0 34 31.5 61.5t79.5 38.5q4 41 -8 74.5t-23.5 46t-21.5 18.5q-11 6 -11 18q0 17 12.5 21t42.5 4q14 0 85 -6.5
t87 -6.5q26 0 44 1t35 3.5t25 9t7 15.5q5 15 24 15zM112 291q14 0 28 21t19 50q-28 -4 -45.5 -22t-17.5 -32q0 -17 16 -17z" />
    <glyph glyph-name="six" unicode="6" horiz-adv-x="501" 
d="M304 355q77 0 123.5 -49.5t46.5 -131.5q0 -75 -56 -132t-146 -57q-101 0 -168.5 66.5t-67.5 184.5q0 148 101 265q42 48 107.5 78.5t125.5 30.5q41 0 41 -23q0 -8 -7 -15t-16 -7q-2 0 -10.5 1t-11.5 1q-51 0 -105.5 -25t-92.5 -69q-87 -100 -87 -237q0 -100 55 -155
t137 -55q75 0 115.5 47t40.5 101q0 62 -33.5 101t-91.5 39q-41 0 -71.5 -29.5t-30.5 -72.5q0 -24 14 -38.5t37 -14.5q11 0 21 9t10 19q0 1 -2 7.5t-2 8.5q0 22 21 22q25 0 25 -38q0 -29 -22 -49t-52 -20q-39 0 -67 26t-28 68q0 57 43 100t104 43z" />
    <glyph glyph-name="seven" unicode="7" horiz-adv-x="470" 
d="M183 548q-52 0 -86 -20t-34 -53q0 -18 13 -28.5t33 -10.5q46 0 80 28.5t50 80.5q-25 3 -56 3zM152 -24q-21 0 -21 23q0 111 88 260.5t218 277.5q-24 -6 -60 -6q-16 0 -96 8q-23 -71 -69.5 -107.5t-106.5 -36.5q-38 0 -62.5 22t-24.5 55q0 52 44 84.5t121 32.5q20 0 62 -4
q1 6 1 20q0 25 -15.5 47t-42.5 20l-12 -1q-23 -2 -23 17q0 24 37 24q45 0 72.5 -31.5t27.5 -75.5q0 -8 -2 -26q56 -8 79 -8q70 0 97 27q7 7 16 7q4 0 12 -4q10 -6 10 -19q0 -15 -22.5 -48t-38.5 -50q-130 -141 -194 -258t-72 -230q-2 -20 -23 -20z" />
    <glyph glyph-name="eight" unicode="8" horiz-adv-x="524" 
d="M482 493q0 -57 -35 -105t-107 -68q77 -24 112.5 -69.5t35.5 -97.5q0 -79 -62 -125t-164 -46q-97 0 -162 42t-65 118q0 74 50.5 122t116.5 61q-46 13 -81 48t-35 84q0 58 48 101t123 43q50 0 79.5 -26.5t29.5 -66.5q0 -34 -24 -57t-65 -23q-26 0 -44 12.5t-18 27.5
q0 10 6 16t15 6q13 0 20 -10q7 -11 23 -11q18 0 30.5 10.5t12.5 28.5q0 23 -19.5 38t-50.5 15q-56 0 -88.5 -31.5t-32.5 -72.5q0 -83 137 -120q5 1 16.5 3t16.5 3q137 35 137 150q0 34 -18 64.5t-53 46.5q-18 9 -18 20q0 18 20 18q33 0 73 -43t40 -106zM262 21q77 0 129 34
t52 98q0 115 -182 148q-78 -9 -129.5 -50.5t-51.5 -104.5q0 -58 54.5 -91.5t127.5 -33.5z" />
    <glyph glyph-name="nine" unicode="9" horiz-adv-x="517" 
d="M255 601q101 0 163 -69t62 -174q0 -156 -95 -259t-247 -103q-49 0 -57 8q-5 5 -5 15q0 20 22 20q2 0 20 -1t22 -1q131 0 213.5 91.5t82.5 229.5q0 87 -49.5 145t-131.5 58q-84 0 -128.5 -48t-44.5 -112q0 -58 37.5 -93.5t91.5 -35.5t83 28t29 75q0 15 -10.5 31.5
t-25.5 18.5q-6 1 -11 8t-5 14q0 9 6.5 15.5t15.5 6.5q26 -1 50 -28t24 -65q0 -64 -42.5 -104.5t-113.5 -40.5q-73 0 -123 47t-50 123q0 81 57.5 140.5t159.5 59.5z" />
    <glyph glyph-name="colon" unicode=":" horiz-adv-x="130" 
d="M46 9l5 32q2 9 10 14.5t19 3.5q23 -2 21 -25l-6 -32q-3 -19 -24 -19q-12 0 -19.5 8t-5.5 18zM46 218l5 34q3 19 25 19q11 0 18.5 -7.5t6.5 -17.5l-6 -34q-4 -22 -27 -19q-12 1 -18 8.5t-4 16.5z" />
    <glyph glyph-name="semicolon" unicode=";" horiz-adv-x="130" 
d="M52 219l6 32q1 9 8.5 14.5t19.5 3.5q23 -4 21 -25l-6 -32q-3 -19 -24 -19q-12 0 -19.5 7.5t-5.5 18.5zM75 63q10 0 17.5 -7t7.5 -16q0 -113 -38 -113q-11 0 -18 6.5t-7 16.5q0 6 3 11q12 18 12 79q0 9 6.5 16t16.5 7z" />
    <glyph glyph-name="less" unicode="&#x3c;" 
d="M399 59v-44l-366 166v42l366 167v-44l-314 -144z" />
    <glyph glyph-name="equal" unicode="=" 
d="M398 295v-42h-364v42h364zM398 152v-42h-364v42h364z" />
    <glyph glyph-name="greater" unicode="&#x3e;" 
d="M33 59l314 143l-314 144v44l366 -167v-42l-366 -166v44z" />
    <glyph glyph-name="question" unicode="?" horiz-adv-x="425" 
d="M217 108q-17 0 -33 28t-16 60q0 42 25 73.5t76 68.5q47 34 73 70.5t26 91.5q0 44 -33.5 73.5t-90.5 29.5q-20 0 -36 -4q48 -29 48 -91q0 -40 -24 -65t-56 -25t-57 23.5t-25 66.5q0 46 31 76q-23 1 -41.5 -9.5t-25.5 -21.5q-10 -16 -20 -16q-23 0 -23 21q0 22 33.5 44
t80.5 22q20 0 32 -4q17 10 40 16q20 7 48 7q80 0 125 -45q39 -39 39 -99q0 -68 -33 -112.5t-94 -88.5q-37 -27 -55.5 -50t-18.5 -52q0 -33 20 -49q7 -9 7 -17q0 -9 -6.5 -15.5t-15.5 -6.5zM185 14l5 31q3 22 29 19q10 -1 16 -8.5t5 -16.5l-6 -33q-4 -19 -23 -19
q-13 0 -20.5 8t-5.5 19zM212 508q0 49 -42 72q-32 -27 -32 -72q0 -25 12 -37t28 -12q13 0 23.5 13t10.5 36z" />
    <glyph glyph-name="at" unicode="@" horiz-adv-x="576" 
d="M482 188l26 -23q-32 -45 -87.5 -74.5t-118.5 -29.5q-111 0 -186.5 77t-75.5 187q0 107 76.5 182.5t182.5 75.5q98 0 167.5 -59t69.5 -143q0 -81 -52 -140.5t-109 -59.5q-19 0 -32.5 12.5t-14.5 34.5l-2 -1q-44 -46 -90 -46q-42 0 -69 29.5t-27 70.5q0 72 48 133.5
t120 61.5q50 0 75 -59l17 42h41l-58 -186q-19 -56 9 -56q39 0 72.5 50.5t33.5 99.5q0 81 -58 130.5t-139 49.5q-94 0 -157.5 -66.5t-63.5 -160.5q0 -92 65 -157.5t157 -65.5q52 0 100.5 24.5t79.5 66.5zM306 435q-48 0 -83 -50t-35 -94q0 -32 17 -51t43 -19q45 0 79.5 51
t34.5 96q0 25 -17 46t-39 21z" />
    <glyph glyph-name="A" unicode="A" horiz-adv-x="662" 
d="M491 364q68 -39 104.5 -99.5t36.5 -128.5q0 -74 -34 -113t-79 -39q-34 0 -54 21q-35 36 -35 136q0 40 15 200q-69 33 -160 33q-38 0 -84 -7q-25 -86 -30 -178q53 -2 92.5 21t39.5 61q0 22 21 22q9 0 15.5 -6t6.5 -16q0 -55 -51.5 -90t-124.5 -33q0 -89 22 -119
q6 -6 6 -14q0 -9 -6.5 -15.5t-16.5 -6.5q-22 0 -36 43.5t-13 116.5q-53 11 -79.5 40t-26.5 68q0 49 39 85.5t107 54.5q33 106 85 172.5t121 66.5q50 0 78 -30q45 -44 45 -167q0 -42 -4 -79zM474 141q0 -117 47 -117q30 0 48.5 32t18.5 80q0 56 -27 103.5t-73 78.5
q-14 -135 -14 -177zM372 599q-89 0 -155 -188q35 5 68 5q87 0 163 -31q3 30 3 59q0 104 -33 137q-18 18 -46 18zM154 354q-38 -14 -63.5 -38t-25.5 -55q0 -49 62 -67q3 72 27 160z" />
    <glyph glyph-name="B" unicode="B" horiz-adv-x="562" 
d="M391 319q51 -8 84.5 -36.5t45 -59t11.5 -62.5q0 -87 -62 -135t-154 -48q-96 0 -155.5 53.5t-59.5 161.5q0 79 37 223q-47 10 -72.5 35t-25.5 60q0 39 31.5 69.5t89.5 42.5q-2 52 -20 71q-6 6 -6 16q0 9 6 15.5t16 6.5q16 0 30.5 -27.5t18.5 -75.5q28 1 60 -1t75.5 -12.5
t77 -29t57 -54.5t23.5 -84q0 -38 -26.5 -74t-81.5 -55zM316 15q68 0 119.5 38.5t51.5 107.5q0 66 -56.5 101.5t-157.5 28.5q-9 -1 -15.5 4.5t-6.5 15.5q0 9 6.5 15.5t15.5 6.5q51 1 88.5 12.5t56.5 30t28 36.5t9 36q0 51 -32 81q-30 30 -89 47.5t-127 13.5q-1 -49 -19 -140
q25 0 49 14t24 41q0 1 -1 7t-1 8q0 9 6 15t15 6q23 0 23 -36q0 -41 -32.5 -68.5t-90.5 -26.5q-34 -134 -34 -215q0 -93 50 -136.5t120 -43.5zM85 511q0 -44 58 -57q17 81 20 129q-38 -8 -58 -28.5t-20 -43.5z" />
    <glyph glyph-name="C" unicode="C" horiz-adv-x="601" 
d="M368 396q-61 59 -61 164q0 10 2 26q-102 -19 -164 -104.5t-62 -194.5q0 -112 63 -185t173 -73q135 0 197 90q7 10 19 10q8 0 14.5 -6.5t6.5 -16.5q0 -6 -8 -19t-27.5 -30.5t-45.5 -33t-67.5 -26.5t-88.5 -11q-130 0 -205 84.5t-75 216.5q0 133 79 231.5t203 111.5
q19 46 58.5 72t86.5 26q57 0 57 -27q0 -20 -22 -20q-2 0 -17 2t-18 2q-64 0 -94 -54q92 -5 146 -57t54 -120q0 -44 -27.5 -74t-76.5 -30q-54 0 -100 46zM468 393q58 0 58 61q0 54 -46.5 94t-124.5 42q-3 -14 -3 -30q0 -75 37.5 -121t78.5 -46z" />
    <glyph glyph-name="D" unicode="D" horiz-adv-x="602" 
d="M273 -14q-42 0 -70 21t-40.5 59t-16.5 72.5t-4 80.5q0 59 7 98q-56 11 -87.5 46t-31.5 88q0 78 72.5 131t180.5 53q82 0 142.5 -22.5t94 -62t49.5 -85.5t16 -99q0 -64 -23 -130.5t-62 -122.5t-99 -91.5t-128 -35.5zM274 26q76 0 139 56.5t95 133.5t32 150q0 30 -5.5 57.5
t-22.5 60t-44 56t-76 39t-113 15.5q-89 0 -146.5 -42.5t-57.5 -100.5q0 -76 78 -93q14 98 31 158q3 16 21 16q9 0 15.5 -6.5t6.5 -15.5q0 -5 -1 -7q-15 -56 -28 -149q52 2 82.5 21t32.5 46q1 8 7.5 14t15.5 6t15.5 -6.5t6.5 -15.5q0 -37 -41.5 -71t-123.5 -35q-7 -35 -7 -94
q0 -94 19.5 -143.5t68.5 -49.5z" />
    <glyph glyph-name="E" unicode="E" horiz-adv-x="523" 
d="M302 177q76 0 129.5 -31.5t53.5 -82.5q0 -36 -32 -63t-107 -27q-72 0 -136 23.5t-103 70.5q-32 -32 -35 -80q-2 -21 -22 -21q-9 0 -15.5 6.5t-6.5 15.5q0 67 54 118q-22 49 -22 96q0 109 82 175q-10 28 -10 57q0 43 19.5 84t55.5 69q-19 33 -19 68q0 10 6.5 16.5
t16.5 6.5q8 0 14.5 -6.5t6.5 -16.5q0 -23 12 -47q21 10 45 15q24 6 52 6q57 0 90.5 -23t33.5 -58q0 -29 -22 -47.5t-56 -18.5q-38 0 -81 19t-74 52q-55 -45 -55 -119q0 -18 4 -31q51 27 113 27q67 0 110.5 -26.5t43.5 -68.5q0 -10 -3.5 -21t-13 -26.5t-34.5 -25t-61 -9.5
q-58 0 -103.5 22.5t-71.5 61.5q-56 -52 -56 -135q0 -33 14 -70q76 45 183 45zM440 63q0 30 -42 51.5t-96 21.5q-97 0 -162 -42q32 -38 87.5 -59.5t118.5 -21.5q43 0 68.5 14t25.5 36zM404 334q0 22 -32 38t-79 16q-67 0 -98 -26q21 -30 57.5 -49t82.5 -19q69 0 69 40z
M341 588q-42 0 -72 -14q24 -22 57.5 -37t60.5 -15q13 0 23.5 7t10.5 19q0 18 -22.5 29t-57.5 11z" />
    <glyph glyph-name="F" unicode="F" horiz-adv-x="559" 
d="M137 459l14 1q9 2 16 -4t7 -16q0 -24 -41 -24q-42 0 -72.5 29t-30.5 69q0 51 44 85t111 34q79 0 167 -44q63 44 151 44q51 0 82 -24t31 -56q0 -33 -25 -53.5t-66 -20.5q-30 0 -60.5 9t-47.5 17.5t-61 31.5q-43 -43 -43 -116q0 -17 8 -61q39 13 75 13q42 0 74 -13
t44 -26.5t12 -23.5t-6.5 -16t-15.5 -6q-12 0 -18 9q-24 34 -90 34q-31 0 -65 -12q9 -49 9 -93q0 -75 -13 -126.5t-34.5 -74t-40 -31t-39.5 -8.5q-40 0 -64.5 26t-24.5 79q0 67 43 140t113 111q-11 48 -11 79q0 79 49 138q-72 33 -133 33q-47 0 -78.5 -22t-31.5 -56
q0 -24 19 -40.5t43 -14.5zM502 591q-67 0 -110 -25q86 -46 133 -46q20 0 33 8.5t13 23.5t-18 27t-51 12zM296 226q0 25 -7 74q-54 -34 -87 -95t-33 -114q0 -64 44 -64q31 0 51 34t26 75.5t6 89.5z" />
    <glyph glyph-name="G" unicode="G" horiz-adv-x="730" 
d="M680 257q31 -29 31 -82q0 -22 -7 -44.5t-24 -22.5q-9 0 -14.5 6.5t-5.5 15.5q0 6 1 9q7 17 7 36q0 13 -3 25.5t-16.5 25.5t-35.5 13q-20 0 -38 -7q9 -27 9 -56q0 -68 -58 -127t-161 -59q-137 0 -231 92.5t-94 227.5q0 139 91.5 230t231.5 91q24 0 49 -5q8 29 22.5 48
t24.5 24t16 5q9 0 15.5 -6.5t6.5 -16.5q0 -15 -15 -20q-19 -7 -30 -44q68 -23 107.5 -72t39.5 -95q0 -30 -18 -50.5t-49 -20.5q-52 0 -92 58t-40 127q0 13 1 23q-18 3 -38 3q-124 0 -200.5 -80.5t-76.5 -198.5q0 -117 81 -198t198 -81q84 0 136 53.5t34 128.5
q-58 -32 -110 -32q-62 0 -97.5 24.5t-35.5 62.5q0 31 27 54.5t78 23.5q108 0 159 -76q32 13 57 13q41 0 67 -26zM336 268q0 -20 26 -32.5t63 -12.5q36 0 92 28q-40 53 -120 53q-29 0 -45 -11t-16 -25zM533 420q21 0 21 29q0 30 -29.5 68.5t-79.5 57.5q-6 -60 25 -107.5
t63 -47.5z" />
    <glyph glyph-name="H" unicode="H" horiz-adv-x="775" 
d="M371 322l47 16q99 35 131 50q14 100 56.5 166.5t98.5 66.5q36 0 54 -21.5t18 -53.5q0 -95 -185 -186q-6 -42 -6 -88q0 -34 7.5 -75t25.5 -90.5t57 -86t93 -44.5q22 -4 22 -17q0 -10 -6.5 -16.5t-15.5 -6.5q-88 0 -157.5 92.5t-69.5 244.5q0 37 3 69q-48 -19 -112 -42
l-46 -17q-30 -10 -45 -16q-28 -135 -88.5 -220.5t-142.5 -85.5q-38 0 -64 24.5t-26 66.5q0 47 23 86t67 68.5t87 49.5t105 42q13 80 13 160q0 85 -38 116q-11 -65 -54 -108.5t-97 -43.5q-33 0 -54.5 21t-21.5 56q0 53 51.5 97t131.5 38q-8 40 -33 56q-9 9 -9 19
q0 9 6.5 15.5t16.5 6.5q16 0 38 -30t26 -79q82 -35 82 -164q0 -68 -10 -143q4 1 11 3.5t10 3.5zM702 578q-31 -2 -59.5 -43.5t-44.5 -122.5q134 71 134 134q0 16 -7.5 24.5t-22.5 7.5zM128 465q46 0 73.5 37.5t34.5 87.5q-10 2 -17 2q-59 0 -91.5 -31.5t-32.5 -61.5
q0 -15 9.5 -24.5t23.5 -9.5zM110 0q57 0 106 70t76 181q-106 -39 -166.5 -85.5t-60.5 -113.5q0 -24 12.5 -38t32.5 -14z" />
    <glyph glyph-name="I" unicode="I" horiz-adv-x="441" 
d="M294 16q31 0 51.5 10.5t20.5 31.5q0 23 -31 38.5t-75 15.5q-21 0 -57 -8q3 -39 27.5 -63.5t63.5 -24.5zM234 523q-17 71 -83 71q-24 0 -39 -8.5t-15 -23.5q0 -20 24.5 -31.5t62.5 -11.5q25 0 50 4zM184 478q-67 0 -99.5 24t-32.5 60q0 31 28.5 52t70.5 21q44 0 79 -24.5
t48 -76.5q86 22 93 88q1 8 7.5 14t14.5 6q10 0 16.5 -7.5t5.5 -17.5q-3 -38 -32 -73t-99 -52q5 -69 -37 -187q-3 -8 -4 -12q-37 -102 -40 -147q34 6 53 6q76 0 115.5 -27.5t39.5 -67.5q0 -36 -31 -59t-87 -23q-55 0 -92 32t-43 85q-42 -12 -75.5 -43t-40.5 -69
q-3 -18 -21 -18q-21 0 -21 22q0 15 11 40.5t49.5 60.5t96.5 50q0 50 43 174q43 114 40 174q-28 -5 -56 -5z" />
    <glyph glyph-name="J" unicode="J" horiz-adv-x="521" 
d="M160 80l1 8q1 10 -7 18.5t-23 8.5q-28 0 -47.5 -25.5t-19.5 -62.5q0 -49 38.5 -82t93.5 -33q83 0 136.5 56t53.5 155q0 56 -5 125t-5 120q0 80 27 124q-43 18 -97 43q-37 17 -51 23t-43 14t-55 8q-39 0 -58 -18t-19 -47q0 -23 18 -38q7 -7 7 -17q0 -9 -6.5 -15.5
t-14.5 -6.5q-16 0 -32 24t-16 53q0 43 32 74.5t89 31.5q68 0 168 -49q10 -5 96 -42q41 74 108 74q62 0 62 -57q0 -32 -27.5 -51.5t-71.5 -19.5q-24 0 -47 5q-24 -41 -24 -115q0 -44 5 -112.5t5 -126.5q0 -112 -62 -184t-171 -72q-78 0 -128 44t-50 110q0 56 33 93t81 37
q36 0 54 -19.5t18 -47.5q0 -31 -23 -31q-10 0 -16.5 7t-6.5 16zM526 564q-35 0 -61 -45q3 0 8.5 -1t10 -1.5t8.5 -0.5q54 0 54 30q0 18 -20 18z" />
    <glyph glyph-name="K" unicode="K" horiz-adv-x="710" 
d="M158 -15q0 13 15 18q39 16 57.5 65.5t22.5 158.5q-80 14 -80 80q0 28 23.5 50t57.5 31q1 40 3 73q-25 -4 -60 -4q-84 0 -125.5 44t-41.5 93q0 10 6.5 16t15.5 6q20 0 22 -20q2 -45 35.5 -72t87.5 -27q34 0 64 6q10 90 44 132t77 42q31 0 48.5 -20t17.5 -49
q0 -43 -40 -80.5t-107 -56.5q-3 -36 -3 -80q55 -5 113 -57q20 19 39 42t45.5 59t31.5 43q24 31 61 73q44 48 88 48q9 0 15.5 -6t6.5 -15q0 -21 -22 -21q-21 0 -56 -37q-39 -42 -58 -68q-68 -94 -122 -148q24 -26 41 -56q6 -9 25.5 -41t29 -46.5t29.5 -45t32.5 -46t32 -40
t35.5 -38t34.5 -27.5t36.5 -20t36 -6q10 0 21.5 1.5t13.5 1.5q18 0 18 -14q0 -32 -54 -32q-24 0 -49.5 10t-46 22.5t-46 39.5t-41.5 44.5t-41.5 54t-36 52.5t-36 56.5t-31.5 49.5l-15 25q-4 5 -10 14.5t-9 12.5q-60 -48 -112 -52q-3 -55 -7.5 -92.5t-15.5 -75t-32 -59.5
t-52 -31q-6 -2 -9 -2q-9 0 -16 6t-7 15zM217 307q0 -33 35 -39q0 5 0.5 38t0.5 39q-15 -4 -25.5 -15.5t-10.5 -22.5zM298 350l-1 -34q0 -8 -0.5 -26t-0.5 -25q40 1 86 40q-37 40 -84 45zM381 637q-25 0 -45.5 -32.5t-30.5 -89.5q44 16 71.5 42t27.5 51q0 29 -23 29z" />
    <glyph glyph-name="L" unicode="L" horiz-adv-x="563" 
d="M341 455q66 26 109 72.5t43 90.5q0 14 -8 23t-21 9q-33 0 -69.5 -47t-53.5 -148zM104 0q122 0 167 216q-107 0 -166.5 -49t-59.5 -107q0 -27 17.5 -43.5t41.5 -16.5zM295 441q12 109 60.5 181.5t116.5 72.5q29 0 48 -20t19 -56q0 -66 -58 -123t-145 -88q-8 -113 -15 -152
q111 -16 159.5 -77.5t48.5 -132.5q0 -32 -11.5 -61t-27.5 -46t-29.5 -27t-20.5 -10q-10 0 -16.5 6.5t-6.5 15.5q0 11 10 18q58 38 58 105q0 57 -38.5 105.5t-132.5 61.5q-53 -256 -211 -256q-43 0 -73 28t-30 74q0 33 17 67t49 64.5t87.5 49.5t123.5 18q5 35 13 137
q-32 -5 -59 -5q-71 0 -115 35t-44 99q0 9 6 15.5t16 6.5q9 0 15 -6.5t6 -15.5q0 -50 35.5 -70.5t80.5 -20.5q35 0 64 7z" />
    <glyph glyph-name="M" unicode="M" horiz-adv-x="895" 
d="M111 714h5q94 -16 134 -136q65 48 129 48q36 0 66 -13.5t47.5 -35t27 -39.5t13.5 -34q85 104 171 104q56 0 93 -38q62 -64 62 -207q0 -99 -26 -200t-66 -159q-6 -9 -19 -9q-9 0 -15 6t-6 16q0 7 3 13q36 51 60 145.5t24 187.5q0 51 -8.5 93.5t-35 76.5t-68.5 34
q-72 0 -153 -114q16 -51 16 -130q0 -130 -37 -231.5t-100 -101.5q-23 0 -41 15q-24 25 -24 88q0 78 39 183.5t99 185.5q-12 53 -44 88q-34 34 -81 34q-58 0 -114 -53q16 -68 16 -177q0 -149 -46.5 -258.5t-120.5 -109.5q-40 0 -65.5 33.5t-25.5 96.5q0 97 55.5 226.5
t137.5 202.5q-30 111 -106 126q-19 4 -19 21q0 9 7 15.5t16 6.5zM233 354q0 69 -9 146q-68 -79 -114 -190t-46 -194q0 -10 1 -20.5t5 -28t15 -29t27 -11.5q49 0 85 98.5t36 228.5zM520 313q0 56 -6 96q-48 -81 -77.5 -168t-29.5 -148q0 -63 22 -63q33 0 61.5 84t29.5 199z
" />
    <glyph glyph-name="N" unicode="N" horiz-adv-x="710" 
d="M297 329q0 27 -2 63q-56 -72 -92.5 -167t-37.5 -158q0 -18 8.5 -31t24.5 -13q38 0 68.5 88t30.5 218zM633 397q0 82 -26 128.5t-76 46.5q-89 0 -196 -133q6 -51 6 -110q0 -145 -39.5 -246.5t-106.5 -101.5q-33 0 -54 23.5t-21 62.5q0 76 48 188t120 195q-6 63 -25 116
q-36 -17 -85 -17q-77 0 -127.5 34t-50.5 86q0 40 31 66.5t78 26.5q54 0 100.5 -34.5t77.5 -98.5q52 42 52 105q0 36 -20 67q-3 3 -3 11q0 10 6 16.5t16 6.5q19 0 32.5 -35t13.5 -66q0 -88 -81 -146q14 -38 24 -95q110 120 205 120q63 0 104.5 -48.5t41.5 -167.5
q0 -92 -33.5 -197.5t-92.5 -201.5q-7 -11 -19 -11q-9 0 -15.5 6.5t-6.5 16.5q0 6 3 12q55 89 87 190.5t32 184.5zM46 669q0 -33 38 -56t94 -23q35 0 73 14q-56 117 -142 117q-63 0 -63 -52z" />
    <glyph glyph-name="O" unicode="O" horiz-adv-x="660" 
d="M621 640v5q0 17 17 22q12 3 19.5 -4t10 -21.5t3.5 -24t1 -21.5q0 -85 -66 -141q21 -50 21 -126q0 -143 -88.5 -238.5t-217.5 -95.5q-124 0 -202 80.5t-78 217.5q0 63 21.5 128.5t57.5 99.5q8 6 16 6q9 0 15.5 -6t6.5 -16q0 -9 -6 -15q-29 -27 -47.5 -82.5t-18.5 -114.5
q0 -119 66 -188t171 -69q109 0 184 86t75 207q0 55 -14 101q-49 -32 -136 -32q-94 0 -162.5 40t-68.5 103q0 43 38.5 70.5t100.5 27.5q73 0 138 -35.5t109 -108.5q41 42 41 100q0 24 -7 45zM552 469q-37 63 -93.5 96t-118.5 33q-47 0 -71 -17t-24 -43q0 -39 57 -69t134 -30
q72 0 116 30z" />
    <glyph glyph-name="P" unicode="P" horiz-adv-x="519" 
d="M367 630q83 0 136 -49.5t53 -125.5q0 -80 -59.5 -129.5t-119.5 -49.5q-10 0 -16 6.5t-6 16.5q0 18 21 20q48 3 92 40.5t44 95.5t-41 95.5t-104 37.5q-67 0 -122 -32q58 -109 58 -280q0 -135 -39 -211.5t-104 -76.5q-58 0 -91 53.5t-33 158.5q0 103 38 203.5t113 164.5
q-50 62 -119 62q-9 0 -15.5 5.5t-6.5 14.5t7 15.5t15 6.5q93 0 152 -80q67 38 147 38zM258 267q2 166 -50 264q-64 -58 -96 -151.5t-32 -179.5q0 -71 21 -122t60 -51q40 0 68 66t29 174z" />
    <glyph glyph-name="Q" unicode="Q" horiz-adv-x="665" 
d="M665 -105q-104 0 -228 134q-61 -30 -128 -30q-82 0 -137.5 40t-55.5 98q0 43 30.5 68t78.5 25q36 0 69 -13.5t64.5 -41t47.5 -44.5t43 -49q57 36 94 103.5t37 148.5q0 113 -64.5 186.5t-162.5 73.5q-66 0 -119 -27t-84 -70.5t-47.5 -93t-16.5 -99.5q0 -61 16 -86
q4 -7 4 -14q0 -21 -22 -21t-32.5 35.5t-10.5 85.5q0 84 35.5 158t108 123t168.5 49q117 0 194.5 -84t77.5 -216q0 -86 -41 -161.5t-109 -121.5q43 -48 93.5 -81t95.5 -33q39 0 62 15q6 4 11 4q22 0 22 -19q0 -18 -32 -30t-62 -12zM160 136q0 -37 43.5 -67.5t105.5 -30.5
q52 0 101 23q-36 48 -86.5 87.5t-99.5 39.5q-29 0 -46.5 -15.5t-17.5 -36.5z" />
    <glyph glyph-name="R" unicode="R" horiz-adv-x="632" 
d="M601 17q14 -9 14 -21q0 -9 -6.5 -15.5t-15.5 -6.5q-38 0 -83 103q-14 33 -26.5 55t-36.5 51t-60.5 47.5t-84.5 24.5q-19 2 -19 22q0 10 6 16.5t15 6.5q58 0 106 11.5t82 41t34 73.5q0 83 -87.5 132t-200.5 49q-64 0 -103 -21.5t-39 -56.5q0 -30 30 -53q54 68 166 68
q54 0 89.5 -22.5t35.5 -56.5q0 -32 -39 -52.5t-109 -20.5q-69 0 -127 25q-23 -51 -23 -130q0 -181 39 -267q3 -6 3 -10q0 -9 -6.5 -15.5t-15.5 -6.5q-15 0 -21 13q-44 94 -44 286q0 91 29 151q-52 37 -52 91q0 49 46 84t141 35q138 0 235.5 -60.5t97.5 -161.5
q0 -60 -47 -103.5t-123 -52.5q30 -14 54 -33.5t42.5 -46.5t26 -40.5t21.5 -43.5q3 -7 5 -10q1 -3 6 -13.5t7 -14t6 -12t7 -13t7.5 -10t8.5 -9.5t9 -7zM292 500q-82 0 -128 -46q55 -20 105 -20q34 0 58.5 5t34.5 12t10 14q0 15 -21.5 25t-58.5 10z" />
    <glyph glyph-name="S" unicode="S" horiz-adv-x="579" 
d="M331 378q32 -11 50 -18t47.5 -21t46.5 -28.5t35 -35t26.5 -47.5t8.5 -59q0 -52 -30.5 -94.5t-89.5 -66.5q-10 -45 -36 -81t-48 -50.5t-33 -14.5q-23 0 -23 20q0 15 14 21q53 22 77 89q-27 -6 -50 -8q-27 -3 -58 -3q-99 0 -167 43.5t-68 113.5q0 56 48.5 95t118.5 39
q97 0 162.5 -61t67.5 -154q33 17 52 47t19 65q0 66 -45 101.5t-139 67.5q-45 15 -68 25t-53.5 29t-44 44.5t-13.5 60.5q0 61 53 105.5t147 44.5q31 0 65 -9q45 37 107 37q10 0 16.5 -6t6.5 -16q0 -18 -24 -18q-34 0 -62 -18q14 -10 19 -15q37 -36 37 -86q0 -28 -19 -49.5
t-48 -21.5q-34 0 -58 25.5t-24 65.5q0 38 19 67q-22 4 -36 4q-73 0 -113.5 -33t-40.5 -77q0 -42 34.5 -66t113.5 -53zM459 516q0 47 -45 75q-16 -24 -16 -55q0 -21 11.5 -35.5t26.5 -14.5q23 0 23 30zM200 230q-50 0 -86.5 -26.5t-36.5 -66.5q0 -49 55 -82.5t136 -33.5
q70 0 119 16q5 83 -45.5 138t-141.5 55z" />
    <glyph glyph-name="T" unicode="T" horiz-adv-x="659" 
d="M63 445q-41 33 -41 83t40.5 86t115.5 36q61 0 115.5 -20.5t130.5 -62.5q58 35 153 35q77 0 112.5 -25t35.5 -58q0 -31 -26 -50.5t-70 -19.5q-78 0 -202 68q-45 -41 -45 -138q0 -40 10 -102q11 -88 11 -114q0 -173 -119 -173q-28 0 -33 13q-1 4 -1 9q0 21 34 21
q42 0 58.5 32.5t16.5 97.5q0 3 -11 108q-11 70 -11 108q0 102 51 158q-126 72 -210 72q-53 0 -82 -23t-29 -58q0 -26 21 -46.5t50 -20.5q2 0 12.5 1.5t11.5 1.5q23 0 23 -19q0 -26 -47 -26q-41 0 -75 26zM680 518q0 17 -25.5 29.5t-77.5 12.5q-67 0 -109 -18q88 -52 161 -52
q20 0 35.5 7.5t15.5 20.5z" />
    <glyph glyph-name="U" unicode="U" horiz-adv-x="725" 
d="M84 562q0 -25 27 -40.5t62 -15.5q6 0 27 3q-10 40 -30.5 64.5t-45.5 24.5q-16 0 -28 -10t-12 -26zM358 27q78 0 156 98q-15 75 -15 149q0 85 14 163t45.5 133t74.5 55q28 0 50 -24.5t22 -86.5q0 -82 -40.5 -196.5t-104.5 -201.5q16 -59 37.5 -85.5t55.5 -26.5q1 0 10 0.5
t11 0.5q22 0 22 -17q0 -24 -39 -24q-96 0 -130 112q-82 -90 -169 -90q-77 0 -117 59t-40 165q0 11 2.5 111t1.5 121q0 17 -1 25q-15 -3 -31 -3q-55 0 -94 26.5t-39 71.5q0 33 24.5 56t60.5 23q39 0 71.5 -31t44.5 -87q33 16 52 49t19 72q0 46 -13 62q-5 7 -5 14q0 22 22 22
q20 0 30.5 -32.5t10.5 -65.5q0 -54 -30 -98.5t-79 -65.5q2 -24 2 -38q1 -18 -2 -117.5t-3 -114.5q0 -94 30.5 -138.5t82.5 -44.5zM660 514q0 69 -27 69q-14 0 -30 -23t-29.5 -63t-22 -102t-8.5 -131q0 -63 5 -97q53 88 82.5 183.5t29.5 163.5z" />
    <glyph glyph-name="V" unicode="V" horiz-adv-x="687" 
d="M536 617q72 0 111 -43t39 -114q0 -43 -25 -121t-63.5 -156.5t-93.5 -136.5t-107 -58q-21 0 -37.5 8.5t-27 20.5t-18 34.5t-11.5 39.5t-5.5 47.5t-2 47.5t-0.5 48q0 159 -28 227q-41 -31 -106 -31q-59 0 -100 33t-41 78q0 41 28.5 66.5t74.5 25.5q61 0 100.5 -31t58.5 -67
q19 33 19 84q0 37 -21.5 65t-50.5 35q-17 5 -17 22q0 10 6.5 16t15.5 6q28 0 70.5 -39.5t42.5 -104.5q0 -74 -45 -128q37 -75 37 -256q0 -106 12.5 -156t48.5 -50q48 0 106.5 84t96.5 186t38 161q0 114 -105 114q-9 0 -15.5 5.5t-6.5 14.5q0 10 6.5 16.5t15.5 6.5zM64 541
q0 -25 28.5 -47t68.5 -22q54 0 91 28q-46 92 -129 92q-25 0 -42 -14t-17 -37z" />
    <glyph glyph-name="W" unicode="W" horiz-adv-x="870" 
d="M872 564q0 -55 -78 -75q37 -87 37 -176q0 -144 -73 -235t-186 -91q-105 0 -156 91q-78 -78 -166 -78q-80 0 -123 54.5t-43 150.5q0 80 40 177q-44 13 -72 47.5t-28 81.5q0 45 24 45q9 0 15 -6.5t6 -15.5q0 -1 -1 -11t-1 -12q0 -37 22.5 -60t53.5 -31q43 79 102.5 128.5
t123.5 49.5q29 0 47.5 -17.5t18.5 -45.5q0 -51 -89 -105.5t-178 -54.5q-39 -84 -39 -170q0 -89 40 -131q34 -34 81 -34q74 0 145 77q-28 70 -28 162q0 41 11.5 82.5t37.5 73t61 31.5q28 0 50 -24t22 -85q0 -50 -28 -120t-74 -127q50 -82 125 -82q94 0 154 80t60 205
q0 91 -37 168q-36 -3 -74 1t-74.5 15t-59.5 34.5t-23 55.5q0 28 22 48t62 20q48 0 94 -36t79 -93q24 4 39.5 14.5t14.5 23.5q-1 10 5 16.5t16 6.5q9 0 15.5 -6.5t6.5 -16.5zM564 587q0 -28 45.5 -48.5t119.5 -17.5q-29 43 -63 67t-64 24q-38 0 -38 -25zM477 423
q-27 0 -46.5 -47.5t-19.5 -96.5q0 -72 17 -128q34 50 55 109t21 97q0 66 -27 66zM369 556q-46 0 -94.5 -38t-84.5 -100q70 7 135 48.5t65 68.5q0 21 -21 21z" />
    <glyph glyph-name="X" unicode="X" horiz-adv-x="705" 
d="M744 -27h11q9 0 15.5 -6t6.5 -16q0 -11 -7.5 -16t-11.5 -5h-15q-89 0 -181 100t-166 278q-94 -155 -164.5 -235.5t-138.5 -80.5q-11 0 -17.5 5t-7.5 9t-1 8q0 9 6 16t17 7q31 -1 69 28t79 83t71 99.5t68 109.5q-31 85 -66 145q-22 -23 -57 -36.5t-70 -13.5
q-70 0 -107 31.5t-37 70.5q0 38 32 66t85 28q94 0 159 -75q11 19 11 60q0 33 -16.5 67.5t-42.5 47.5q-12 6 -12 18q0 9 6 15.5t15 6.5q24 0 59 -47.5t35 -107.5q0 -57 -29 -97q30 -49 64 -134q33 48 57.5 80t60.5 70.5t72.5 58t73.5 19.5q9 0 15 -6.5t6 -16.5q0 -9 -6 -17
t-16 -7q-42 3 -108.5 -57.5t-136.5 -171.5q76 -195 163 -288t157 -93zM85 554q0 -24 26.5 -42.5t73.5 -18.5q30 0 60 12.5t46 31.5q-53 70 -134 70q-34 0 -53 -15.5t-19 -37.5z" />
    <glyph glyph-name="Y" unicode="Y" horiz-adv-x="687" 
d="M557 322q0 -5 1 -27t1 -35q39 62 64 133t25 120q0 57 -30 57q-34 0 -47.5 -61t-13.5 -187zM378 112q62 0 139 92q-4 108 -4 118q0 55 1.5 92t8 77.5t18 64.5t32.5 39.5t50 15.5q23 0 43 -17q26 -22 26 -82q0 -66 -37.5 -155.5t-93.5 -161.5q2 -38 2 -44q0 -89 -22.5 -160
t-58.5 -116t-84.5 -75t-97.5 -42.5t-101 -12.5q-81 0 -140 44t-59 126q0 50 31.5 86t75.5 36q35 0 60 -23.5t25 -60.5q0 -58 -29 -58q-9 0 -16 6.5t-7 15.5q0 4 2 8q5 17 5 28q0 20 -12 31t-28 11q-25 0 -44 -23t-19 -57q0 -46 27.5 -76.5t60.5 -41.5t67 -11q63 0 118 20.5
t100.5 62.5t73 113.5t28.5 165.5q-78 -78 -148 -78q-30 0 -52 11t-35.5 32.5t-21.5 43.5t-11.5 55t-4.5 54.5t-1 54.5v63q0 23 -2 59q-31 -11 -65 -11q-61 0 -101 34.5t-40 88.5q0 42 29 71t74 29q44 0 82.5 -33t54.5 -109q49 47 49 129q0 2 -1.5 17t-1.5 18q0 9 5.5 15.5
t14.5 6.5t15 -4t8 -14t2.5 -17.5t0.5 -21.5q0 -51 -21 -98.5t-63 -78.5q4 -33 4 -167q0 -103 21.5 -144.5t67.5 -41.5zM237 485q-22 129 -97 129q-25 0 -41.5 -17.5t-16.5 -41.5q0 -37 27.5 -59.5t69.5 -22.5q33 0 58 12z" />
    <glyph glyph-name="Z" unicode="Z" horiz-adv-x="790" 
d="M371 51l52 -33q108 -69 188 -69q47 0 76.5 25t29.5 66q0 28 -16.5 49t-46.5 21q-9 0 -15.5 6.5t-6.5 15.5t6.5 15.5t15.5 6.5q49 0 78 -33t29 -81q0 -56 -42.5 -94.5t-106.5 -38.5q-40 0 -79 11.5t-66 25.5t-81 46q-129 75 -153 87q-77 -87 -163 -87q-29 0 -49.5 17
t-20.5 46q0 41 33.5 69.5t95.5 28.5q40 0 93 -21q50 57 133 192l19 31q46 76 91 136q-46 20 -139 74q-22 -42 -62.5 -65.5t-84.5 -23.5q-51 0 -83 25t-32 69q0 42 30 66.5t75 24.5q63 0 134 -38q8 26 8 49q0 45 -26 76q-5 8 -5 14q0 10 6.5 16.5t14.5 6.5q19 0 36 -36
t17 -78q0 -37 -10 -68q15 -8 44 -24.5t52.5 -28.5t52.5 -23q38 46 70 69.5t70 23.5q62 0 62 -60q0 -41 -35.5 -67t-89.5 -26q-28 0 -61 10q-43 -54 -101 -147l-21 -34q-86 -139 -122 -183q48 -24 106 -60zM630 577q-40 0 -94 -66q16 -4 31 -4q84 0 84 49q0 8 -5.5 14.5
t-15.5 6.5zM179 516q35 0 64.5 19.5t44.5 46.5q-72 36 -118 36q-26 0 -43.5 -14.5t-17.5 -35.5q0 -24 19 -38t51 -14zM45 55q0 -9 8.5 -16.5t22.5 -7.5q53 0 115 64q-39 14 -65 14q-40 0 -60.5 -16t-20.5 -38z" />
    <glyph glyph-name="bracketleft" unicode="[" horiz-adv-x="280" 
d="M203 -119h77q20 -2 20 -23q0 -9 -7 -14.5t-17 -4.5h-74q-86 0 -104 17q-23 22 -33.5 96t-14.5 258q-1 24 -1 80q0 310 19 363q8 20 25 20h38q84 0 127 7h3q22 0 22 -22q0 -17 -19 -20q-60 -9 -157 -7q-13 -73 -13 -335q0 -382 30 -402q21 -13 79 -13z" />
    <glyph glyph-name="backslash" unicode="\" horiz-adv-x="328" 
d="M352 -9v-5q0 -17 -16 -22q-23 -5 -28 16q-12 49 -52.5 134.5t-73 144.5t-91.5 165q-115 205 -115 217q0 8 6.5 14.5t15.5 6.5q15 0 21 -12q37 -76 112 -204q68 -122 96 -174t70 -141t55 -140z" />
    <glyph glyph-name="bracketright" unicode="]" horiz-adv-x="280" 
d="M2 -112h2q120 -8 135 -8q25 0 35 3q-6 48 -6 130q0 54 4.5 138.5t5.5 125.5q8 192 8 277q0 55 -3 73q-8 7 -34 7q-22 0 -82 -9q-40 -6 -50 -6q-9 0 -15 6.5t-6 16.5q0 20 21 20q4 0 10.5 1t16 2t16.5 2q59 9 88 9q58 0 70.5 -24t12.5 -101q0 -43 -9 -266.5t-9 -273.5
q0 -91 7 -129v-4q0 -41 -83 -41q-30 0 -112 7q-19 2 -26.5 3.5t-13 6.5t-5.5 15q0 19 22 19z" />
    <glyph glyph-name="asciicircum" unicode="^" 
d="M195 524h42l164 -327h-46l-140 278l-138 -278h-46z" />
    <glyph glyph-name="underscore" unicode="_" horiz-adv-x="500" 
d="M500 -125h-500v50h500v-50z" />
    <glyph glyph-name="grave" unicode="`" horiz-adv-x="205" 
d="M179 411q0 -20 -15 -20q-10 0 -18 6q-92 73 -99 78q-20 15 -20 31q0 17 18 17l12 -3q5 -4 13.5 -11.5t10.5 -8.5q13 -11 90 -72q8 -6 8 -17z" />
    <glyph glyph-name="a" unicode="a" horiz-adv-x="346" 
d="M216 346q43 0 67.5 -27.5t24.5 -78.5q0 -49 -13 -120q-10 -65 -10 -80q0 -7 2 -13q4 -8 4 -12q0 -8 -7 -14.5t-16 -6.5q-28 0 -28 48q0 6 11 85q13 80 13 111q0 34 -15 50t-37 16q-54 0 -93.5 -67t-39.5 -140q0 -28 12 -45.5t31 -17.5q38 0 57 51q5 13 19 13q21 0 21 -22
q0 -21 -28.5 -52.5t-75.5 -31.5q-33 0 -57 26.5t-24 78.5q0 86 52.5 167.5t129.5 81.5z" />
    <glyph glyph-name="b" unicode="b" horiz-adv-x="337" 
d="M155 438q67 21 111 67q15 15 26 36t11 36q0 29 -21 29q-56 0 -127 -168zM162 -10q-111 0 -111 155q0 104 39 233q-21 -3 -48 -3q-24 0 -24 23q0 3 1 6.5t7 8t16 4.5q30 0 64 8q11 32 25 63t36.5 70.5t53 64t63.5 24.5q30 0 47 -17.5t17 -50.5q0 -52 -53 -105
q-55 -57 -154 -83q-46 -127 -46 -246t68 -119q38 0 75 59.5t37 130.5q0 37 -13.5 60t-38.5 23q-28 0 -46 -19q-7 -7 -17 -7q-9 0 -15.5 6.5t-6.5 15.5q0 14 23 31t64 17q44 0 69 -35t25 -92q0 -84 -48.5 -155t-108.5 -71z" />
    <glyph glyph-name="c" unicode="c" horiz-adv-x="300" 
d="M275 305q3 -6 3 -14q0 -22 -21 -22q-11 0 -19 11q-13 19 -35 19q-54 0 -87 -58t-33 -121q0 -37 13 -58.5t26 -26.5t28 -5q54 0 82 50q7 13 19 13q19 0 19 -23q0 -20 -36.5 -50t-86.5 -30q-49 0 -79 32.5t-30 97.5q0 86 48 154t120 68q54 0 69 -37z" />
    <glyph glyph-name="d" unicode="d" horiz-adv-x="340" 
d="M151 -8q-48 0 -79.5 43t-31.5 113q0 74 38 134t97 60q29 0 51.5 -16.5t22.5 -32.5q0 -9 -6.5 -15.5t-15.5 -6.5q-13 0 -19 11q-9 15 -33 15q-38 0 -64.5 -46t-26.5 -103q0 -51 18.5 -83t49.5 -32q59 0 91.5 103t34.5 251q-64 17 -106.5 60t-42.5 96q0 35 22.5 63t58.5 28
q33 0 58 -25q33 -32 45 -92t10 -95q21 -4 37 -5q19 -3 19 -20q0 -8 -6 -14.5t-12 -6.5q-20 0 -39 4q-2 -111 -24 -209t-69 -145q-34 -34 -78 -34zM208 592q-16 0 -25 -15.5t-9 -32.5q0 -37 30 -69t75 -44q0 56 -13 94.5t-28 52.5t-30 14z" />
    <glyph glyph-name="e" unicode="e" horiz-adv-x="298" 
d="M144 188q38 1 67.5 22t29.5 53q0 34 -40 34q-42 0 -81.5 -48t-39.5 -123q0 -15 3 -29.5t11 -30.5t26 -25.5t43 -9.5q43 0 70 33q6 8 16 8q20 0 20 -23q0 -17 -33.5 -38t-75.5 -21q-57 0 -91 36.5t-34 99.5q0 90 52 152t115 62q42 0 63 -22t21 -55q0 -55 -45.5 -86.5
t-96.5 -31.5q-22 0 -22 21q0 20 22 22z" />
    <glyph glyph-name="f" unicode="f" horiz-adv-x="302" 
d="M50 -201q26 0 42 29.5t31 95.5q22 98 37 321q-73 -65 -109.5 -172.5t-36.5 -196.5q0 -35 10.5 -56t25.5 -21zM410 556q0 -28 -15.5 -48t-29.5 -20q-10 0 -15.5 5t-5.5 11q0 18 12 26q9 7 9 27q0 14 -11 25t-31 11q-44 0 -77 -70q-26 -54 -37 -204q38 15 85 15
q41 0 41 -24q0 -9 -6 -14t-14 -5q-5 0 -13.5 0.5t-10.5 0.5q-48 0 -83 -18q-18 -265 -43 -366q-20 -77 -46 -114.5t-72 -37.5q-33 0 -55.5 31.5t-22.5 88.5q0 66 18 141t64 156t112 126q7 101 14.5 146.5t27.5 92.5q19 44 51 70t72 26t61 -21.5t21 -56.5z" />
    <glyph glyph-name="g" unicode="g" horiz-adv-x="321" 
d="M195 300q-49 0 -83.5 -58t-34.5 -123q0 -51 24 -74q20 -20 56 -18q-10 19 -10 47q0 37 21 66t55 29q26 0 41.5 -19t15.5 -48q0 -64 -66 -100q12 -17 25 -28q53 -48 53 -108q0 -80 -62.5 -129t-144.5 -49q-70 0 -111.5 31.5t-41.5 88.5q0 46 31.5 78t76.5 32
q27 0 44.5 -12.5t17.5 -31.5q0 -9 -6 -14.5t-14 -5.5q-13 0 -17 7q-10 15 -27 15q-26 0 -43.5 -19.5t-17.5 -48.5q0 -38 29 -58.5t79 -20.5q60 0 111 37t51 100q0 39 -38 79q-21 21 -36 45q-8 -2 -13 -2q-5 -1 -14 -1q-51 0 -82.5 35.5t-31.5 96.5q0 83 47 152.5t116 69.5
q50 0 76.5 -36t26.5 -97q0 -10 -6.5 -16.5t-16.5 -6.5q-20 0 -20 23q0 32 -14.5 62t-45.5 30zM189 73q0 -20 7 -37q19 9 30.5 28.5t11.5 37.5q0 25 -17 25q-12 0 -22 -16.5t-10 -37.5z" />
    <glyph glyph-name="h" unicode="h" horiz-adv-x="361" 
d="M79 -4q-17 0 -21 18q-7 42 -7 82q0 141 33 280q-7 -1 -27 -1q-13 0 -19 0.5t-13 5.5t-7 16q0 9 6.5 15t14.5 5h19q22 0 38 3q27 86 72 149t98 63q32 0 50 -18t18 -49q0 -58 -61.5 -109.5t-141.5 -71.5q-23 -93 -37 -203q22 73 62.5 117t82.5 44q80 0 80 -148
q0 -37 -5.5 -79.5t-10.5 -64.5t-8 -30q-5 -17 -21 -17q-10 0 -16.5 6.5t-6.5 15.5q0 1 0.5 3t0.5 3q22 85 22 163q0 102 -38 102q-32 0 -66.5 -46t-55.5 -112.5t-14 -119.5q1 -9 -5 -15.5t-16 -6.5zM265 591q-28 0 -62.5 -45.5t-57.5 -114.5q60 21 102.5 59.5t42.5 74.5
q0 26 -25 26z" />
    <glyph glyph-name="i" unicode="i" horiz-adv-x="160" 
d="M119 455l56 7l-40 -28l61 -39l-74 12l-28 -55l1 58l-50 4l49 28l-5 46zM112 332q17 -5 17 -22q0 -3 -1 -5q-32 -130 -43 -297q-2 -21 -22 -21q-10 0 -16.5 6.5t-6.5 16.5t4.5 57t16 121.5t24.5 127.5q1 9 9.5 13.5t17.5 2.5z" />
    <glyph glyph-name="j" unicode="j" horiz-adv-x="183" 
d="M119 394q-16 5 -16 21q0 5 1 7q5 16 8 22t7.5 10t12.5 4q10 0 16.5 -6.5t6.5 -15.5q0 -5 -1 -8q-7 -22 -12 -28.5t-16 -6.5q-5 0 -7 1zM-81 -312q-45 0 -74 26.5t-29 66.5q0 37 25.5 62t60.5 25q33 0 33 -24q0 -19 -21 -19q-3 0 -8 0.5t-9 0.5q-13 0 -24.5 -13t-11.5 -31
q0 -22 16 -37.5t44 -15.5q45 0 80 40.5t53 118.5q21 87 40 341l6 79q2 21 22 21q10 0 16 -6.5t6 -15.5q0 -27 -5 -79q-19 -243 -42 -347q-21 -90 -67.5 -141.5t-110.5 -51.5z" />
    <glyph glyph-name="k" unicode="k" horiz-adv-x="368" 
d="M133 138q-5 -32 -5 -71q0 -28 4 -40q3 -5 3 -10q0 -10 -6.5 -16t-15.5 -6q-30 0 -30 72q0 28 7 77q-71 23 -71 76q0 35 26.5 58t72.5 23q3 18 14 67q32 146 32 183q0 31 -4 38q-2 6 -2 8q0 16 14 21q4 2 9 2q10 0 15.5 -5.5t8 -17.5t3 -21t0.5 -25q0 -39 -27 -170
q-12 -49 -19 -86q52 -12 93 -60q43 43 47 93q2 20 20 20q9 0 15.5 -6.5t6.5 -15.5q0 -30 -22 -69t-44 -55q58 -74 58 -182q0 -14 -7.5 -19.5t-15.5 -5.5q-20 0 -20 25q0 86 -48 154q-48 -37 -112 -36zM73 196q9 -8 22 -13q8 47 15 77q-20 -1 -33.5 -11.5t-13.5 -28.5
q0 -14 10 -24zM139 177h2q51 0 83 30q-27 38 -70 49q-8 -33 -15 -79z" />
    <glyph glyph-name="l" unicode="l" horiz-adv-x="156" 
d="M139 619q4 2 9 2q10 0 15.5 -5.5t8 -17.5t3 -21t0.5 -25q0 -42 -31 -170q-53 -217 -53 -314q0 -28 4 -40q3 -4 3 -10q0 -10 -6.5 -16t-15.5 -6q-30 0 -30 72q0 102 49 301q36 149 36 183q0 31 -4 38q-2 6 -2 8q0 16 14 21z" />
    <glyph glyph-name="m" unicode="m" horiz-adv-x="546" 
d="M54 -9q-21 0 -21 23q0 6 13 64q27 115 27 172q0 46 -15 61q-5 8 -5 16q0 9 6.5 15.5t16.5 6.5q17 0 30 -31t7 -76q41 100 111 100q31 0 54.5 -27t26.5 -88q40 117 120 117q37 -1 60 -37.5t23 -112.5q0 -81 -27 -189q-7 -16 -22 -16q-10 0 -16.5 7t-6.5 16q0 4 1 6
q27 92 27 174q0 107 -44 107q-40 0 -76 -66.5t-51 -158.5q-9 -53 -13 -64.5t-17 -11.5q-9 0 -15.5 7t-6.5 16q0 8 9 55q13 82 13 125q0 97 -44 97q-39 0 -79 -80t-65 -209q-3 -18 -21 -18z" />
    <glyph glyph-name="n" unicode="n" horiz-adv-x="350" 
d="M230 338q11 0 22 -4.5t24.5 -17.5t22 -42.5t8.5 -72.5q0 -71 -23 -183q-3 -20 -22 -20q-10 0 -16.5 6.5t-6.5 16.5q0 2 1 4q22 96 22 176q0 91 -36 91q-41 0 -83.5 -78t-66.5 -200q-3 -17 -21 -17q-21 0 -21 23q0 13 22 101q20 81 21 123q-1 43 -18 60q-5 8 -5 16
t6.5 14.5t15.5 6.5q17 0 31.5 -27.5t11.5 -69.5q41 94 111 94z" />
    <glyph glyph-name="o" unicode="o" horiz-adv-x="341" 
d="M213 348q49 0 78 -37.5t29 -98.5q0 -86 -46 -154t-119 -68q-52 0 -83.5 42t-31.5 112q0 43 14 81q5 16 21 16q9 0 15 -6.5t6 -15.5q0 -4 -2 -10q-9 -23 -9 -64q0 -44 18.5 -78.5t53.5 -34.5q51 0 84.5 56t33.5 124q0 36 -15.5 65t-48.5 29q-26 0 -38.5 -17t-12.5 -39
q0 -40 47 -40q10 0 16.5 -6.5t6.5 -15.5q0 -22 -27 -22q-42 0 -65 24t-23 60q0 39 26.5 68.5t71.5 29.5z" />
    <glyph glyph-name="p" unicode="p" horiz-adv-x="345" 
d="M219 341q50 0 77.5 -40.5t27.5 -106.5q0 -96 -37 -150t-91 -54q-39 0 -62 23.5t-23 40.5q0 10 6.5 16t15.5 6q14 0 20 -11q17 -33 43 -33q36 0 59.5 43t23.5 119q0 20 -4.5 41.5t-19 42t-36.5 20.5q-61 0 -108 -101t-50 -248q74 0 120 -51.5t46 -118.5q0 -49 -22.5 -74.5
t-61.5 -25.5q-58 0 -91.5 62.5t-34.5 157.5q-16 -5 -29 -18.5t-15 -26.5q-2 -11 -19 -11q-18 0 -18 20t21.5 44.5t59.5 34.5q1 175 59 287t143 112zM142 -281q40 0 40 59q0 51 -33.5 90.5t-87.5 38.5q1 -87 25.5 -137.5t55.5 -50.5z" />
    <glyph glyph-name="q" unicode="q" horiz-adv-x="333" 
d="M263 -305q-12 0 -23 13t-19.5 48t-8.5 86q0 69 26 197q25 120 25 169q0 91 -58 91q-51 0 -86.5 -60.5t-35.5 -121.5q0 -83 51 -83q28 0 41 31q5 13 20 14q9 1 14 -6t5 -17q0 -21 -24.5 -42t-58.5 -21q-92 0 -92 123q0 79 48.5 152t121.5 73q46 0 72.5 -32t26.5 -95
q0 -60 -25 -183q-26 -126 -26 -183q0 -87 24 -117q5 -7 5 -15q0 -21 -23 -21z" />
    <glyph glyph-name="r" unicode="r" horiz-adv-x="237" 
d="M88 44l-6 -33q-3 -19 -22 -19q-9 0 -14.5 6.5t-5.5 15.5l14 92q14 92 14 112q0 52 -22 74q-6 5 -6 16q0 9 6.5 15.5t14.5 6.5q16 0 31 -24.5t14 -59.5q16 47 51 71.5t75 24.5q10 0 17 -6t7 -16q0 -18 -21 -20q-22 -1 -40 -10t-30.5 -20t-24 -34t-17.5 -38t-14 -49
t-11 -50t-10 -55z" />
    <glyph glyph-name="s" unicode="s" horiz-adv-x="285" 
d="M90 141q36 0 36 -26q0 -11 -7 -15.5t-13 -3.5q-1 0 -6.5 1.5t-9.5 1.5q-24 0 -24 -29q0 -18 19.5 -33t45.5 -15q30 0 52 17t22 49q0 46 -57 76q-73 39 -73 94q0 33 25.5 58.5t69.5 25.5q40 0 61.5 -21t21.5 -39q0 -10 -6.5 -16.5t-16.5 -6.5q-15 0 -18 13
q-3 11 -14.5 21.5t-28.5 10.5q-23 0 -36.5 -13t-13.5 -33q0 -15 10 -26t39 -29q41 -24 61.5 -48.5t20.5 -60.5q0 -48 -32 -78t-88 -30q-44 0 -76.5 23.5t-32.5 59.5q0 31 20 51.5t49 20.5z" />
    <glyph glyph-name="t" unicode="t" horiz-adv-x="210" 
d="M168 13q0 -9 -6.5 -15.5t-15.5 -7.5h-3q-3 1 -4 1q-74 12 -74 126q0 80 25 180q-16 0 -32.5 -2.5t-21.5 -2.5q-14 0 -14 17q0 10 6.5 16.5t20 9t23 3l28.5 1.5q13 53 31 119q5 14 20 16q23 0 23 -20q0 -7 -2 -11q-13 -39 -28 -105q7 0 61 -2q22 -4 22 -21q0 -20 -19 -20
q-15 0 -72 3q-27 -96 -27 -178q0 -78 39 -86q8 0 14 -6.5t6 -14.5z" />
    <glyph glyph-name="u" unicode="u" horiz-adv-x="336" 
d="M104 307v-5q-24 -106 -24 -175q0 -94 42 -94q47 0 87 83t57 205q3 19 26 19q7 0 12.5 -8t3.5 -17q-3 -27 -14 -82q-17 -102 -17 -135q0 -48 20 -69q5 -6 5 -15t-6.5 -15.5t-15.5 -6.5q-17 0 -31.5 29t-13.5 69q-19 -46 -49.5 -73t-63.5 -27q-35 0 -60.5 30t-25.5 107
q0 65 22 178q6 25 23 25q10 0 16.5 -7t6.5 -16z" />
    <glyph glyph-name="v" unicode="v" horiz-adv-x="302" 
d="M100 299l-2 -10q-11 -58 -11 -141q0 -36 3.5 -62t8.5 -38t11 -12q16 0 46 40.5t59.5 110.5t36.5 137q2 10 9 15.5t16 4.5q8 -1 14 -7.5t6 -14.5v-2q-12 -105 -74 -215.5t-115 -110.5q-66 0 -66 154q0 83 14 155q3 17 21 17q10 0 17 -6.5t6 -14.5z" />
    <glyph glyph-name="w" unicode="w" horiz-adv-x="506" 
d="M451 340q5 3 9 3q29 0 29 -62q0 -50 -20 -114.5t-60 -117t-86 -52.5q-33 0 -57 28t-23 85q-19 -51 -52 -82.5t-70 -31.5q-43 0 -62 40t-19 94q0 86 24 180q5 18 22 18q9 0 15.5 -6.5t6.5 -16.5q0 -3 -1 -5q-22 -90 -22 -170q0 -92 39 -92q43 0 84 81.5t49 192.5
q2 21 19 21q10 0 16.5 -6.5t6.5 -16.5q0 -7 -3 -34q-12 -118 -12 -146q0 -90 41 -90t80.5 84t39.5 157q0 19 -6 30q-2 6 -2 9q0 15 14 20z" />
    <glyph glyph-name="x" unicode="x" horiz-adv-x="320" 
d="M-2 32h3q28 0 142 160q-54 101 -74 107q-17 5 -17 21q0 9 7 15.5t16 6.5q12 0 25 -10t28.5 -33.5t21 -33t20.5 -36.5q38 52 64 78.5t49 26.5q9 0 15.5 -7t6.5 -16q0 -8 -6.5 -14.5t-14.5 -7.5q-21 -3 -92 -101q77 -152 107 -156q20 -2 20 -22q0 -10 -7.5 -17t-17.5 -5
q-30 3 -58 40.5t-72 122.5q-64 -89 -98.5 -126.5t-64.5 -37.5q-14 0 -19.5 7.5t-5.5 15.5q0 9 6.5 15.5t15.5 6.5z" />
    <glyph glyph-name="y" unicode="y" horiz-adv-x="331" 
d="M108 315l-1 -4q-22 -118 -22 -178q0 -93 38 -93q30 0 62 43.5t52.5 109t20.5 124.5q0 9 7 15t16 6t14.5 -6.5t5.5 -15.5q0 -33 -10 -190q-9 -119 -36 -210q58 -33 58 -90q0 -9 -6.5 -15.5t-15.5 -6.5t-15 6.5t-6 15.5q0 33 -31 47q-32 -83 -97.5 -134t-133.5 -51
q-40 0 -66.5 21t-26.5 64q0 73 74 120.5t160 47.5q37 0 64 -9q26 82 37 192q-19 -54 -55 -91t-72 -37q-43 0 -63 39t-20 98q0 66 22 182q9 22 24 23q9 0 15.5 -6.5t6.5 -16.5zM14 -271q53 0 105.5 45.5t81.5 119.5q-21 6 -52 6q-67 0 -128 -36.5t-61 -87.5q0 -23 16 -35
t38 -12z" />
    <glyph glyph-name="z" unicode="z" horiz-adv-x="336" 
d="M245 332l3 3q5 5 14 5q25 0 25 -22q0 -8 -5 -16q-51 -56 -106 -133q-53 -74 -101 -120q51 10 122 -4q33 -7 50 -7q21 0 26.5 6.5t5.5 23.5q0 20 19 22q14 3 19.5 -6t5.5 -21q0 -31 -21 -48.5t-55 -17.5q-10 0 -57 7q-50 10 -79 10q-37 0 -71 -11q-1 -1 -8 -1
q-9 0 -15.5 6.5t-6.5 14.5q0 9 5 16q63 65 126 155q26 37 76 93q-11 0 -56.5 5t-52.5 5q-20 0 -25 -11q-6 -13 -20 -13q-9 0 -16 6.5t-7 15.5q0 7 5.5 16t22 18.5t40.5 9.5q7 0 53 -6t54 -6q22 0 30 5z" />
    <glyph glyph-name="braceleft" unicode="{" horiz-adv-x="370" 
d="M340 -132h6q9 0 15.5 -6t6.5 -15q0 -26 -62 -26q-63 0 -107 33.5t-44 102.5q0 29 20 102q18 63 18 106q0 40 -14 69q-36 -36 -82 -36q-54 0 -75.5 21t-21.5 48t28 49t72 22t74 -24q11 28 11 57q0 37 -11 87q-10 52 -10 86q0 62 42.5 96t102.5 34q37 0 63 -16
q11 -6 11 -17q0 -10 -6.5 -16.5t-15.5 -6.5q-5 0 -11 3q-17 10 -41 10q-44 0 -72.5 -24t-28.5 -63q0 -26 10 -76q12 -58 12 -97q0 -50 -24 -94q32 -46 32 -112q0 -56 -20 -121q-18 -58 -18 -87q0 -93 106 -93q14 0 34 4zM97 242q36 0 62 31q-24 22 -59 22q-26 0 -41 -9.5
t-15 -18.5q0 -25 53 -25z" />
    <glyph glyph-name="bar" unicode="|" horiz-adv-x="222" 
d="M88 -250v1000h46v-1000h-46z" />
    <glyph glyph-name="braceright" unicode="}" horiz-adv-x="370" 
d="M260 297q-35 0 -59 -26q24 -33 60 -33q20 0 32.5 8t12.5 19t-11 21.5t-35 10.5zM150 540q0 44 -25.5 68.5t-67.5 24.5q-24 0 -43 -5h-3l-2 -1q-22 0 -22 20q0 18 17 21q25 7 53 7q64 0 101 -36t37 -107q0 -16 -11 -73q-11 -59 -11 -91q0 -27 10 -56q32 27 77 27
q43 0 66.5 -22.5t23.5 -51.5t-23 -49.5t-66 -20.5q-47 0 -82 36q-15 -27 -15 -69q0 -21 2.5 -37t7.5 -33.5t6 -20.5q17 -70 17 -110q0 -72 -41 -106t-99 -34q-67 0 -67 28q0 9 6.5 15.5t15.5 6.5q6 0 8 -1q21 -7 37 -7q39 0 67 22.5t28 73.5q0 40 -16 100q-16 64 -16 103
q0 64 33 111q-25 39 -25 95q0 48 13 100q9 34 9 72z" />
    <glyph glyph-name="asciitilde" unicode="~" 
d="M61 190l-30 28q41 71 99 71q37 0 93 -27q5 -2 16 -7.5t17 -8t15 -6t16.5 -5t15.5 -1.5q35 0 69 55l30 -29q-21 -35 -43.5 -53t-55.5 -17q-33 0 -92 26q-52 28 -81 28q-37 0 -69 -54z" />
    <glyph glyph-name="uni00A0" unicode="&#xa0;" horiz-adv-x="170" 
 />
    <glyph glyph-name="exclamdown" unicode="&#xa1;" horiz-adv-x="278" 
d="M149 238q9 0 15 -6.5t6 -14.5q0 -6 -2 -12q-15 -25 -15 -70q0 -39 6 -129q6 -94 6 -133q0 -44 -14 -74q29 -37 29 -86q0 -46 -24 -46q-20 0 -20 21q0 2 1 12.5t1 13.5q0 23 -8 42q-24 -42 -76 -42q-26 0 -43.5 17t-17.5 42q0 29 20 48t52 19q27 0 49 -12q6 13 6 43
q0 76 -3 120l-9 144q0 33 11 68t30 35zM60 -244q28 0 44 30q-13 11 -39 11q-28 0 -28 -20q0 -9 6.5 -15t16.5 -6zM181 339l-5 -32q-4 -21 -28 -18q-11 1 -17 8.5t-4 16.5l5 32q3 19 24 19q12 0 19.5 -8t5.5 -18z" />
    <glyph glyph-name="cent" unicode="&#xa2;" horiz-adv-x="450" 
d="M276 644q9 0 15.5 -6.5t6.5 -15.5q0 -8 -4 -12q-3 -3 -13 -66q61 -2 96.5 -35.5t35.5 -82.5q0 -34 -21.5 -56t-47.5 -22q-25 0 -40 17t-15 31q0 9 6.5 16t15.5 7q16 0 21 -17q5 -11 12 -11q9 0 17 9.5t8 25.5q0 33 -26 54.5t-70 22.5q-45 -351 -54 -401q78 0 115 56
q8 9 19 9q9 0 15 -6t6 -16q0 -11 -17 -30.5t-56.5 -37t-89.5 -16.5q-15 -75 -27 -101q-6 -13 -20 -13q-22 0 -22 22q0 5 2 9q10 20 23 89q-136 31 -136 184q0 102 58 188.5t147 101.5q13 82 23 95q7 8 17 8zM213 374l16 124q-61 -13 -107 -87.5t-46 -159.5q0 -121 100 -144
q17 103 37 267z" />
    <glyph glyph-name="sterling" unicode="&#xa3;" horiz-adv-x="572" 
d="M542 108q7 -5 7 -26q0 -48 -33.5 -77t-88.5 -29q-75 0 -148 47q-85 55 -90 58q-48 -87 -128 -87q-35 0 -55.5 19t-20.5 49q0 35 28.5 65t86.5 30q36 0 68 -17q22 45 15 110q-47 -8 -76 -8q-52 0 -52 22q0 9 7 15.5t15 6.5q3 0 15 -1.5t15 -1.5q20 0 73 8q0 11 -1 27
t-1 23q0 128 51 189t130 61q14 0 46 -8q32 25 74 25q49 0 49 -24q0 -20 -22 -20q-2 0 -11.5 2t-14.5 2q-19 0 -35 -8q45 -34 45 -90q0 -31 -20 -54t-48 -23q-31 0 -52.5 21.5t-21.5 58.5q0 45 27 76q-73 10 -113.5 -47t-40.5 -162q0 -13 2 -43q135 19 164 19q15 0 22.5 -0.5
t17.5 -2.5t14.5 -7t4.5 -14t-6.5 -15t-15.5 -6q-2 0 -18 1.5t-19 1.5q-32 0 -160 -18q8 -72 -19 -136q31 -16 96 -60q62 -43 123 -43q77 0 77 65q0 1 -3 8t-3 10q0 9 6.5 15.5t16.5 6.5q16 0 21 -14zM411 537q-20 -33 -20 -66q0 -17 8.5 -28t20.5 -11t20.5 10.5t8.5 26.5
q0 45 -38 68zM63 35q55 0 89 67q-23 14 -55 14t-49.5 -16.5t-17.5 -35.5q0 -12 9 -20.5t24 -8.5z" />
    <glyph glyph-name="currency" unicode="&#xa4;" 
d="M217 358q-47 0 -80 -34t-33 -80t33 -79t80 -33q46 0 78.5 33.5t32.5 78.5q0 46 -32.5 80t-78.5 34zM22 82l70 70q-31 41 -31 92q0 55 31 91l-70 71l33 33l69 -71q43 32 93 32q52 0 91 -32l69 71l33 -33l-69 -71q30 -39 30 -91q0 -54 -30 -92l69 -70l-33 -33l-69 70
q-35 -29 -91 -29q-58 0 -93 29l-69 -70z" />
    <glyph glyph-name="yen" unicode="&#xa5;" horiz-adv-x="534" 
d="M265 163q0 30 -4 68q-52 -80 -52 -155q0 -56 23 -56q14 0 23.5 37.5t9.5 105.5zM230 -18q-64 0 -64 95q0 28 14 74.5t43 88.5q-52 -2 -74 -2q-27 0 -39.5 0.5t-24.5 2.5t-16 7t-4 13q0 9 7 15.5t16 6.5h4q18 -5 56 -5q33 0 105 4q-20 120 -65 185t-101 65
q-27 0 -36.5 -15t-9.5 -30q0 -2 1.5 -10.5t1.5 -9.5q0 -10 -6 -16.5t-15 -6.5q-26 0 -26 43q0 36 24.5 61t65.5 25q76 0 128.5 -72.5t74.5 -195.5q26 34 104 106q25 23 38.5 37t25.5 35.5t12 42.5q0 24 -17.5 36t-44.5 8q-8 -2 -14.5 4t-6.5 16q0 23 34 23q42 0 67.5 -22
t25.5 -64q0 -58 -68 -123q-16 -15 -43.5 -39t-47.5 -43.5t-33 -34.5q89 5 131 4q10 0 16 -6.5t6 -15.5q0 -5 -1 -8t-3.5 -5t-4.5 -3t-6.5 -1.5t-7 -0.5h-8.5h-9q-28 0 -134 -6q7 -49 7 -82q0 -95 -22 -138t-56 -43z" />
    <glyph glyph-name="brokenbar" unicode="&#xa6;" horiz-adv-x="222" 
d="M88 -175v350h46v-350h-46zM88 325v350h46v-350h-46z" />
    <glyph glyph-name="section" unicode="&#xa7;" horiz-adv-x="390" 
d="M174 -149q-58 0 -101.5 37t-42.5 90q0 39 25.5 71.5t65.5 32.5q27 0 47.5 -16t20.5 -38q0 -10 -8.5 -15.5t-16.5 -5.5q-11 0 -20 18q-8 17 -26 17q-17 0 -30.5 -18t-13.5 -44q0 -33 28.5 -60.5t74.5 -27.5q52 0 85 32.5t33 88.5q0 84 -103 127q-61 27 -90 59.5t-29 82.5
q0 51 42 91q-32 38 -32 84q0 56 45 98t107 42q53 0 86.5 -27.5t33.5 -72.5q0 -33 -23 -55t-47 -21q-9 0 -16 5.5t-6 17.5q0 6 5 11t12 6q12 1 21.5 10.5t9.5 24.5q1 24 -20 42.5t-59 18.5q-42 0 -73 -28.5t-31 -67.5q0 -44 28.5 -71t81.5 -49q117 -49 117 -145
q0 -55 -40 -97q25 -28 25 -85q0 -78 -50 -120.5t-116 -42.5zM199 182q76 -34 92 -54q21 29 21 69q0 64 -84 103q-68 31 -89 49q-23 -28 -23 -65q0 -64 83 -102z" />
    <glyph glyph-name="dieresis" unicode="&#xa8;" horiz-adv-x="254" 
d="M200 469v-7q0 -1 1 -7t1 -7q0 -9 -6.5 -15.5t-15.5 -6.5q-11 0 -16.5 8.5t-6.5 17t-1 26.5q0 2 -1 8.5t-1 7.5q0 9 6.5 15.5t15.5 6.5q26 0 24 -47zM92 469v-7q0 -1 1 -7t1 -7q0 -9 -6.5 -15.5t-15.5 -6.5q-11 0 -16.5 8.5t-6.5 17t-1 26.5q0 2 -1 8.5t-1 7.5
q0 9 6.5 15.5t15.5 6.5q26 0 24 -47z" />
    <glyph glyph-name="copyright" unicode="&#xa9;" horiz-adv-x="740" 
d="M365 12q72 0 129.5 28t91.5 74t52 102t18 117q0 119 -72 207.5t-199 88.5q-96 0 -166 -47t-102.5 -117.5t-32.5 -151.5q0 -137 77.5 -219t203.5 -82zM700 333q0 -94 -35.5 -174t-113.5 -133t-186 -53q-144 0 -234.5 92.5t-90.5 247.5q0 70 23 133.5t65.5 113.5t109 79.5
t147.5 29.5q146 0 230.5 -99.5t84.5 -236.5zM456 518h-10q-20 0 -37 -25q42 -8 66.5 -36t24.5 -61q0 -28 -16.5 -45t-44.5 -17q-32 0 -57.5 32t-26.5 85q-44 -11 -71.5 -54.5t-27.5 -94.5q0 -54 27 -88.5t79 -34.5q65 0 93 43q5 8 18 8q8 0 12 -4q7 -5 7 -17q0 -10 -13 -26
t-44.5 -30.5t-72.5 -14.5q-68 0 -109 44t-41 120q0 70 41.5 126.5t109.5 64.5q12 31 34.5 49t48.5 18q33 0 33 -24q0 -18 -23 -18zM458 396q0 19 -16 36t-44 22q0 -35 13.5 -57t26.5 -22q20 0 20 21z" />
    <glyph glyph-name="ordfeminine" unicode="&#xaa;" horiz-adv-x="313" 
d="M248 388h-1q3 -6 3 -11q0 -10 -6.5 -16t-15.5 -6q-26 0 -26 43q0 22 8 68q10 72 10 90q0 27 -12 40q-8 9 -24 9q-40 0 -72 -55.5t-32 -110.5q0 -44 26 -44q15 0 26.5 14t15.5 30q3 17 20 17q9 0 14.5 -6.5t5.5 -15.5q0 -21 -23.5 -51t-61.5 -30q-28 0 -48 20.5t-20 65.5
q0 69 44 138t107 69q36 0 57.5 -24t21.5 -66q0 -12 -11 -97q-8 -42 -8 -62q0 -5 2 -9zM159 286l-57 1q-19 0 -31 -2q-10 -2 -18.5 4.5t-8.5 16.5q0 8 3.5 12.5t12.5 6.5t16.5 2.5t25.5 0.5h56q47 0 57 3q4 2 7 2q9 0 16 -6.5t7 -16.5q0 -16 -19.5 -20t-66.5 -4z" />
    <glyph glyph-name="guillemotleft" unicode="&#xab;" horiz-adv-x="330" 
d="M249 182q25 -18 38 -31q7 -6 7 -15q0 -10 -6.5 -16.5t-15.5 -6.5q-10 0 -16 7l-21 16q-21 16 -45 34.5t-30 23.5q-9 8 -9 18q0 11 9 18q17 11 49 52q26 31 34.5 38.5t16.5 7.5q9 0 15.5 -6t6.5 -16q0 -9 -6 -15q-40 -50 -70 -79q11 -7 43 -30zM84 205q51 -31 76 -56
q6 -8 6 -15q0 -9 -6.5 -15.5t-16.5 -6.5t-15 6q-34 34 -89 62q-13 7 -13 20q0 10 10 18q14 10 36 45q33 46 43 57q9 7 17 7q9 0 15.5 -6.5t6.5 -16.5q0 -9 -6 -15q-4 -5 -17.5 -22.5t-28.5 -37.5z" />
    <glyph glyph-name="logicalnot" unicode="&#xac;" 
d="M356 97v156h-322v42h364v-198h-42z" />
    <glyph glyph-name="uni00AD" unicode="&#xad;" horiz-adv-x="307" 
d="M171 216l-72 1q-31 0 -39 -2q-10 -4 -18 2.5t-8 16.5q0 18 14 22t51 4l72 -1q55 0 72 5q4 2 7 2q9 0 15.5 -7t6.5 -15q0 -32 -101 -28z" />
    <glyph glyph-name="registered" unicode="&#xae;" horiz-adv-x="516" 
d="M254 232q-91 0 -147.5 58.5t-56.5 155.5q0 92 58.5 157.5t158.5 65.5q92 0 145.5 -62t53.5 -149q0 -92 -56 -159t-156 -67zM254 268q82 0 126 54.5t44 135.5q0 74 -42.5 124.5t-114.5 50.5q-82 0 -128.5 -54t-46.5 -133q0 -85 45 -131.5t117 -46.5zM228 467l-5 -23
q-11 -51 -11 -59q0 -13 6 -31q1 -4 1 -11q0 -13 -22 -13q-29 0 -29 55q0 21 11 65q9 39 9 62q0 4 -0.5 22t-0.5 24q0 10 9 13q7 4 28 6q48 3 81 -16.5t33 -60.5t-38 -55q17 -9 25 -29q2 -4 5.5 -17.5t8 -24t9.5 -14.5q5 -8 5 -16q0 -13 -23 -13q-14 0 -22.5 9.5t-15.5 33.5
q-12 51 -40 52q-4 0 -9 5.5t-5 13.5q0 19 14 19q40 2 40 35q0 19 -19 28.5t-40 8.5q1 -12 1 -21t-6 -48z" />
    <glyph glyph-name="macron" unicode="&#xaf;" horiz-adv-x="237" 
d="M184 475q10 3 19 -2.5t9 -12.5q0 -19 -17 -21q-36 -9 -75 -9q-5 0 -36 2t-38 2q-9 0 -15.5 5t-6.5 12q0 8 6.5 14.5t15.5 6.5q5 0 36 -2t38 -2q30 0 64 7z" />
    <glyph glyph-name="degree" unicode="&#xb0;" horiz-adv-x="240" 
d="M136 600q36 0 61 -25.5t25 -61.5q0 -37 -25 -62t-61 -25q-37 0 -62.5 25t-25.5 62q0 36 25.5 61.5t62.5 25.5zM136 567q-22 0 -37 -16t-15 -38t15 -38t37 -16t37 16t15 38t-15 38t-37 16z" />
    <glyph glyph-name="plusminus" unicode="&#xb1;" 
d="M195 259v130h42v-130h161v-42h-161v-133h-42v133h-161v42h161zM34 7v42h364v-42h-364z" />
    <glyph glyph-name="twosuperior" unicode="&#xb2;" horiz-adv-x="320" 
d="M138 523v1q-4 5 -4 13t5.5 14t13.5 6q11 0 18 -10.5t7 -23.5q0 -22 -16 -39.5t-41 -17.5q-26 0 -45.5 19t-19.5 47q0 46 34.5 78t83.5 32q47 0 73.5 -28.5t26.5 -72.5q0 -40 -21.5 -86.5t-58.5 -82.5q29 -17 48 -17q40 0 40 43q0 21 18 21q19 0 19 -26q0 -35 -22 -55.5
t-55 -20.5q-38 0 -79 32q-41 -28 -79 -28q-26 0 -44.5 14t-18.5 36q0 25 19 42t46 17q30 0 76 -37q32 29 52 71t20 77q0 27 -15 45t-46 18q-35 0 -56 -20.5t-21 -51.5q0 -13 7.5 -20.5t17.5 -7.5q17 0 17 19zM84 360q25 0 46 12q-25 21 -44 21q-26 0 -26 -20q0 -5 7 -9
t17 -4z" />
    <glyph glyph-name="threesuperior" unicode="&#xb3;" horiz-adv-x="270" 
d="M133 320q-55 0 -79 29.5t-24 64.5q0 8 6 13.5t13 5.5q9 0 14.5 -5.5t5.5 -13.5q0 -24 15 -40q17 -17 49 -17q41 0 67.5 21t26.5 54q0 24 -8 36q-32 -30 -76 -30q-26 0 -42.5 14t-16.5 34q0 21 19.5 35.5t49.5 14.5q34 0 58 -12q6 14 6 32t-12 33.5t-42 15.5
q-18 0 -34.5 -10t-21.5 -28q-5 -15 -18 -15q-8 0 -14 6.5t-6 14.5q0 20 27 45t67 25q46 0 70 -24.5t24 -62.5q0 -29 -14 -55q25 -24 25 -69q0 -46 -37.5 -79t-97.5 -33zM123 486q0 -11 20 -11q26 0 46 17q-16 7 -36 7q-30 0 -30 -13z" />
    <glyph glyph-name="acute" unicode="&#xb4;" horiz-adv-x="205" 
d="M125 500q2 1 10.5 8.5t13.5 11.5q1 0 3 0.5t3.5 1l3 1t2.5 0.5q18 0 18 -17q0 -15 -20 -31q-12 -9 -49 -38t-50 -38q-8 -6 -18 -6q-6 0 -10.5 6t-4.5 12q0 11 8 17q77 61 90 72z" />
    <glyph glyph-name="mu" unicode="&#xb5;" horiz-adv-x="382" 
d="M139 322v-3q-22 -141 -22 -188q0 -92 41 -92q42 0 79.5 73.5t60.5 199.5q4 23 25 18q19 -3 19 -21q0 -1 -2 -14t-2 -15q-25 -132 -25 -187q0 -42 9 -61q3 -6 3 -10q0 -10 -6.5 -16.5t-16.5 -6.5q-30 0 -33 86q-44 -90 -111 -90q-46 0 -65 46q-27 -162 -48 -208
q-6 -13 -20 -13q-9 0 -15.5 6.5t-6.5 15.5q0 2 0.5 5t0.5 4q31 68 68 333l3 24q16 113 21 123q7 14 20 14q10 0 16.5 -7t6.5 -16z" />
    <glyph glyph-name="paragraph" unicode="&#xb6;" horiz-adv-x="540" 
d="M308 491q10 0 15.5 -5.5t8 -17.5t3 -21t0.5 -25q0 -47 -32 -192q-42 -186 -42 -282q0 -28 4 -40q3 -5 3 -10q0 -10 -6.5 -16t-15.5 -6q-30 0 -30 72q0 83 44 294q31 155 31 180q0 31 -4 38q-2 6 -2 8q0 16 14 21q4 2 9 2zM428 471q10 0 15.5 -5.5t8 -17.5t3 -21t0.5 -25
q0 -31 -29 -178q-40 -205 -40 -276q0 -28 4 -40q3 -5 3 -10q0 -10 -6.5 -16t-15.5 -6q-30 0 -30 72q0 66 38 271q3 16 12.5 60.5t14.5 74.5t5 48q0 31 -4 38q-2 6 -2 8q0 16 14 21q4 2 9 2zM548 505q0 -9 -7 -16t-15 -7q-9 0 -14.5 4t-9 11t-5.5 9q-19 20 -63 36.5
t-113 16.5q-97 0 -163.5 -48t-66.5 -119q0 -51 30 -82t75 -31q9 0 15 -6t6 -14q0 -9 -6 -15t-16 -6q-58 0 -103.5 41t-45.5 113q0 89 78.5 148.5t197.5 59.5q96 0 161 -31.5t65 -63.5z" />
    <glyph glyph-name="periodcentered" unicode="&#xb7;" horiz-adv-x="130" 
d="M46 231l4 34q4 21 29 18q10 -1 16 -8.5t5 -16.5l-5 -34q-3 -18 -25 -18q-12 0 -19 7t-5 18z" />
    <glyph glyph-name="cedilla" unicode="&#xb8;" horiz-adv-x="243" 
d="M114 -182q-20 0 -40.5 8t-20.5 22q0 9 5.5 15.5t14.5 6.5q7 0 14 -4q13 -10 31 -10q11 0 23 8.5t12 20.5q0 22 -29 36q-1 0 -4.5 1.5t-4.5 2.5t-4 2.5t-4.5 3t-4 3.5t-3 4.5t-1.5 5.5t-1 7q0 12 26 42l23 23l34 -13l-43 -49q56 -17 56 -68q0 -28 -25.5 -48t-53.5 -20z
" />
    <glyph glyph-name="onesuperior" unicode="&#xb9;" horiz-adv-x="260" 
d="M172 519v-25q0 -12 2 -49t2 -53q0 -68 -33 -68q-8 0 -13.5 6.5t-5.5 14.5q0 4 6 18t6 29t-2.5 61.5t-2.5 54.5q-40 -9 -87 -9q-20 0 -20 18q0 8 6 13.5t14 5.5q50 1 90 11q3 41 20 69t45 28q23 0 35.5 -13t12.5 -31q0 -56 -75 -81zM200 605q-16 0 -25 -44q33 17 33 38
q0 6 -8 6z" />
    <glyph glyph-name="ordmasculine" unicode="&#xba;" horiz-adv-x="306" 
d="M108 563q0 34 21.5 59t54.5 25q40 0 65 -31.5t25 -82.5q0 -70 -38.5 -125.5t-98.5 -55.5q-44 0 -70.5 35t-26.5 93q0 33 10 69q3 17 21 17q10 0 16 -6.5t6 -15.5q0 -4 -1 -6q-7 -31 -7 -58q0 -37 13 -62t40 -25q40 0 65.5 42.5t25.5 97.5q0 73 -45 73q-13 0 -22.5 -11.5
t-9.5 -28.5q0 -24 29 -24q21 0 21 -20q0 -21 -26 -21q-28 0 -48 17.5t-20 44.5zM171 280h-58q-24 0 -30 -1q-11 -2 -18.5 5t-7.5 17q0 8 3 12.5t11.5 6t16.5 2t25 0.5l58 -1q43 0 56 5q6 2 7 2q9 0 15.5 -7t6.5 -16t-5 -14.5t-19 -7.5t-25 -2.5t-36 -0.5z" />
    <glyph glyph-name="guillemotright" unicode="&#xbb;" horiz-adv-x="330" 
d="M296 197l-35 -31q-43 -35 -57 -49q-6 -6 -15 -6q-10 0 -16.5 6.5t-6.5 15.5t7 15q4 4 80 69l-36 36q-28 29 -33.5 36t-5.5 14q0 10 6.5 16.5t15.5 6.5q8 0 17 -7q18 -22 33 -35q54 -57 54 -70q0 -9 -8 -17zM178 209q-94 -97 -118 -97q-10 0 -16.5 6.5t-6.5 16.5
q0 12 13 20q30 14 81 67q-2 2 -4 4.5t-5.5 5.5t-5.5 5q-32 32 -57 50q-10 8 -10 18t6.5 16.5t16.5 6.5q9 0 31.5 -19.5t45 -42t25.5 -24.5q9 -5 9 -18q0 -8 -5 -15z" />
    <glyph glyph-name="onequarter" unicode="&#xbc;" horiz-adv-x="720" 
d="M172 519v-25q0 -12 2 -49t2 -53q0 -68 -33 -68q-8 0 -13.5 6.5t-5.5 14.5q0 4 6 18t6 29t-2.5 61.5t-2.5 54.5q-40 -9 -87 -9q-20 0 -20 18q0 8 6 13.5t14 5.5q50 1 90 11q3 41 20 69t45 28q23 0 35.5 -13t12.5 -31q0 -56 -75 -81zM200 605q-16 0 -25 -44q33 17 33 38
q0 6 -8 6zM567 -2q-15 -1 -20 8t-5 27q0 4 5 49q-11 3 -64 22q-5 2 -14.5 5.5t-14.5 5.5q-42 -35 -78 -35q-23 0 -36 15t-13 33q0 19 15 35t39 16q25 0 63 -17q23 21 41 51.5t18 57.5q0 9 -7.5 15.5t-18.5 7.5l-10 -1q-4 -1 -7.5 3.5t-3.5 11.5q0 19 30 19q27 0 42.5 -16
t15.5 -36q0 -62 -63 -129q43 -19 72 -26q7 26 17 75q11 51 11 62q0 12 -1 14t-1 5q0 11 21 11q22 0 22 -27q0 -14 -6 -41q-1 -4 -11 -50t-12 -55q16 -3 31 -3q22 0 33 18q3 4 10 4q17 0 17 -16q0 -15 -16 -29.5t-44 -14.5q-16 0 -37 3q-3 -30 -3 -44q0 -15 2 -18q2 -4 2 -5
q0 -11 -21 -11zM367 126q0 -4 5 -7.5t10 -2.5q15 0 37 18q-17 10 -35 10q-17 -4 -17 -18zM136 6v5q13 52 51.5 132t71 137t95.5 165q88 150 110 185q8 12 20 12q7 0 12 -6.5t5 -14.5q0 -7 -7 -18q-29 -50 -107 -179q-187 -314 -214 -424q-2 -9 -9.5 -13.5t-14.5 -2.5
q-13 6 -13 22z" />
    <glyph glyph-name="onehalf" unicode="&#xbd;" horiz-adv-x="650" 
d="M172 519v-25q0 -12 2 -49t2 -53q0 -68 -33 -68q-8 0 -13.5 6.5t-5.5 14.5q0 4 6 18t6 29t-2.5 61.5t-2.5 54.5q-40 -9 -87 -9q-20 0 -20 18q0 8 6 13.5t14 5.5q50 1 90 11q3 41 20 69t45 28q23 0 35.5 -13t12.5 -31q0 -56 -75 -81zM200 605q-16 0 -25 -44q33 17 33 38
q0 6 -8 6zM438 193v1q-4 5 -4 13t5.5 14t13.5 6q11 0 18 -10.5t7 -23.5q0 -22 -16 -39.5t-41 -17.5q-26 0 -45.5 19t-19.5 47q0 46 34.5 78t83.5 32q47 0 73.5 -28.5t26.5 -72.5q0 -40 -21.5 -86.5t-58.5 -82.5q29 -17 48 -17q40 0 40 43q0 21 18 21q19 0 19 -26
q0 -35 -22 -55.5t-55 -20.5q-38 0 -79 32q-41 -28 -79 -28q-26 0 -44.5 14t-18.5 36q0 25 19 42t46 17q30 0 76 -37q32 29 52 71t20 77q0 27 -15 45t-46 18q-35 0 -56 -20.5t-21 -51.5q0 -13 7.5 -20.5t17.5 -7.5q17 0 17 19zM384 30q25 0 46 12q-25 21 -44 21
q-26 0 -26 -20q0 -5 7 -9t17 -4zM121 6v5q13 52 51.5 132t71 137t95.5 165q88 150 110 185q7 12 20 12q7 0 12 -6.5t5 -14.5q0 -7 -7 -18q-29 -50 -107 -179q-189 -317 -214 -424q-2 -9 -9.5 -13.5t-14.5 -2.5q-13 6 -13 22z" />
    <glyph glyph-name="threequarters" unicode="&#xbe;" horiz-adv-x="720" 
d="M133 320q-55 0 -79 29.5t-24 64.5q0 8 6 13.5t13 5.5q9 0 14.5 -5.5t5.5 -13.5q0 -24 15 -40q17 -17 49 -17q41 0 67.5 21t26.5 54q0 24 -8 36q-32 -30 -76 -30q-26 0 -42.5 14t-16.5 34q0 21 19.5 35.5t49.5 14.5q34 0 58 -12q6 14 6 32t-12 33.5t-42 15.5
q-18 0 -34.5 -10t-21.5 -28q-5 -15 -18 -15q-8 0 -14 6.5t-6 14.5q0 20 27 45t67 25q46 0 70 -24.5t24 -62.5q0 -29 -14 -55q25 -24 25 -69q0 -46 -37.5 -79t-97.5 -33zM123 486q0 -11 20 -11q26 0 46 17q-16 7 -36 7q-30 0 -30 -13zM567 -2q-15 -1 -20 8t-5 27q0 4 5 49
q-11 3 -64 22q-5 2 -14.5 5.5t-14.5 5.5q-42 -35 -78 -35q-23 0 -36 15t-13 33q0 19 15 35t39 16q25 0 63 -17q23 21 41 51.5t18 57.5q0 9 -7.5 15.5t-18.5 7.5l-10 -1q-4 -1 -7.5 3.5t-3.5 11.5q0 19 30 19q27 0 42.5 -16t15.5 -36q0 -62 -63 -129q43 -19 72 -26
q7 26 17 75q11 51 11 62q0 12 -1 14t-1 5q0 11 21 11q22 0 22 -27q0 -14 -6 -41q-1 -4 -11 -50t-12 -55q16 -3 31 -3q22 0 33 18q3 4 10 4q17 0 17 -16q0 -15 -16 -29.5t-44 -14.5q-16 0 -37 3q-3 -30 -3 -44q0 -15 2 -18q2 -4 2 -5q0 -11 -21 -11zM367 126q0 -4 5 -7.5
t10 -2.5q15 0 37 18q-17 10 -35 10q-17 -4 -17 -18zM156 6v5q13 52 51.5 132t71 137t95.5 165q88 150 110 185q8 12 20 12q7 0 12 -6.5t5 -14.5q0 -7 -7 -18q-29 -50 -107 -179q-187 -314 -214 -424q-2 -9 -9.5 -13.5t-14.5 -2.5q-13 6 -13 22z" />
    <glyph glyph-name="questiondown" unicode="&#xbf;" horiz-adv-x="425" 
d="M223 244q17 0 33 -28t16 -60q0 -42 -25 -73.5t-76 -68.5q-47 -34 -73 -70.5t-26 -91.5q0 -44 33.5 -73.5t90.5 -29.5q20 0 36 4q-48 29 -48 91q0 40 24 65t56 25t57 -23.5t25 -66.5q0 -46 -31 -76q23 -1 41.5 9.5t25.5 21.5q10 16 20 16q23 0 23 -21q0 -22 -33.5 -44
t-80.5 -22q-20 0 -32 4q-41 -23 -88 -23q-80 0 -125 45q-39 39 -39 99q0 68 33 112.5t94 88.5q37 27 55.5 50t18.5 52q0 33 -20 49q-7 9 -7 17q0 9 6.5 15.5t15.5 6.5zM255 338l-5 -31q-3 -22 -29 -19q-10 1 -16 8.5t-5 16.5l6 33q4 19 23 19q13 0 20.5 -8t5.5 -19z
M228 -156q0 -49 42 -72q32 27 32 72q0 25 -12 37t-28 12q-13 0 -23.5 -13t-10.5 -36z" />
    <glyph glyph-name="Agrave" unicode="&#xc0;" horiz-adv-x="662" 
d="M491 364q68 -39 104.5 -99.5t36.5 -128.5q0 -74 -34 -113t-79 -39q-34 0 -54 21q-35 36 -35 136q0 40 15 200q-69 33 -160 33q-38 0 -84 -7q-25 -86 -30 -178q53 -2 92.5 21t39.5 61q0 22 21 22q9 0 15.5 -6t6.5 -16q0 -55 -51.5 -90t-124.5 -33q0 -89 22 -119
q6 -6 6 -14q0 -9 -6.5 -15.5t-16.5 -6.5q-22 0 -36 43.5t-13 116.5q-53 11 -79.5 40t-26.5 68q0 49 39 85.5t107 54.5q33 106 85 172.5t121 66.5q50 0 78 -30q45 -44 45 -167q0 -42 -4 -79zM474 141q0 -117 47 -117q30 0 48.5 32t18.5 80q0 56 -27 103.5t-73 78.5
q-14 -135 -14 -177zM372 599q-89 0 -155 -188q35 5 68 5q87 0 163 -31q3 30 3 59q0 104 -33 137q-18 18 -46 18zM154 354q-38 -14 -63.5 -38t-25.5 -55q0 -49 62 -67q3 72 27 160zM287 813l12 -3q9 -7 31 -19q56 -31 93 -63q8 -6 8 -17q0 -6 -7 -11.5t-16 -5.5t-14 5
q-29 26 -87 58q-30 17 -36.5 22t-6.5 12q0 9 7 15.5t16 6.5z" />
    <glyph glyph-name="Aacute" unicode="&#xc1;" horiz-adv-x="662" 
d="M491 364q68 -39 104.5 -99.5t36.5 -128.5q0 -74 -34 -113t-79 -39q-34 0 -54 21q-35 36 -35 136q0 40 15 200q-69 33 -160 33q-38 0 -84 -7q-25 -86 -30 -178q53 -2 92.5 21t39.5 61q0 22 21 22q9 0 15.5 -6t6.5 -16q0 -55 -51.5 -90t-124.5 -33q0 -89 22 -119
q6 -6 6 -14q0 -9 -6.5 -15.5t-16.5 -6.5q-22 0 -36 43.5t-13 116.5q-53 11 -79.5 40t-26.5 68q0 49 39 85.5t107 54.5q33 106 85 172.5t121 66.5q50 0 78 -30q45 -44 45 -167q0 -42 -4 -79zM474 141q0 -117 47 -117q30 0 48.5 32t18.5 80q0 56 -27 103.5t-73 78.5
q-14 -135 -14 -177zM372 599q-89 0 -155 -188q35 5 68 5q87 0 163 -31q3 30 3 59q0 104 -33 137q-18 18 -46 18zM154 354q-38 -14 -63.5 -38t-25.5 -55q0 -49 62 -67q3 72 27 160zM474 808q5 5 14 5t16 -5.5t7 -11.5q0 -11 -8 -17q-37 -32 -93 -63q-22 -12 -31 -19
q-1 0 -3 -0.5t-3.5 -1l-3 -1t-2.5 -0.5q-9 0 -16 6t-7 11q0 10 6.5 16t36.5 23q58 32 87 58z" />
    <glyph glyph-name="Acircumflex" unicode="&#xc2;" horiz-adv-x="662" 
d="M491 364q68 -39 104.5 -99.5t36.5 -128.5q0 -74 -34 -113t-79 -39q-34 0 -54 21q-35 36 -35 136q0 40 15 200q-69 33 -160 33q-38 0 -84 -7q-25 -86 -30 -178q53 -2 92.5 21t39.5 61q0 22 21 22q9 0 15.5 -6t6.5 -16q0 -55 -51.5 -90t-124.5 -33q0 -89 22 -119
q6 -6 6 -14q0 -9 -6.5 -15.5t-16.5 -6.5q-22 0 -36 43.5t-13 116.5q-53 11 -79.5 40t-26.5 68q0 49 39 85.5t107 54.5q33 106 85 172.5t121 66.5q50 0 78 -30q45 -44 45 -167q0 -42 -4 -79zM474 141q0 -117 47 -117q30 0 48.5 32t18.5 80q0 56 -27 103.5t-73 78.5
q-14 -135 -14 -177zM372 599q-89 0 -155 -188q35 5 68 5q87 0 163 -31q3 30 3 59q0 104 -33 137q-18 18 -46 18zM154 354q-38 -14 -63.5 -38t-25.5 -55q0 -49 62 -67q3 72 27 160zM384 808q9 0 15 -6q60 -48 78 -60q11 -6 11 -19q0 -6 -7 -11.5t-16 -5.5q-14 0 -83 60
q-40 -21 -80 -48q-3 -3 -12 -3t-16 5.5t-7 11.5q0 11 10 18q19 13 59.5 35.5t47.5 22.5z" />
    <glyph glyph-name="Atilde" unicode="&#xc3;" horiz-adv-x="662" 
d="M491 364q68 -39 104.5 -99.5t36.5 -128.5q0 -74 -34 -113t-79 -39q-34 0 -54 21q-35 36 -35 136q0 40 15 200q-69 33 -160 33q-38 0 -84 -7q-25 -86 -30 -178q53 -2 92.5 21t39.5 61q0 22 21 22q9 0 15.5 -6t6.5 -16q0 -55 -51.5 -90t-124.5 -33q0 -89 22 -119
q6 -6 6 -14q0 -9 -6.5 -15.5t-16.5 -6.5q-22 0 -36 43.5t-13 116.5q-53 11 -79.5 40t-26.5 68q0 49 39 85.5t107 54.5q33 106 85 172.5t121 66.5q50 0 78 -30q45 -44 45 -167q0 -42 -4 -79zM474 141q0 -117 47 -117q30 0 48.5 32t18.5 80q0 56 -27 103.5t-73 78.5
q-14 -135 -14 -177zM372 599q-89 0 -155 -188q35 5 68 5q87 0 163 -31q3 30 3 59q0 104 -33 137q-18 18 -46 18zM154 354q-38 -14 -63.5 -38t-25.5 -55q0 -49 62 -67q3 72 27 160zM315 782q31 0 57 -15q33 -19 47 -19q23 0 33 21q5 12 18 12q7 0 12 -4t5 -18t-19 -31
t-49 -17q-37 0 -67 22q-19 12 -37 12q-28 0 -43 -29q-6 -11 -18 -11q-6 0 -12 6.5t-6 15.5q0 15 23 35t56 20z" />
    <glyph glyph-name="Adieresis" unicode="&#xc4;" horiz-adv-x="662" 
d="M491 364q68 -39 104.5 -99.5t36.5 -128.5q0 -74 -34 -113t-79 -39q-34 0 -54 21q-35 36 -35 136q0 40 15 200q-69 33 -160 33q-38 0 -84 -7q-25 -86 -30 -178q53 -2 92.5 21t39.5 61q0 22 21 22q9 0 15.5 -6t6.5 -16q0 -55 -51.5 -90t-124.5 -33q0 -89 22 -119
q6 -6 6 -14q0 -9 -6.5 -15.5t-16.5 -6.5q-22 0 -36 43.5t-13 116.5q-53 11 -79.5 40t-26.5 68q0 49 39 85.5t107 54.5q33 106 85 172.5t121 66.5q50 0 78 -30q45 -44 45 -167q0 -42 -4 -79zM474 141q0 -117 47 -117q30 0 48.5 32t18.5 80q0 56 -27 103.5t-73 78.5
q-14 -135 -14 -177zM372 599q-89 0 -155 -188q35 5 68 5q87 0 163 -31q3 30 3 59q0 104 -33 137q-18 18 -46 18zM154 354q-38 -14 -63.5 -38t-25.5 -55q0 -49 62 -67q3 72 27 160zM444 769v-7q0 -1 1 -7t1 -7q0 -9 -6.5 -15.5t-15.5 -6.5q-11 0 -16.5 8.5t-6.5 17t-1 26.5
q0 2 -1 8.5t-1 7.5q0 9 6.5 15.5t15.5 6.5q26 0 24 -47zM336 769v-7q0 -1 1 -7t1 -7q0 -9 -6.5 -15.5t-15.5 -6.5q-11 0 -16.5 8.5t-6.5 17t-1 26.5q0 2 -1 8.5t-1 7.5q0 9 6.5 15.5t15.5 6.5q26 0 24 -47z" />
    <glyph glyph-name="Aring" unicode="&#xc5;" horiz-adv-x="662" 
d="M491 364q68 -39 104.5 -99.5t36.5 -128.5q0 -74 -34 -113t-79 -39q-34 0 -54 21q-35 36 -35 136q0 40 15 200q-69 33 -160 33q-38 0 -84 -7q-25 -86 -30 -178q53 -2 92.5 21t39.5 61q0 22 21 22q9 0 15.5 -6t6.5 -16q0 -55 -51.5 -90t-124.5 -33q0 -89 22 -119
q6 -6 6 -14q0 -9 -6.5 -15.5t-16.5 -6.5q-22 0 -36 43.5t-13 116.5q-53 11 -79.5 40t-26.5 68q0 49 39 85.5t107 54.5q33 106 85 172.5t121 66.5q50 0 78 -30q45 -44 45 -167q0 -42 -4 -79zM474 141q0 -117 47 -117q30 0 48.5 32t18.5 80q0 56 -27 103.5t-73 78.5
q-14 -135 -14 -177zM372 599q-89 0 -155 -188q35 5 68 5q87 0 163 -31q3 30 3 59q0 104 -33 137q-18 18 -46 18zM154 354q-38 -14 -63.5 -38t-25.5 -55q0 -49 62 -67q3 72 27 160zM379 732q21 0 33.5 14t12.5 34q0 4 -2 9.5t-8.5 11.5t-16.5 6q-9 0 -16 6t-7 13q0 18 22 18
q30 1 49 -18t19 -46q0 -34 -25.5 -60t-60.5 -26q-39 0 -62.5 21t-23.5 53q0 24 16 45.5t31 21.5q23 0 23 -17q0 -9 -14 -18q-5 -3 -11 -13t-6 -18q0 -19 14.5 -28t32.5 -9z" />
    <glyph glyph-name="AE" unicode="&#xc6;" horiz-adv-x="1077" 
d="M471 355l11 -11q103 36 201 93q2 77 48 141.5t108 64.5q63 0 63 -59q0 -72 -174 -170q2 -17 8 -35q54 24 116 24t90.5 -24t28.5 -56q0 -30 -27.5 -51t-67.5 -21q-101 0 -156 70q-65 -48 -65 -123q0 -71 50 -115q30 43 88 68.5t107 25.5q71 0 105 -28.5t34 -66.5
q0 -42 -36.5 -70.5t-106.5 -28.5q-104 0 -181 42q-24 -35 -26 -91l1 -15q0 -10 -6.5 -16t-16.5 -6q-21 0 -21 38q0 59 33 113q-68 56 -68 150q0 101 87 159q-4 10 -11 36q-77 -45 -180 -81q55 -78 55 -185q0 -143 -78 -143q-22 0 -39 17q-35 34 -35 140q0 54 9 140
q-94 -32 -179 -32q-58 0 -82 5q-6 -43 -8 -103q0 -92 23 -122q5 -7 5 -14q0 -9 -6.5 -15.5t-16.5 -6.5q-21 0 -35 43t-14 115q0 60 9 110q-94 23 -94 92q0 40 40.5 73t107.5 39q74 175 184 175q48 0 78 -30q44 -44 44 -167q0 -47 -4 -88zM200 424q-23 -57 -35 -130
q30 -5 75 -5q90 0 183 33q1 4 1 22q-87 78 -224 80zM154 422q-42 -7 -65 -26t-23 -42q0 -39 56 -52q10 62 32 120zM431 443q-1 76 -17.5 115t-63.5 39q-38 0 -72.5 -36.5t-61.5 -96.5q123 -6 213 -72q2 36 2 51zM896 24q45 0 71.5 15.5t26.5 42.5q0 22 -24 38t-70 16
q-42 0 -86 -18.5t-75 -56.5q60 -37 157 -37zM925 323q0 39 -73 39q-52 0 -97 -21q45 -49 121 -49q21 0 35 9.5t14 21.5zM839 602q-36 0 -69 -41.5t-40 -99.5q55 32 91 66.5t36 54.5t-18 20zM486 27q31 0 31 100q0 99 -50 170q-1 0 -2 -1q-11 -121 -11 -155q0 -38 5 -65
t12 -38t15 -11z" />
    <glyph glyph-name="Ccedilla" unicode="&#xc7;" horiz-adv-x="601" 
d="M264 -17l6 7q-108 16 -169.5 97.5t-61.5 199.5q0 133 79 231.5t203 111.5q19 46 58.5 72t86.5 26q57 0 57 -27q0 -20 -22 -20q-2 0 -17 2t-18 2q-64 0 -94 -54q92 -5 146 -57t54 -120q0 -44 -27.5 -74t-76.5 -30q-54 0 -100 46q-61 59 -61 164q0 10 2 26
q-102 -19 -164 -104.5t-62 -194.5q0 -112 63 -185t173 -73q135 0 197 90q7 10 19 10q8 0 14.5 -6.5t6.5 -16.5q0 -6 -8 -19t-27.5 -30.5t-45.5 -33t-67.5 -26.5t-88.5 -11h-6l-34 -35q15 -6 23.5 -11t19.5 -21.5t11 -37.5q0 -32 -27 -52.5t-62 -20.5q-24 0 -43 9t-19 26
q0 6 5.5 11.5t10.5 5.5q7 0 14 -4q16 -10 31 -10q50 0 50 35q0 9 -5.5 16.5t-11.5 11t-17 8.5q-22 12 -22 29q0 6 4 12t12 14zM468 393q58 0 58 61q0 54 -46.5 94t-124.5 42q-3 -14 -3 -30q0 -75 37.5 -121t78.5 -46z" />
    <glyph glyph-name="Egrave" unicode="&#xc8;" horiz-adv-x="523" 
d="M302 177q76 0 129.5 -31.5t53.5 -82.5q0 -36 -32 -63t-107 -27q-72 0 -136 23.5t-103 70.5q-32 -32 -35 -80q-2 -21 -22 -21q-9 0 -15.5 6.5t-6.5 15.5q0 67 54 118q-22 49 -22 96q0 109 82 175q-10 28 -10 57q0 43 19.5 84t55.5 69q-19 33 -19 68q0 10 6.5 16.5
t16.5 6.5q8 0 14.5 -6.5t6.5 -16.5q0 -23 12 -47q21 10 45 15q24 6 52 6q57 0 90.5 -23t33.5 -58q0 -29 -22 -47.5t-56 -18.5q-38 0 -81 19t-74 52q-55 -45 -55 -119q0 -18 4 -31q51 27 113 27q67 0 110.5 -26.5t43.5 -68.5q0 -10 -3.5 -21t-13 -26.5t-34.5 -25t-61 -9.5
q-58 0 -103.5 22.5t-71.5 61.5q-56 -52 -56 -135q0 -33 14 -70q76 45 183 45zM440 63q0 30 -42 51.5t-96 21.5q-97 0 -162 -42q32 -38 87.5 -59.5t118.5 -21.5q43 0 68.5 14t25.5 36zM404 334q0 22 -32 38t-79 16q-67 0 -98 -26q21 -30 57.5 -49t82.5 -19q69 0 69 40z
M341 588q-42 0 -72 -14q24 -22 57.5 -37t60.5 -15q13 0 23.5 7t10.5 19q0 18 -22.5 29t-57.5 11zM222 813l12 -3q9 -7 31 -19q56 -31 93 -63q8 -6 8 -17q0 -6 -7 -11.5t-16 -5.5t-14 5q-29 26 -87 58q-30 17 -36.5 22t-6.5 12q0 9 6.5 15.5t16.5 6.5z" />
    <glyph glyph-name="Eacute" unicode="&#xc9;" horiz-adv-x="523" 
d="M302 177q76 0 129.5 -31.5t53.5 -82.5q0 -36 -32 -63t-107 -27q-72 0 -136 23.5t-103 70.5q-32 -32 -35 -80q-2 -21 -22 -21q-9 0 -15.5 6.5t-6.5 15.5q0 67 54 118q-22 49 -22 96q0 109 82 175q-10 28 -10 57q0 43 19.5 84t55.5 69q-19 33 -19 68q0 10 6.5 16.5
t16.5 6.5q8 0 14.5 -6.5t6.5 -16.5q0 -23 12 -47q21 10 45 15q24 6 52 6q57 0 90.5 -23t33.5 -58q0 -29 -22 -47.5t-56 -18.5q-38 0 -81 19t-74 52q-55 -45 -55 -119q0 -18 4 -31q51 27 113 27q67 0 110.5 -26.5t43.5 -68.5q0 -10 -3.5 -21t-13 -26.5t-34.5 -25t-61 -9.5
q-58 0 -103.5 22.5t-71.5 61.5q-56 -52 -56 -135q0 -33 14 -70q76 45 183 45zM440 63q0 30 -42 51.5t-96 21.5q-97 0 -162 -42q32 -38 87.5 -59.5t118.5 -21.5q43 0 68.5 14t25.5 36zM404 334q0 22 -32 38t-79 16q-67 0 -98 -26q21 -30 57.5 -49t82.5 -19q69 0 69 40z
M341 588q-42 0 -72 -14q24 -22 57.5 -37t60.5 -15q13 0 23.5 7t10.5 19q0 18 -22.5 29t-57.5 11zM444 808q5 5 14 5t16 -5.5t7 -11.5q0 -11 -8 -17q-37 -32 -93 -63q-22 -12 -31 -19q-1 0 -3 -0.5t-3.5 -1l-3 -1t-2.5 -0.5q-9 0 -16 6t-7 11q0 10 6.5 16t36.5 23
q58 32 87 58z" />
    <glyph glyph-name="Ecircumflex" unicode="&#xca;" horiz-adv-x="523" 
d="M302 177q76 0 129.5 -31.5t53.5 -82.5q0 -36 -32 -63t-107 -27q-72 0 -136 23.5t-103 70.5q-32 -32 -35 -80q-2 -21 -22 -21q-9 0 -15.5 6.5t-6.5 15.5q0 67 54 118q-22 49 -22 96q0 109 82 175q-10 28 -10 57q0 43 19.5 84t55.5 69q-19 33 -19 68q0 10 6.5 16.5
t16.5 6.5q8 0 14.5 -6.5t6.5 -16.5q0 -23 12 -47q21 10 45 15q24 6 52 6q57 0 90.5 -23t33.5 -58q0 -29 -22 -47.5t-56 -18.5q-38 0 -81 19t-74 52q-55 -45 -55 -119q0 -18 4 -31q51 27 113 27q67 0 110.5 -26.5t43.5 -68.5q0 -10 -3.5 -21t-13 -26.5t-34.5 -25t-61 -9.5
q-58 0 -103.5 22.5t-71.5 61.5q-56 -52 -56 -135q0 -33 14 -70q76 45 183 45zM440 63q0 30 -42 51.5t-96 21.5q-97 0 -162 -42q32 -38 87.5 -59.5t118.5 -21.5q43 0 68.5 14t25.5 36zM404 334q0 22 -32 38t-79 16q-67 0 -98 -26q21 -30 57.5 -49t82.5 -19q69 0 69 40z
M341 588q-42 0 -72 -14q24 -22 57.5 -37t60.5 -15q13 0 23.5 7t10.5 19q0 18 -22.5 29t-57.5 11zM335 808q9 0 15 -6q60 -48 78 -60q11 -6 11 -19q0 -6 -7 -11.5t-16 -5.5q-14 0 -83 60q-40 -21 -80 -48q-3 -3 -12 -3t-16 5.5t-7 11.5q0 11 10 18q19 13 59.5 35.5t47.5 22.5
z" />
    <glyph glyph-name="Edieresis" unicode="&#xcb;" horiz-adv-x="523" 
d="M302 177q76 0 129.5 -31.5t53.5 -82.5q0 -36 -32 -63t-107 -27q-72 0 -136 23.5t-103 70.5q-32 -32 -35 -80q-2 -21 -22 -21q-9 0 -15.5 6.5t-6.5 15.5q0 67 54 118q-22 49 -22 96q0 109 82 175q-10 28 -10 57q0 43 19.5 84t55.5 69q-19 33 -19 68q0 10 6.5 16.5
t16.5 6.5q8 0 14.5 -6.5t6.5 -16.5q0 -23 12 -47q21 10 45 15q24 6 52 6q57 0 90.5 -23t33.5 -58q0 -29 -22 -47.5t-56 -18.5q-38 0 -81 19t-74 52q-55 -45 -55 -119q0 -18 4 -31q51 27 113 27q67 0 110.5 -26.5t43.5 -68.5q0 -10 -3.5 -21t-13 -26.5t-34.5 -25t-61 -9.5
q-58 0 -103.5 22.5t-71.5 61.5q-56 -52 -56 -135q0 -33 14 -70q76 45 183 45zM440 63q0 30 -42 51.5t-96 21.5q-97 0 -162 -42q32 -38 87.5 -59.5t118.5 -21.5q43 0 68.5 14t25.5 36zM404 334q0 22 -32 38t-79 16q-67 0 -98 -26q21 -30 57.5 -49t82.5 -19q69 0 69 40z
M341 588q-42 0 -72 -14q24 -22 57.5 -37t60.5 -15q13 0 23.5 7t10.5 19q0 18 -22.5 29t-57.5 11zM395 769v-7q0 -1 1 -7t1 -7q0 -9 -6.5 -15.5t-15.5 -6.5q-11 0 -16.5 8.5t-6.5 17t-1 26.5q0 2 -1 8.5t-1 7.5q0 9 6.5 15.5t15.5 6.5q26 0 24 -47zM287 769v-7q0 -1 1 -7
t1 -7q0 -9 -6.5 -15.5t-15.5 -6.5q-11 0 -16.5 8.5t-6.5 17t-1 26.5q0 2 -1 8.5t-1 7.5q0 9 6.5 15.5t15.5 6.5q26 0 24 -47z" />
    <glyph glyph-name="Igrave" unicode="&#xcc;" horiz-adv-x="441" 
d="M184 478q-67 0 -99.5 24t-32.5 60q0 31 28.5 52t70.5 21q44 0 79 -24.5t48 -76.5q86 22 93 88q1 8 7.5 14t14.5 6q10 0 16.5 -7.5t5.5 -17.5q-3 -38 -32 -73t-99 -52q5 -69 -37 -187q-3 -8 -4 -12q-37 -102 -40 -147q34 6 53 6q76 0 115.5 -27.5t39.5 -67.5
q0 -36 -31 -59t-87 -23q-55 0 -92 32t-43 85q-42 -12 -75.5 -43t-40.5 -69q-3 -18 -21 -18q-21 0 -21 22q0 15 11 40.5t49.5 60.5t96.5 50q0 50 43 174q43 114 40 174q-28 -5 -56 -5zM203 104q3 -39 27.5 -63.5t63.5 -24.5q31 0 51.5 10.5t20.5 31.5q0 24 -30.5 38.5
t-79.5 14.5q-22 0 -53 -7zM234 523q-17 71 -83 71q-24 0 -39 -8.5t-15 -23.5q0 -20 24.5 -31.5t62.5 -11.5q25 0 50 4zM146 813l12 -3q9 -7 31 -19q56 -31 93 -63q8 -6 8 -17q0 -6 -7 -11.5t-16 -5.5t-14 5q-29 26 -87 58q-30 17 -36.5 22t-6.5 12q0 9 6.5 15.5t16.5 6.5z
" />
    <glyph glyph-name="Iacute" unicode="&#xcd;" horiz-adv-x="441" 
d="M184 478q-67 0 -99.5 24t-32.5 60q0 31 28.5 52t70.5 21q44 0 79 -24.5t48 -76.5q86 22 93 88q1 8 7.5 14t14.5 6q10 0 16.5 -7.5t5.5 -17.5q-3 -38 -32 -73t-99 -52q5 -69 -37 -187q-3 -8 -4 -12q-37 -102 -40 -147q34 6 53 6q76 0 115.5 -27.5t39.5 -67.5
q0 -36 -31 -59t-87 -23q-55 0 -92 32t-43 85q-42 -12 -75.5 -43t-40.5 -69q-3 -18 -21 -18q-21 0 -21 22q0 15 11 40.5t49.5 60.5t96.5 50q0 50 43 174q43 114 40 174q-28 -5 -56 -5zM203 104q3 -39 27.5 -63.5t63.5 -24.5q31 0 51.5 10.5t20.5 31.5q0 24 -30.5 38.5
t-79.5 14.5q-22 0 -53 -7zM234 523q-17 71 -83 71q-24 0 -39 -8.5t-15 -23.5q0 -20 24.5 -31.5t62.5 -11.5q25 0 50 4zM363 808q5 5 14 5t16 -5.5t7 -11.5q0 -11 -8 -17q-37 -32 -93 -63q-22 -12 -31 -19q-1 0 -3 -0.5t-3.5 -1l-3 -1t-2.5 -0.5q-9 0 -16 6t-7 11
q0 10 6.5 16t36.5 23q58 32 87 58z" />
    <glyph glyph-name="Icircumflex" unicode="&#xce;" horiz-adv-x="441" 
d="M184 478q-67 0 -99.5 24t-32.5 60q0 31 28.5 52t70.5 21q44 0 79 -24.5t48 -76.5q86 22 93 88q1 8 7.5 14t14.5 6q10 0 16.5 -7.5t5.5 -17.5q-3 -38 -32 -73t-99 -52q5 -69 -37 -187q-3 -8 -4 -12q-37 -102 -40 -147q34 6 53 6q76 0 115.5 -27.5t39.5 -67.5
q0 -36 -31 -59t-87 -23q-55 0 -92 32t-43 85q-42 -12 -75.5 -43t-40.5 -69q-3 -18 -21 -18q-21 0 -21 22q0 15 11 40.5t49.5 60.5t96.5 50q0 50 43 174q43 114 40 174q-28 -5 -56 -5zM203 104q3 -39 27.5 -63.5t63.5 -24.5q31 0 51.5 10.5t20.5 31.5q0 24 -30.5 38.5
t-79.5 14.5q-22 0 -53 -7zM234 523q-17 71 -83 71q-24 0 -39 -8.5t-15 -23.5q0 -20 24.5 -31.5t62.5 -11.5q25 0 50 4zM254 808q9 0 15 -6q60 -48 78 -60q11 -6 11 -19q0 -6 -7 -11.5t-16 -5.5q-14 0 -83 60q-40 -21 -80 -48q-3 -3 -12 -3t-16 5.5t-7 11.5q0 11 10 18
q19 13 59.5 35.5t47.5 22.5z" />
    <glyph glyph-name="Idieresis" unicode="&#xcf;" horiz-adv-x="441" 
d="M184 478q-67 0 -99.5 24t-32.5 60q0 31 28.5 52t70.5 21q44 0 79 -24.5t48 -76.5q86 22 93 88q1 8 7.5 14t14.5 6q10 0 16.5 -7.5t5.5 -17.5q-3 -38 -32 -73t-99 -52q5 -69 -37 -187q-3 -8 -4 -12q-37 -102 -40 -147q34 6 53 6q76 0 115.5 -27.5t39.5 -67.5
q0 -36 -31 -59t-87 -23q-55 0 -92 32t-43 85q-42 -12 -75.5 -43t-40.5 -69q-3 -18 -21 -18q-21 0 -21 22q0 15 11 40.5t49.5 60.5t96.5 50q0 50 43 174q43 114 40 174q-28 -5 -56 -5zM203 104q3 -39 27.5 -63.5t63.5 -24.5q31 0 51.5 10.5t20.5 31.5q0 24 -30.5 38.5
t-79.5 14.5q-22 0 -53 -7zM234 523q-17 71 -83 71q-24 0 -39 -8.5t-15 -23.5q0 -20 24.5 -31.5t62.5 -11.5q25 0 50 4zM329 769v-7q0 -1 1 -7t1 -7q0 -9 -6.5 -15.5t-15.5 -6.5q-11 0 -16.5 8.5t-6.5 17t-1 26.5q0 2 -1 8.5t-1 7.5q0 9 6.5 15.5t15.5 6.5q26 0 24 -47z
M221 769v-7q0 -1 1 -7t1 -7q0 -9 -6.5 -15.5t-15.5 -6.5q-11 0 -16.5 8.5t-6.5 17t-1 26.5q0 2 -1 8.5t-1 7.5q0 9 6.5 15.5t15.5 6.5q26 0 24 -47z" />
    <glyph glyph-name="Eth" unicode="&#xd0;" horiz-adv-x="602" 
d="M273 -14q-43 0 -71 20t-40.5 58t-16 74.5t-3.5 87.5q-56 -9 -76 -9q-25 0 -25 20q0 21 25 21q23 0 78 10q2 45 8 79q-49 2 -85.5 35t-36.5 82q0 73 75.5 122t175.5 49q82 0 143.5 -22.5t95 -62t49.5 -85.5t16 -99q0 -64 -23 -130.5t-62 -122.5t-99 -91.5t-128 -35.5z
M274 27q76 0 139 56t95 133t32 150q0 30 -5 57.5t-22 60t-44.5 56t-76.5 39t-113 15.5q-83 0 -143.5 -39t-60.5 -91q0 -37 26 -55t57 -21q9 67 26 128q3 16 21 16q9 0 15 -6t6 -13t-1 -10q-10 -44 -23 -119q49 2 79 25.5t32 51.5q1 8 7.5 14t15.5 6t15.5 -6.5t6.5 -15.5
q0 -38 -41 -76.5t-121 -39.5q-7 -42 -7 -65q145 26 164 26q9 0 15 -6t6 -16q0 -19 -21 -19q-32 -1 -167 -28q-5 -208 88 -208z" />
    <glyph glyph-name="Ntilde" unicode="&#xd1;" horiz-adv-x="710" 
d="M633 397q0 82 -26 128.5t-76 46.5q-89 0 -196 -133q6 -51 6 -110q0 -145 -39.5 -246.5t-106.5 -101.5q-33 0 -54 23.5t-21 62.5q0 76 48 188t120 195q-6 63 -25 116q-36 -17 -85 -17q-77 0 -127.5 34t-50.5 86q0 40 31 66.5t78 26.5q54 0 100.5 -34.5t77.5 -98.5
q52 42 52 105q0 36 -20 67q-3 3 -3 11q0 10 6 16.5t16 6.5q19 0 32.5 -35t13.5 -66q0 -88 -81 -146q14 -38 24 -95q110 120 205 120q63 0 104.5 -48.5t41.5 -167.5q0 -92 -33.5 -197.5t-92.5 -201.5q-7 -11 -19 -11q-9 0 -15.5 6.5t-6.5 16.5q0 6 3 12q55 89 87 190.5
t32 184.5zM297 329q0 27 -2 63q-56 -72 -92.5 -167t-37.5 -158q0 -18 8.5 -31t24.5 -13q38 0 68.5 88t30.5 218zM46 669q0 -33 38 -56t94 -23q35 0 73 14q-56 117 -142 117q-63 0 -63 -52zM489 782q31 0 57 -15q33 -19 47 -19q23 0 33 21q5 12 18 12q7 0 12 -4t5 -18
t-19 -31t-49 -17q-37 0 -67 22q-19 12 -37 12q-28 0 -43 -29q-6 -11 -18 -11q-6 0 -12 6.5t-6 15.5q0 15 23 35t56 20z" />
    <glyph glyph-name="Ograve" unicode="&#xd2;" horiz-adv-x="660" 
d="M621 640v5q0 17 17 22q12 3 19.5 -4t10 -21.5t3.5 -24t1 -21.5q0 -85 -66 -141q21 -50 21 -126q0 -143 -88.5 -238.5t-217.5 -95.5q-124 0 -202 80.5t-78 217.5q0 63 21.5 128.5t57.5 99.5q8 6 16 6q9 0 15.5 -6t6.5 -16q0 -9 -6 -15q-29 -27 -47.5 -82.5t-18.5 -114.5
q0 -119 66 -188t171 -69q109 0 184 86t75 207q0 55 -14 101q-49 -32 -136 -32q-94 0 -162.5 40t-68.5 103q0 43 38.5 70.5t100.5 27.5q73 0 138 -35.5t109 -108.5q41 42 41 100q0 24 -7 45zM552 469q-37 63 -93.5 96t-118.5 33q-47 0 -71 -17t-24 -43q0 -39 57 -69t134 -30
q72 0 116 30zM276 813l12 -3q9 -7 31 -19q56 -31 93 -63q8 -6 8 -17q0 -6 -7 -11.5t-16 -5.5t-14 5q-29 26 -87 58q-30 17 -36.5 22t-6.5 12q0 9 6.5 15.5t16.5 6.5z" />
    <glyph glyph-name="Oacute" unicode="&#xd3;" horiz-adv-x="660" 
d="M621 640v5q0 17 17 22q12 3 19.5 -4t10 -21.5t3.5 -24t1 -21.5q0 -85 -66 -141q21 -50 21 -126q0 -143 -88.5 -238.5t-217.5 -95.5q-124 0 -202 80.5t-78 217.5q0 63 21.5 128.5t57.5 99.5q8 6 16 6q9 0 15.5 -6t6.5 -16q0 -9 -6 -15q-29 -27 -47.5 -82.5t-18.5 -114.5
q0 -119 66 -188t171 -69q109 0 184 86t75 207q0 55 -14 101q-49 -32 -136 -32q-94 0 -162.5 40t-68.5 103q0 43 38.5 70.5t100.5 27.5q73 0 138 -35.5t109 -108.5q41 42 41 100q0 24 -7 45zM552 469q-37 63 -93.5 96t-118.5 33q-47 0 -71 -17t-24 -43q0 -39 57 -69t134 -30
q72 0 116 30zM483 808q5 5 14 5t16 -5.5t7 -11.5q0 -11 -8 -17q-37 -32 -93 -63q-22 -12 -31 -19q-1 0 -3 -0.5t-3.5 -1l-3 -1t-2.5 -0.5q-9 0 -16 6t-7 11q0 10 6.5 16t36.5 23q58 32 87 58z" />
    <glyph glyph-name="Ocircumflex" unicode="&#xd4;" horiz-adv-x="660" 
d="M621 640v5q0 17 17 22q12 3 19.5 -4t10 -21.5t3.5 -24t1 -21.5q0 -85 -66 -141q21 -50 21 -126q0 -143 -88.5 -238.5t-217.5 -95.5q-124 0 -202 80.5t-78 217.5q0 63 21.5 128.5t57.5 99.5q8 6 16 6q9 0 15.5 -6t6.5 -16q0 -9 -6 -15q-29 -27 -47.5 -82.5t-18.5 -114.5
q0 -119 66 -188t171 -69q109 0 184 86t75 207q0 55 -14 101q-49 -32 -136 -32q-94 0 -162.5 40t-68.5 103q0 43 38.5 70.5t100.5 27.5q73 0 138 -35.5t109 -108.5q41 42 41 100q0 24 -7 45zM552 469q-37 63 -93.5 96t-118.5 33q-47 0 -71 -17t-24 -43q0 -39 57 -69t134 -30
q72 0 116 30zM383 808q9 0 15 -6q60 -48 78 -60q11 -6 11 -19q0 -6 -7 -11.5t-16 -5.5q-14 0 -83 60q-40 -21 -80 -48q-3 -3 -12 -3t-16 5.5t-7 11.5q0 11 10 18q19 13 59.5 35.5t47.5 22.5z" />
    <glyph glyph-name="Otilde" unicode="&#xd5;" horiz-adv-x="660" 
d="M621 640v5q0 17 17 22q12 3 19.5 -4t10 -21.5t3.5 -24t1 -21.5q0 -85 -66 -141q21 -50 21 -126q0 -143 -88.5 -238.5t-217.5 -95.5q-124 0 -202 80.5t-78 217.5q0 63 21.5 128.5t57.5 99.5q8 6 16 6q9 0 15.5 -6t6.5 -16q0 -9 -6 -15q-29 -27 -47.5 -82.5t-18.5 -114.5
q0 -119 66 -188t171 -69q109 0 184 86t75 207q0 55 -14 101q-49 -32 -136 -32q-94 0 -162.5 40t-68.5 103q0 43 38.5 70.5t100.5 27.5q73 0 138 -35.5t109 -108.5q41 42 41 100q0 24 -7 45zM552 469q-37 63 -93.5 96t-118.5 33q-47 0 -71 -17t-24 -43q0 -39 57 -69t134 -30
q72 0 116 30zM329 782q31 0 57 -15q33 -19 47 -19q23 0 33 21q5 12 18 12q7 0 12 -4t5 -18t-19 -31t-49 -17q-37 0 -67 22q-19 12 -37 12q-28 0 -43 -29q-6 -11 -18 -11q-6 0 -12 6.5t-6 15.5q0 15 23 35t56 20z" />
    <glyph glyph-name="Odieresis" unicode="&#xd6;" horiz-adv-x="660" 
d="M621 640v5q0 17 17 22q12 3 19.5 -4t10 -21.5t3.5 -24t1 -21.5q0 -85 -66 -141q21 -50 21 -126q0 -143 -88.5 -238.5t-217.5 -95.5q-124 0 -202 80.5t-78 217.5q0 63 21.5 128.5t57.5 99.5q8 6 16 6q9 0 15.5 -6t6.5 -16q0 -9 -6 -15q-29 -27 -47.5 -82.5t-18.5 -114.5
q0 -119 66 -188t171 -69q109 0 184 86t75 207q0 55 -14 101q-49 -32 -136 -32q-94 0 -162.5 40t-68.5 103q0 43 38.5 70.5t100.5 27.5q73 0 138 -35.5t109 -108.5q41 42 41 100q0 24 -7 45zM552 469q-37 63 -93.5 96t-118.5 33q-47 0 -71 -17t-24 -43q0 -39 57 -69t134 -30
q72 0 116 30zM443 769v-7q0 -1 1 -7t1 -7q0 -9 -6.5 -15.5t-15.5 -6.5q-11 0 -16.5 8.5t-6.5 17t-1 26.5q0 2 -1 8.5t-1 7.5q0 9 6.5 15.5t15.5 6.5q26 0 24 -47zM335 769v-7q0 -1 1 -7t1 -7q0 -9 -6.5 -15.5t-15.5 -6.5q-11 0 -16.5 8.5t-6.5 17t-1 26.5q0 2 -1 8.5t-1 7.5
q0 9 6.5 15.5t15.5 6.5q26 0 24 -47z" />
    <glyph glyph-name="multiply" unicode="&#xd7;" 
d="M186 202l-137 138l29 29l137 -138l139 138l29 -29l-138 -138l138 -137l-29 -30l-139 138l-137 -138l-29 30z" />
    <glyph glyph-name="Oslash" unicode="&#xd8;" horiz-adv-x="660" 
d="M501 545q52 0 89 -57.5t37 -153.5q0 -143 -88 -241t-212 -98q-100 0 -167 46q-39 -51 -69 -80q-7 -6 -15 -6q-21 0 -21 19q0 10 6 16q33 33 69 79q-40 36 -64.5 96.5t-24.5 133.5q0 138 89.5 234.5t212.5 96.5q24 0 56 -5q18 -3 18 -21q0 -20 -21 -20q-5 0 -21.5 2.5
t-30.5 2.5q-105 0 -181 -84t-77 -205q-1 -122 70 -197q103 148 191 301q46 80 75.5 110.5t78.5 30.5zM327 36q106 0 180.5 88t74.5 210q0 79 -26 124.5t-54 45.5q-30 0 -51.5 -23.5t-65.5 -98.5q-85 -146 -198 -305q52 -41 140 -41z" />
    <glyph glyph-name="Ugrave" unicode="&#xd9;" horiz-adv-x="725" 
d="M358 27q78 0 156 98q-15 75 -15 149q0 85 14 163t45.5 133t74.5 55q28 0 50 -24.5t22 -86.5q0 -82 -40.5 -196.5t-104.5 -201.5q16 -59 37.5 -85.5t55.5 -26.5q1 0 10 0.5t11 0.5q22 0 22 -17q0 -24 -39 -24q-96 0 -130 112q-82 -90 -169 -90q-77 0 -117 59t-40 165
q0 11 2.5 111t1.5 121q0 17 -1 25q-15 -3 -31 -3q-55 0 -94 26.5t-39 71.5q0 33 24.5 56t60.5 23q39 0 71.5 -31t44.5 -87q33 16 52 49t19 72q0 46 -13 62q-5 7 -5 14q0 22 22 22q20 0 30.5 -32.5t10.5 -65.5q0 -54 -30 -98.5t-79 -65.5q2 -24 2 -38q1 -18 -2 -117.5
t-3 -114.5q0 -94 30.5 -138.5t82.5 -44.5zM84 562q0 -25 27 -40.5t62 -15.5q6 0 27 3q-10 40 -30.5 64.5t-45.5 24.5q-16 0 -28 -10t-12 -26zM660 514q0 69 -27 69q-14 0 -30 -23t-29.5 -63t-22 -102t-8.5 -131q0 -63 5 -97q53 88 82.5 183.5t29.5 163.5zM398 813l12 -3
q9 -7 31 -19q56 -31 93 -63q8 -6 8 -17q0 -6 -7 -11.5t-16 -5.5t-14 5q-29 26 -87 58q-30 17 -36.5 22t-6.5 12q0 9 6.5 15.5t16.5 6.5z" />
    <glyph glyph-name="Uacute" unicode="&#xda;" horiz-adv-x="725" 
d="M358 27q78 0 156 98q-15 75 -15 149q0 85 14 163t45.5 133t74.5 55q28 0 50 -24.5t22 -86.5q0 -82 -40.5 -196.5t-104.5 -201.5q16 -59 37.5 -85.5t55.5 -26.5q1 0 10 0.5t11 0.5q22 0 22 -17q0 -24 -39 -24q-96 0 -130 112q-82 -90 -169 -90q-77 0 -117 59t-40 165
q0 11 2.5 111t1.5 121q0 17 -1 25q-15 -3 -31 -3q-55 0 -94 26.5t-39 71.5q0 33 24.5 56t60.5 23q39 0 71.5 -31t44.5 -87q33 16 52 49t19 72q0 46 -13 62q-5 7 -5 14q0 22 22 22q20 0 30.5 -32.5t10.5 -65.5q0 -54 -30 -98.5t-79 -65.5q2 -24 2 -38q1 -18 -2 -117.5
t-3 -114.5q0 -94 30.5 -138.5t82.5 -44.5zM84 562q0 -25 27 -40.5t62 -15.5q6 0 27 3q-10 40 -30.5 64.5t-45.5 24.5q-16 0 -28 -10t-12 -26zM660 514q0 69 -27 69q-14 0 -30 -23t-29.5 -63t-22 -102t-8.5 -131q0 -63 5 -97q53 88 82.5 183.5t29.5 163.5zM575 808q5 5 14 5
t16 -5.5t7 -11.5q0 -11 -8 -17q-37 -32 -93 -63q-22 -12 -31 -19q-1 0 -3 -0.5t-3.5 -1l-3 -1t-2.5 -0.5q-9 0 -16 6t-7 11q0 10 6.5 16t36.5 23q58 32 87 58z" />
    <glyph glyph-name="Ucircumflex" unicode="&#xdb;" horiz-adv-x="725" 
d="M358 27q78 0 156 98q-15 75 -15 149q0 85 14 163t45.5 133t74.5 55q28 0 50 -24.5t22 -86.5q0 -82 -40.5 -196.5t-104.5 -201.5q16 -59 37.5 -85.5t55.5 -26.5q1 0 10 0.5t11 0.5q22 0 22 -17q0 -24 -39 -24q-96 0 -130 112q-82 -90 -169 -90q-77 0 -117 59t-40 165
q0 11 2.5 111t1.5 121q0 17 -1 25q-15 -3 -31 -3q-55 0 -94 26.5t-39 71.5q0 33 24.5 56t60.5 23q39 0 71.5 -31t44.5 -87q33 16 52 49t19 72q0 46 -13 62q-5 7 -5 14q0 22 22 22q20 0 30.5 -32.5t10.5 -65.5q0 -54 -30 -98.5t-79 -65.5q2 -24 2 -38q1 -18 -2 -117.5
t-3 -114.5q0 -94 30.5 -138.5t82.5 -44.5zM84 562q0 -25 27 -40.5t62 -15.5q6 0 27 3q-10 40 -30.5 64.5t-45.5 24.5q-16 0 -28 -10t-12 -26zM660 514q0 69 -27 69q-14 0 -30 -23t-29.5 -63t-22 -102t-8.5 -131q0 -63 5 -97q53 88 82.5 183.5t29.5 163.5zM496 808q9 0 15 -6
q60 -48 78 -60q11 -6 11 -19q0 -6 -7 -11.5t-16 -5.5q-14 0 -83 60q-40 -21 -80 -48q-3 -3 -12 -3t-16 5.5t-7 11.5q0 11 10 18q19 13 59.5 35.5t47.5 22.5z" />
    <glyph glyph-name="Udieresis" unicode="&#xdc;" horiz-adv-x="725" 
d="M358 27q78 0 156 98q-15 75 -15 149q0 85 14 163t45.5 133t74.5 55q28 0 50 -24.5t22 -86.5q0 -82 -40.5 -196.5t-104.5 -201.5q16 -59 37.5 -85.5t55.5 -26.5q1 0 10 0.5t11 0.5q22 0 22 -17q0 -24 -39 -24q-96 0 -130 112q-82 -90 -169 -90q-77 0 -117 59t-40 165
q0 11 2.5 111t1.5 121q0 17 -1 25q-15 -3 -31 -3q-55 0 -94 26.5t-39 71.5q0 33 24.5 56t60.5 23q39 0 71.5 -31t44.5 -87q33 16 52 49t19 72q0 46 -13 62q-5 7 -5 14q0 22 22 22q20 0 30.5 -32.5t10.5 -65.5q0 -54 -30 -98.5t-79 -65.5q2 -24 2 -38q1 -18 -2 -117.5
t-3 -114.5q0 -94 30.5 -138.5t82.5 -44.5zM84 562q0 -25 27 -40.5t62 -15.5q6 0 27 3q-10 40 -30.5 64.5t-45.5 24.5q-16 0 -28 -10t-12 -26zM660 514q0 69 -27 69q-14 0 -30 -23t-29.5 -63t-22 -102t-8.5 -131q0 -63 5 -97q53 88 82.5 183.5t29.5 163.5zM556 769v-7
q0 -1 1 -7t1 -7q0 -9 -6.5 -15.5t-15.5 -6.5q-11 0 -16.5 8.5t-6.5 17t-1 26.5q0 2 -1 8.5t-1 7.5q0 9 6.5 15.5t15.5 6.5q26 0 24 -47zM448 769v-7q0 -1 1 -7t1 -7q0 -9 -6.5 -15.5t-15.5 -6.5q-11 0 -16.5 8.5t-6.5 17t-1 26.5q0 2 -1 8.5t-1 7.5q0 9 6.5 15.5t15.5 6.5
q26 0 24 -47z" />
    <glyph glyph-name="Yacute" unicode="&#xdd;" horiz-adv-x="687" 
d="M378 112q62 0 139 92q-4 108 -4 118q0 55 1.5 92t8 77.5t18 64.5t32.5 39.5t50 15.5q23 0 43 -17q26 -22 26 -82q0 -66 -37.5 -155.5t-93.5 -161.5q2 -38 2 -44q0 -89 -22.5 -160t-58.5 -116t-84.5 -75t-97.5 -42.5t-101 -12.5q-81 0 -140 44t-59 126q0 50 31.5 86
t75.5 36q35 0 60 -23.5t25 -60.5q0 -58 -29 -58q-9 0 -16 6.5t-7 15.5q0 4 2 8q5 17 5 28q0 20 -12 31t-28 11q-25 0 -44 -23t-19 -57q0 -46 27.5 -76.5t60.5 -41.5t67 -11q63 0 118 20.5t100.5 62.5t73 113.5t28.5 165.5q-78 -78 -148 -78q-30 0 -52 11t-35.5 32.5
t-21.5 43.5t-11.5 55t-4.5 54.5t-1 54.5v63q0 23 -2 59q-31 -11 -65 -11q-61 0 -101 34.5t-40 88.5q0 42 29 71t74 29q44 0 82.5 -33t54.5 -109q49 47 49 129q0 2 -1.5 17t-1.5 18q0 9 5.5 15.5t14.5 6.5t15 -4t8 -14t2.5 -17.5t0.5 -21.5q0 -51 -21 -98.5t-63 -78.5
q4 -33 4 -167q0 -103 21.5 -144.5t67.5 -41.5zM557 322q0 -5 1 -27t1 -35q39 62 64 133t25 120q0 57 -30 57q-34 0 -47.5 -61t-13.5 -187zM237 485q-22 129 -97 129q-25 0 -41.5 -17.5t-16.5 -41.5q0 -37 27.5 -59.5t69.5 -22.5q33 0 58 12zM571 808q5 5 14 5t16 -5.5
t7 -11.5q0 -11 -8 -17q-37 -32 -93 -63q-22 -12 -31 -19q-1 0 -3 -0.5t-3.5 -1l-3 -1t-2.5 -0.5q-9 0 -16 6t-7 11q0 10 6.5 16t36.5 23q58 32 87 58z" />
    <glyph glyph-name="Thorn" unicode="&#xde;" horiz-adv-x="589" 
d="M380 246h4q21 -6 39 -6q52 0 86.5 34t34.5 87q0 57 -39 91.5t-98 34.5q-46 0 -90 -23q15 -98 15 -207q0 -43 -2 -77.5t-9.5 -72.5t-19.5 -63t-33.5 -41.5t-50.5 -16.5q-44 0 -71 49.5t-27 129.5q0 100 40 184.5t107 132.5q-12 60 -30 93q-46 -17 -93 -17
q-60 0 -91.5 21.5t-31.5 52.5t29 52t71 21q52 0 87 -25t49 -50q36 21 51 47q6 11 19 11q22 0 22 -21q0 -12 -19.5 -34.5t-51.5 -39.5q18 -36 30 -87q49 22 100 22q79 0 130.5 -46t51.5 -121q0 -69 -47.5 -116t-119.5 -47q-65 0 -65 27q0 21 23 21zM66 632q0 -33 79 -33
q38 0 72 13q-13 22 -39.5 37t-59.5 15q-20 0 -36 -8.5t-16 -23.5zM288 257q0 94 -13 180q-52 -44 -81.5 -116.5t-29.5 -155.5q0 -60 16 -99.5t38 -39.5q70 0 70 231z" />
    <glyph glyph-name="germandbls" unicode="&#xdf;" horiz-adv-x="461" 
d="M-82 -211h-3q-9 0 -15.5 6t-6.5 15q0 19 20 22q27 4 49.5 25t37.5 48.5t28.5 72.5t20.5 80.5t14 91t10 86.5t7 82q26 330 201 330q56 0 88.5 -37.5t32.5 -87.5q0 -81 -57 -98q-73 -21 -73 -81q0 -16 10.5 -31t20.5 -23.5t31 -22.5q95 -67 95 -146q0 -62 -41.5 -102.5
t-108.5 -40.5q-50 0 -91.5 29.5t-41.5 84.5q0 39 24.5 65t54.5 26q29 0 48 -18.5t19 -46.5q0 -6 -1 -14t-8 -20t-19 -12q-9 0 -15.5 6.5t-6.5 15.5q0 1 2.5 11.5t2.5 12.5q0 24 -22 24q-12 0 -22.5 -13.5t-10.5 -36.5q0 -37 28.5 -55t58.5 -18q47 0 76 28t29 74
q0 57 -72 107q-27 19 -41 31t-28.5 35.5t-14.5 50.5q0 41 28 73.5t74 45.5q27 8 27 59q0 32 -20 58t-57 26q-133 0 -156 -293q-4 -52 -6.5 -80t-8.5 -82t-13.5 -87t-18.5 -78.5t-25.5 -74.5t-33.5 -58t-44.5 -45t-55.5 -20z" />
    <glyph glyph-name="agrave" unicode="&#xe0;" horiz-adv-x="346" 
d="M216 346q43 0 67.5 -27.5t24.5 -78.5q0 -49 -13 -120q-10 -65 -10 -80q0 -7 2 -13q4 -8 4 -12q0 -8 -7 -14.5t-16 -6.5q-28 0 -28 48q0 6 11 85q13 80 13 111q0 34 -15 50t-37 16q-54 0 -93.5 -67t-39.5 -140q0 -28 12 -45.5t31 -17.5q38 0 57 51q5 13 19 13q21 0 21 -22
q0 -21 -28.5 -52.5t-75.5 -31.5q-33 0 -57 26.5t-24 78.5q0 86 52.5 167.5t129.5 81.5zM260 411q0 -20 -15 -20q-10 0 -18 6q-92 73 -99 78q-20 15 -20 31q0 17 18 17l12 -3q5 -4 13.5 -11.5t10.5 -8.5q13 -11 90 -72q8 -6 8 -17z" />
    <glyph glyph-name="aacute" unicode="&#xe1;" horiz-adv-x="346" 
d="M216 346q43 0 67.5 -27.5t24.5 -78.5q0 -49 -13 -120q-10 -65 -10 -80q0 -7 2 -13q4 -8 4 -12q0 -8 -7 -14.5t-16 -6.5q-28 0 -28 48q0 6 11 85q13 80 13 111q0 34 -15 50t-37 16q-54 0 -93.5 -67t-39.5 -140q0 -28 12 -45.5t31 -17.5q38 0 57 51q5 13 19 13q21 0 21 -22
q0 -21 -28.5 -52.5t-75.5 -31.5q-33 0 -57 26.5t-24 78.5q0 86 52.5 167.5t129.5 81.5zM266 500q2 1 10.5 8.5t13.5 11.5q1 0 3 0.5t3.5 1l3 1t2.5 0.5q18 0 18 -17q0 -15 -20 -31q-12 -9 -49 -38t-50 -38q-8 -6 -18 -6q-6 0 -10.5 6t-4.5 12q0 11 8 17q77 61 90 72z" />
    <glyph glyph-name="acircumflex" unicode="&#xe2;" horiz-adv-x="346" 
d="M216 346q43 0 67.5 -27.5t24.5 -78.5q0 -49 -13 -120q-10 -65 -10 -80q0 -7 2 -13q4 -8 4 -12q0 -8 -7 -14.5t-16 -6.5q-28 0 -28 48q0 6 11 85q13 80 13 111q0 34 -15 50t-37 16q-54 0 -93.5 -67t-39.5 -140q0 -28 12 -45.5t31 -17.5q38 0 57 51q5 13 19 13q21 0 21 -22
q0 -21 -28.5 -52.5t-75.5 -31.5q-33 0 -57 26.5t-24 78.5q0 86 52.5 167.5t129.5 81.5zM220 513q9 0 13 -4q9 -9 22.5 -24.5t24 -25t23.5 -17.5q11 -6 11 -19q0 -6 -7 -11.5t-16 -5.5q-5 0 -12 4.5t-16.5 13.5t-17 16t-17 17t-12.5 13q-14 -10 -35.5 -27.5t-32.5 -24.5
q-6 -3 -15 -3q-8 0 -14 5.5t-6 11.5q0 11 10 18q7 4 31 21.5t43 29.5t23 12z" />
    <glyph glyph-name="atilde" unicode="&#xe3;" horiz-adv-x="346" 
d="M216 346q43 0 67.5 -27.5t24.5 -78.5q0 -49 -13 -120q-10 -65 -10 -80q0 -7 2 -13q4 -8 4 -12q0 -8 -7 -14.5t-16 -6.5q-28 0 -28 48q0 6 11 85q13 80 13 111q0 34 -15 50t-37 16q-54 0 -93.5 -67t-39.5 -140q0 -28 12 -45.5t31 -17.5q38 0 57 51q5 13 19 13q21 0 21 -22
q0 -21 -28.5 -52.5t-75.5 -31.5q-33 0 -57 26.5t-24 78.5q0 86 52.5 167.5t129.5 81.5zM249 416q-35 0 -56 20q-20 19 -36 19q-18 0 -29 -35q-3 -10 -16 -10q-9 0 -14.5 6.5t-5.5 15.5q0 16 19.5 38t44.5 22q29 0 54 -22q18 -17 34 -17q14 0 23 25q5 13 18 13q7 0 12 -4
q7 -4 7 -19q0 -13 -16 -32.5t-39 -19.5z" />
    <glyph glyph-name="adieresis" unicode="&#xe4;" horiz-adv-x="346" 
d="M216 346q43 0 67.5 -27.5t24.5 -78.5q0 -49 -13 -120q-10 -65 -10 -80q0 -7 2 -13q4 -8 4 -12q0 -8 -7 -14.5t-16 -6.5q-28 0 -28 48q0 6 11 85q13 80 13 111q0 34 -15 50t-37 16q-54 0 -93.5 -67t-39.5 -140q0 -28 12 -45.5t31 -17.5q38 0 57 51q5 13 19 13q21 0 21 -22
q0 -21 -28.5 -52.5t-75.5 -31.5q-33 0 -57 26.5t-24 78.5q0 86 52.5 167.5t129.5 81.5zM286 469v-7q0 -1 1 -7t1 -7q0 -9 -6.5 -15.5t-15.5 -6.5q-11 0 -16.5 8.5t-6.5 17t-1 26.5q0 2 -1 8.5t-1 7.5q0 9 6.5 15.5t15.5 6.5q26 0 24 -47zM178 469v-7q0 -1 1 -7t1 -7
q0 -9 -6.5 -15.5t-15.5 -6.5q-11 0 -16.5 8.5t-6.5 17t-1 26.5q0 2 -1 8.5t-1 7.5q0 9 6.5 15.5t15.5 6.5q26 0 24 -47z" />
    <glyph glyph-name="aring" unicode="&#xe5;" horiz-adv-x="346" 
d="M216 346q43 0 67.5 -27.5t24.5 -78.5q0 -49 -13 -120q-10 -65 -10 -80q0 -7 2 -13q4 -8 4 -12q0 -8 -7 -14.5t-16 -6.5q-28 0 -28 48q0 6 11 85q13 80 13 111q0 34 -15 50t-37 16q-54 0 -93.5 -67t-39.5 -140q0 -28 12 -45.5t31 -17.5q38 0 57 51q5 13 19 13q21 0 21 -22
q0 -21 -28.5 -52.5t-75.5 -31.5q-33 0 -57 26.5t-24 78.5q0 86 52.5 167.5t129.5 81.5zM199 399q-36 0 -58.5 20.5t-22.5 49.5q0 25 13.5 45.5t28.5 20.5q23 0 23 -17q0 -9 -14 -18q-12 -7 -12 -31q0 -15 13 -23.5t28 -8.5q20 0 31 12.5t11 30.5q0 7 -6.5 17t-15.5 10
t-16 6.5t-7 15.5q0 15 22 15q25 1 44 -19.5t19 -44.5q0 -32 -24.5 -56.5t-56.5 -24.5z" />
    <glyph glyph-name="ae" unicode="&#xe6;" horiz-adv-x="512" 
d="M249 130l1 11q1 14 5.5 49t4.5 43q0 32 -12.5 50.5t-33.5 18.5q-51 0 -93.5 -70t-42.5 -142q0 -62 43 -62q21 0 41.5 19t30.5 42q5 15 20 15q10 0 16 -6.5t6 -16.5q0 -20 -34 -57t-81 -37q-36 0 -61 25t-25 78q0 85 54 169t128 84q66 0 84 -73q43 68 115 68
q41 0 63 -21.5t22 -55.5q0 -54 -45 -85.5t-97 -31.5q-21 0 -21 20t21 22q38 1 68 22t30 53q0 15 -10 25.5t-30 10.5q-43 0 -82.5 -48.5t-39.5 -124.5q0 -43 20 -69.5t61 -26.5q37 0 61 29q8 9 18 9q9 0 15 -6.5t6 -16.5q0 -8 -10 -20.5t-34.5 -24t-56.5 -11.5
q-52 0 -88.5 33.5t-36.5 109.5z" />
    <glyph glyph-name="ccedilla" unicode="&#xe7;" horiz-adv-x="300" 
d="M109 -182q-20 0 -40.5 8t-20.5 22q0 9 5.5 15.5t14.5 6.5q7 0 14 -4q12 -10 31 -10q11 0 23 8.5t12 20.5q0 22 -29 36q-1 0 -4.5 1.5t-4.5 2.5t-4 2.5t-4.5 3t-4 3.5t-3 4.5t-1.5 5.5t-1 7q0 9 26 42l2 1q-82 17 -82 126q0 86 48 154t120 68q54 0 69 -37q3 -6 3 -14
q0 -22 -21 -22q-11 0 -19 11q-13 19 -35 19q-54 0 -87 -58t-33 -121q0 -37 13 -58.5t26 -26.5t28 -5q54 0 82 50q7 13 19 13q19 0 19 -23q0 -18 -31.5 -45.5t-75.5 -32.5l-33 -38q58 -16 58 -68q0 -28 -25.5 -48t-53.5 -20z" />
    <glyph glyph-name="egrave" unicode="&#xe8;" horiz-adv-x="298" 
d="M144 188q38 1 67.5 22t29.5 53q0 34 -40 34q-42 0 -81.5 -48t-39.5 -123q0 -15 3 -29.5t11 -30.5t26 -25.5t43 -9.5q43 0 70 33q6 8 16 8q20 0 20 -23q0 -17 -33.5 -38t-75.5 -21q-57 0 -91 36.5t-34 99.5q0 90 52 152t115 62q42 0 63 -22t21 -55q0 -55 -45.5 -86.5
t-96.5 -31.5q-22 0 -22 21q0 20 22 22zM246 411q0 -20 -15 -20q-10 0 -18 6q-92 73 -99 78q-20 15 -20 31q0 17 18 17l12 -3q5 -4 13.5 -11.5t10.5 -8.5q13 -11 90 -72q8 -6 8 -17z" />
    <glyph glyph-name="eacute" unicode="&#xe9;" horiz-adv-x="298" 
d="M144 188q38 1 67.5 22t29.5 53q0 34 -40 34q-42 0 -81.5 -48t-39.5 -123q0 -15 3 -29.5t11 -30.5t26 -25.5t43 -9.5q43 0 70 33q6 8 16 8q20 0 20 -23q0 -17 -33.5 -38t-75.5 -21q-57 0 -91 36.5t-34 99.5q0 90 52 152t115 62q42 0 63 -22t21 -55q0 -55 -45.5 -86.5
t-96.5 -31.5q-22 0 -22 21q0 20 22 22zM262 500q2 1 10.5 8.5t13.5 11.5q1 0 3 0.5t3.5 1l3 1t2.5 0.5q18 0 18 -17q0 -15 -20 -31q-12 -9 -49 -38t-50 -38q-8 -6 -18 -6q-6 0 -10.5 6t-4.5 12q0 11 8 17q77 61 90 72z" />
    <glyph glyph-name="ecircumflex" unicode="&#xea;" horiz-adv-x="298" 
d="M144 188q38 1 67.5 22t29.5 53q0 34 -40 34q-42 0 -81.5 -48t-39.5 -123q0 -15 3 -29.5t11 -30.5t26 -25.5t43 -9.5q43 0 70 33q6 8 16 8q20 0 20 -23q0 -17 -33.5 -38t-75.5 -21q-57 0 -91 36.5t-34 99.5q0 90 52 152t115 62q42 0 63 -22t21 -55q0 -55 -45.5 -86.5
t-96.5 -31.5q-22 0 -22 21q0 20 22 22zM206 513q9 0 13 -4q9 -9 22.5 -24.5t24 -25t23.5 -17.5q11 -6 11 -19q0 -6 -7 -11.5t-16 -5.5q-5 0 -12 4.5t-16.5 13.5t-17 16t-17 17t-12.5 13q-14 -10 -35.5 -27.5t-32.5 -24.5q-6 -3 -15 -3q-8 0 -14 5.5t-6 11.5q0 11 10 18
q7 4 31 21.5t43 29.5t23 12z" />
    <glyph glyph-name="edieresis" unicode="&#xeb;" horiz-adv-x="298" 
d="M144 188q38 1 67.5 22t29.5 53q0 34 -40 34q-42 0 -81.5 -48t-39.5 -123q0 -15 3 -29.5t11 -30.5t26 -25.5t43 -9.5q43 0 70 33q6 8 16 8q20 0 20 -23q0 -17 -33.5 -38t-75.5 -21q-57 0 -91 36.5t-34 99.5q0 90 52 152t115 62q42 0 63 -22t21 -55q0 -55 -45.5 -86.5
t-96.5 -31.5q-22 0 -22 21q0 20 22 22zM272 469v-7q0 -1 1 -7t1 -7q0 -9 -6.5 -15.5t-15.5 -6.5q-11 0 -16.5 8.5t-6.5 17t-1 26.5q0 2 -1 8.5t-1 7.5q0 9 6.5 15.5t15.5 6.5q26 0 24 -47zM164 469v-7q0 -1 1 -7t1 -7q0 -9 -6.5 -15.5t-15.5 -6.5q-11 0 -16.5 8.5t-6.5 17
t-1 26.5q0 2 -1 8.5t-1 7.5q0 9 6.5 15.5t15.5 6.5q26 0 24 -47z" />
    <glyph glyph-name="igrave" unicode="&#xec;" horiz-adv-x="160" 
d="M112 332q17 -5 17 -22q0 -3 -1 -5q-32 -130 -43 -297q-2 -21 -22 -21q-10 0 -16.5 6.5t-6.5 16.5t4.5 57t16 121.5t24.5 127.5q1 9 9.5 13.5t17.5 2.5zM167 411q0 -20 -15 -20q-10 0 -18 6q-92 73 -99 78q-20 15 -20 31q0 17 18 17l12 -3q5 -4 13.5 -11.5t10.5 -8.5
q13 -11 90 -72q8 -6 8 -17z" />
    <glyph glyph-name="iacute" unicode="&#xed;" horiz-adv-x="160" 
d="M112 332q17 -5 17 -22q0 -3 -1 -5q-32 -130 -43 -297q-2 -21 -22 -21q-10 0 -16.5 6.5t-6.5 16.5t4.5 57t16 121.5t24.5 127.5q1 9 9.5 13.5t17.5 2.5zM163 500q2 1 10.5 8.5t13.5 11.5q1 0 3 0.5t3.5 1l3 1t2.5 0.5q18 0 18 -17q0 -15 -20 -31q-12 -9 -49 -38t-50 -38
q-8 -6 -18 -6q-6 0 -10.5 6t-4.5 12q0 11 8 17q77 61 90 72z" />
    <glyph glyph-name="icircumflex" unicode="&#xee;" horiz-adv-x="160" 
d="M112 332q17 -5 17 -22q0 -3 -1 -5q-32 -130 -43 -297q-2 -21 -22 -21q-10 0 -16.5 6.5t-6.5 16.5t4.5 57t16 121.5t24.5 127.5q1 9 9.5 13.5t17.5 2.5zM117 513q9 0 13 -4q9 -9 22.5 -24.5t24 -25t23.5 -17.5q11 -6 11 -19q0 -6 -7 -11.5t-16 -5.5q-5 0 -12 4.5
t-16.5 13.5t-17 16t-17 17t-12.5 13q-14 -10 -35.5 -27.5t-32.5 -24.5q-6 -3 -15 -3q-8 0 -14 5.5t-6 11.5q0 11 10 18q7 4 31 21.5t43 29.5t23 12z" />
    <glyph glyph-name="idieresis" unicode="&#xef;" horiz-adv-x="160" 
d="M112 332q17 -5 17 -22q0 -3 -1 -5q-32 -130 -43 -297q-2 -21 -22 -21q-10 0 -16.5 6.5t-6.5 16.5t4.5 57t16 121.5t24.5 127.5q1 9 9.5 13.5t17.5 2.5zM183 469v-7q0 -1 1 -7t1 -7q0 -9 -6.5 -15.5t-15.5 -6.5q-11 0 -16.5 8.5t-6.5 17t-1 26.5q0 2 -1 8.5t-1 7.5
q0 9 6.5 15.5t15.5 6.5q26 0 24 -47zM75 469v-7q0 -1 1 -7t1 -7q0 -9 -6.5 -15.5t-15.5 -6.5q-11 0 -16.5 8.5t-6.5 17t-1 26.5q0 2 -1 8.5t-1 7.5q0 9 6.5 15.5t15.5 6.5q26 0 24 -47z" />
    <glyph glyph-name="eth" unicode="&#xf0;" horiz-adv-x="332" 
d="M145 -8q-49 0 -81.5 41.5t-32.5 107.5q0 87 41.5 143.5t97.5 56.5q20 0 35.5 -6t23 -15t11 -16t3.5 -12q0 -9 -6 -15.5t-16 -6.5q-16 0 -24 13q-9 14 -30 14q-36 0 -63.5 -44t-27.5 -112q0 -45 19.5 -77.5t51.5 -32.5q41 0 70 47t41 111t12 136q0 86 -29 136
q-65 -45 -94 -45q-23 0 -23 20q0 8 6 14t13 7q24 5 79 40q-20 34 -50.5 57t-63.5 27q-18 2 -18 19q0 10 7 16.5t16 6.5h4q29 0 74 -30.5t68 -72.5q62 42 80 45q11 2 19.5 -3.5t8.5 -15.5q0 -18 -18 -22q-13 -3 -71 -39q16 -27 26.5 -73t10.5 -87q0 -38 -3.5 -80t-24 -110
t-55.5 -105q-37 -38 -87 -38z" />
    <glyph glyph-name="ntilde" unicode="&#xf1;" horiz-adv-x="350" 
d="M230 338q11 0 22 -4.5t24.5 -17.5t22 -42.5t8.5 -72.5q0 -71 -23 -183q-3 -20 -22 -20q-10 0 -16.5 6.5t-6.5 16.5q0 2 1 4q22 96 22 176q0 91 -36 91q-41 0 -83.5 -78t-66.5 -200q-3 -17 -21 -17q-21 0 -21 23q0 13 22 101q20 81 21 123q-1 43 -18 60q-5 8 -5 16
t6.5 14.5t15.5 6.5q17 0 31.5 -27.5t11.5 -69.5q41 94 111 94zM246 416q-35 0 -56 20q-20 19 -36 19q-18 0 -29 -35q-3 -10 -16 -10q-9 0 -14.5 6.5t-5.5 15.5q0 16 19.5 38t44.5 22q29 0 54 -22q18 -17 34 -17q14 0 23 25q5 13 18 13q7 0 12 -4q7 -4 7 -19q0 -13 -16 -32.5
t-39 -19.5z" />
    <glyph glyph-name="ograve" unicode="&#xf2;" horiz-adv-x="341" 
d="M213 348q49 0 78 -37.5t29 -98.5q0 -86 -46 -154t-119 -68q-52 0 -83.5 42t-31.5 112q0 43 14 81q5 16 21 16q9 0 15 -6.5t6 -15.5q0 -4 -2 -10q-9 -23 -9 -64q0 -44 18.5 -78.5t53.5 -34.5q51 0 84.5 56t33.5 124q0 36 -15.5 65t-48.5 29q-26 0 -38.5 -17t-12.5 -39
q0 -40 47 -40q10 0 16.5 -6.5t6.5 -15.5q0 -22 -27 -22q-42 0 -65 24t-23 60q0 39 26.5 68.5t71.5 29.5zM257 411q0 -20 -15 -20q-10 0 -18 6q-92 73 -99 78q-20 15 -20 31q0 17 18 17l12 -3q5 -4 13.5 -11.5t10.5 -8.5q13 -11 90 -72q8 -6 8 -17z" />
    <glyph glyph-name="oacute" unicode="&#xf3;" horiz-adv-x="341" 
d="M213 348q49 0 78 -37.5t29 -98.5q0 -86 -46 -154t-119 -68q-52 0 -83.5 42t-31.5 112q0 43 14 81q5 16 21 16q9 0 15 -6.5t6 -15.5q0 -4 -2 -10q-9 -23 -9 -64q0 -44 18.5 -78.5t53.5 -34.5q51 0 84.5 56t33.5 124q0 36 -15.5 65t-48.5 29q-26 0 -38.5 -17t-12.5 -39
q0 -40 47 -40q10 0 16.5 -6.5t6.5 -15.5q0 -22 -27 -22q-42 0 -65 24t-23 60q0 39 26.5 68.5t71.5 29.5zM273 500q2 1 10.5 8.5t13.5 11.5q1 0 3 0.5t3.5 1l3 1t2.5 0.5q18 0 18 -17q0 -15 -20 -31q-12 -9 -49 -38t-50 -38q-8 -6 -18 -6q-6 0 -10.5 6t-4.5 12q0 11 8 17
q77 61 90 72z" />
    <glyph glyph-name="ocircumflex" unicode="&#xf4;" horiz-adv-x="341" 
d="M213 348q49 0 78 -37.5t29 -98.5q0 -86 -46 -154t-119 -68q-52 0 -83.5 42t-31.5 112q0 43 14 81q5 16 21 16q9 0 15 -6.5t6 -15.5q0 -4 -2 -10q-9 -23 -9 -64q0 -44 18.5 -78.5t53.5 -34.5q51 0 84.5 56t33.5 124q0 36 -15.5 65t-48.5 29q-26 0 -38.5 -17t-12.5 -39
q0 -40 47 -40q10 0 16.5 -6.5t6.5 -15.5q0 -22 -27 -22q-42 0 -65 24t-23 60q0 39 26.5 68.5t71.5 29.5zM208 513q9 0 13 -4q9 -9 22.5 -24.5t24 -25t23.5 -17.5q11 -6 11 -19q0 -6 -7 -11.5t-16 -5.5q-5 0 -12 4.5t-16.5 13.5t-17 16t-17 17t-12.5 13q-14 -10 -35.5 -27.5
t-32.5 -24.5q-6 -3 -15 -3q-8 0 -14 5.5t-6 11.5q0 11 10 18q7 4 31 21.5t43 29.5t23 12z" />
    <glyph glyph-name="otilde" unicode="&#xf5;" horiz-adv-x="341" 
d="M213 348q49 0 78 -37.5t29 -98.5q0 -86 -46 -154t-119 -68q-52 0 -83.5 42t-31.5 112q0 43 14 81q5 16 21 16q9 0 15 -6.5t6 -15.5q0 -4 -2 -10q-9 -23 -9 -64q0 -44 18.5 -78.5t53.5 -34.5q51 0 84.5 56t33.5 124q0 36 -15.5 65t-48.5 29q-26 0 -38.5 -17t-12.5 -39
q0 -40 47 -40q10 0 16.5 -6.5t6.5 -15.5q0 -22 -27 -22q-42 0 -65 24t-23 60q0 39 26.5 68.5t71.5 29.5zM252 416q-35 0 -56 20q-20 19 -36 19q-18 0 -29 -35q-3 -10 -16 -10q-9 0 -14.5 6.5t-5.5 15.5q0 16 19.5 38t44.5 22q29 0 54 -22q18 -17 34 -17q14 0 23 25
q5 13 18 13q7 0 12 -4q7 -4 7 -19q0 -13 -16 -32.5t-39 -19.5z" />
    <glyph glyph-name="odieresis" unicode="&#xf6;" horiz-adv-x="341" 
d="M213 348q49 0 78 -37.5t29 -98.5q0 -86 -46 -154t-119 -68q-52 0 -83.5 42t-31.5 112q0 43 14 81q5 16 21 16q9 0 15 -6.5t6 -15.5q0 -4 -2 -10q-9 -23 -9 -64q0 -44 18.5 -78.5t53.5 -34.5q51 0 84.5 56t33.5 124q0 36 -15.5 65t-48.5 29q-26 0 -38.5 -17t-12.5 -39
q0 -40 47 -40q10 0 16.5 -6.5t6.5 -15.5q0 -22 -27 -22q-42 0 -65 24t-23 60q0 39 26.5 68.5t71.5 29.5zM284 469v-7q0 -1 1 -7t1 -7q0 -9 -6.5 -15.5t-15.5 -6.5q-11 0 -16.5 8.5t-6.5 17t-1 26.5q0 2 -1 8.5t-1 7.5q0 9 6.5 15.5t15.5 6.5q26 0 24 -47zM176 469v-7
q0 -1 1 -7t1 -7q0 -9 -6.5 -15.5t-15.5 -6.5q-11 0 -16.5 8.5t-6.5 17t-1 26.5q0 2 -1 8.5t-1 7.5q0 9 6.5 15.5t15.5 6.5q26 0 24 -47z" />
    <glyph glyph-name="divide" unicode="&#xf7;" 
d="M398 181h-364v42h364v-42zM173 351q0 18 13 30.5t30 12.5t30 -12.5t13 -30.5q0 -16 -13 -29.5t-29 -13.5q-18 0 -31 13t-13 30zM173 53q0 18 13 30.5t30 12.5t30 -13t13 -30q0 -16 -13 -29.5t-29 -13.5q-18 0 -31 13t-13 30z" />
    <glyph glyph-name="oslash" unicode="&#xf8;" horiz-adv-x="337" 
d="M157 190l19 34q42 75 56 87q12 12 27 12q20 0 35 -15q26 -25 26 -96q0 -86 -46 -154t-119 -68q-30 0 -55 16q-8 -11 -20 -30t-19 -28q-6 -9 -18 -9q-21 0 -21 19q0 8 5 15q1 2 17.5 25.5t26.5 38.5q-31 39 -31 107q0 86 44.5 144t95.5 58q14 0 19.5 -7.5t5.5 -15.5
q0 -18 -25 -18q-31 0 -63.5 -47t-32.5 -114q0 -40 12 -66q2 3 61 112zM213 203l-19 -36q-7 -14 -73 -124q17 -12 35 -12q51 0 85 56t34 125q0 68 -14 68q-7 0 -48 -77z" />
    <glyph glyph-name="ugrave" unicode="&#xf9;" horiz-adv-x="336" 
d="M104 307v-5q-24 -106 -24 -175q0 -94 42 -94q47 0 87 83t57 205q3 19 26 19q7 0 12.5 -8t3.5 -17q-3 -27 -14 -82q-17 -102 -17 -135q0 -48 20 -69q5 -6 5 -15t-6.5 -15.5t-15.5 -6.5q-17 0 -31.5 29t-13.5 69q-19 -46 -49.5 -73t-63.5 -27q-35 0 -60.5 30t-25.5 107
q0 65 22 178q5 24 23 24q10 0 16.5 -6.5t6.5 -15.5zM225 411q0 -20 -15 -20q-10 0 -18 6q-92 73 -99 78q-20 15 -20 31q0 17 18 17l12 -3q5 -4 13.5 -11.5t10.5 -8.5q13 -11 90 -72q8 -6 8 -17z" />
    <glyph glyph-name="uacute" unicode="&#xfa;" horiz-adv-x="336" 
d="M104 307v-5q-24 -106 -24 -175q0 -94 42 -94q47 0 87 83t57 205q3 19 26 19q7 0 12.5 -8t3.5 -17q-3 -27 -14 -82q-17 -102 -17 -135q0 -48 20 -69q5 -6 5 -15t-6.5 -15.5t-15.5 -6.5q-17 0 -31.5 29t-13.5 69q-19 -46 -49.5 -73t-63.5 -27q-35 0 -60.5 30t-25.5 107
q0 65 22 178q5 24 23 24q10 0 16.5 -6.5t6.5 -15.5zM251 500q2 1 10.5 8.5t13.5 11.5q1 0 3 0.5t3.5 1l3 1t2.5 0.5q18 0 18 -17q0 -15 -20 -31q-12 -9 -49 -38t-50 -38q-8 -6 -18 -6q-6 0 -10.5 6t-4.5 12q0 11 8 17q77 61 90 72z" />
    <glyph glyph-name="ucircumflex" unicode="&#xfb;" horiz-adv-x="336" 
d="M104 307v-5q-24 -106 -24 -175q0 -94 42 -94q47 0 87 83t57 205q3 19 26 19q7 0 12.5 -8t3.5 -17q-3 -27 -14 -82q-17 -102 -17 -135q0 -48 20 -69q5 -6 5 -15t-6.5 -15.5t-15.5 -6.5q-17 0 -31.5 29t-13.5 69q-19 -46 -49.5 -73t-63.5 -27q-35 0 -60.5 30t-25.5 107
q0 65 22 178q5 24 23 24q10 0 16.5 -6.5t6.5 -15.5zM195 513q9 0 13 -4q9 -9 22.5 -24.5t24 -25t23.5 -17.5q11 -6 11 -19q0 -6 -7 -11.5t-16 -5.5q-5 0 -12 4.5t-16.5 13.5t-17 16t-17 17t-12.5 13q-14 -10 -35.5 -27.5t-32.5 -24.5q-6 -3 -15 -3q-8 0 -14 5.5t-6 11.5
q0 11 10 18q7 4 31 21.5t43 29.5t23 12z" />
    <glyph glyph-name="udieresis" unicode="&#xfc;" horiz-adv-x="336" 
d="M104 307v-5q-24 -106 -24 -175q0 -94 42 -94q47 0 87 83t57 205q3 19 26 19q7 0 12.5 -8t3.5 -17q-3 -27 -14 -82q-17 -102 -17 -135q0 -48 20 -69q5 -6 5 -15t-6.5 -15.5t-15.5 -6.5q-17 0 -31.5 29t-13.5 69q-19 -46 -49.5 -73t-63.5 -27q-35 0 -60.5 30t-25.5 107
q0 65 22 178q5 24 23 24q10 0 16.5 -6.5t6.5 -15.5zM271 469v-7q0 -1 1 -7t1 -7q0 -9 -6.5 -15.5t-15.5 -6.5q-11 0 -16.5 8.5t-6.5 17t-1 26.5q0 2 -1 8.5t-1 7.5q0 9 6.5 15.5t15.5 6.5q26 0 24 -47zM163 469v-7q0 -1 1 -7t1 -7q0 -9 -6.5 -15.5t-15.5 -6.5
q-11 0 -16.5 8.5t-6.5 17t-1 26.5q0 2 -1 8.5t-1 7.5q0 9 6.5 15.5t15.5 6.5q26 0 24 -47z" />
    <glyph glyph-name="yacute" unicode="&#xfd;" horiz-adv-x="331" 
d="M108 315l-1 -4q-22 -118 -22 -178q0 -93 38 -93q30 0 62 43.5t52.5 109t20.5 124.5q0 9 7 15t16 6t14.5 -6.5t5.5 -15.5q0 -33 -10 -190q-9 -119 -36 -210q58 -33 58 -90q0 -9 -6.5 -15.5t-15.5 -6.5t-15 6.5t-6 15.5q0 33 -31 47q-32 -83 -97.5 -134t-133.5 -51
q-40 0 -66.5 21t-26.5 64q0 73 74 120.5t160 47.5q37 0 64 -9q26 82 37 192q-19 -54 -55 -91t-72 -37q-43 0 -63 39t-20 98q0 66 22 182q9 22 24 23q9 0 15.5 -6.5t6.5 -16.5zM14 -271q53 0 105.5 45.5t81.5 119.5q-21 6 -52 6q-67 0 -128 -36.5t-61 -87.5q0 -23 16 -35
t38 -12zM268 500q2 1 10.5 8.5t13.5 11.5q1 0 3 0.5t3.5 1l3 1t2.5 0.5q18 0 18 -17q0 -15 -20 -31q-12 -9 -49 -38t-50 -38q-8 -6 -18 -6q-6 0 -10.5 6t-4.5 12q0 11 8 17q77 61 90 72z" />
    <glyph glyph-name="thorn" unicode="&#xfe;" horiz-adv-x="407" 
d="M271 341q51 0 83 -40t32 -104q0 -83 -37 -145t-94 -62q-36 0 -55.5 21.5t-19.5 42.5q0 9 6.5 15.5t16.5 6.5q16 0 21 -16q9 -27 32 -27q35 0 60.5 49t25.5 115q0 43 -18.5 72t-52.5 29q-66 0 -123 -81q13 -103 13 -270q0 -121 -14.5 -184t-61.5 -63q-25 0 -42.5 17
t-25 45t-10.5 52.5t-3 51.5q0 93 26.5 188.5t72.5 171.5q-30 206 -110 261q-9 5 -9 19q0 9 6.5 15.5t14.5 6.5q5 0 15.5 -6t27 -24t33 -44.5t33 -74t26.5 -106.5q61 68 131 68zM117 -53q0 143 -5 210q-29 -60 -45.5 -139.5t-16.5 -151.5q0 -127 35 -125q32 3 32 206z" />
    <glyph glyph-name="ydieresis" unicode="&#xff;" horiz-adv-x="331" 
d="M108 315l-1 -4q-22 -118 -22 -178q0 -93 38 -93q30 0 62 43.5t52.5 109t20.5 124.5q0 9 7 15t16 6t14.5 -6.5t5.5 -15.5q0 -33 -10 -190q-9 -119 -36 -210q58 -33 58 -90q0 -9 -6.5 -15.5t-15.5 -6.5t-15 6.5t-6 15.5q0 33 -31 47q-32 -83 -97.5 -134t-133.5 -51
q-40 0 -66.5 21t-26.5 64q0 73 74 120.5t160 47.5q37 0 64 -9q26 82 37 192q-19 -54 -55 -91t-72 -37q-43 0 -63 39t-20 98q0 66 22 182q9 22 24 23q9 0 15.5 -6.5t6.5 -16.5zM14 -271q53 0 105.5 45.5t81.5 119.5q-21 6 -52 6q-67 0 -128 -36.5t-61 -87.5q0 -23 16 -35
t38 -12zM264 469v-7q0 -1 1 -7t1 -7q0 -9 -6.5 -15.5t-15.5 -6.5q-11 0 -16.5 8.5t-6.5 17t-1 26.5q0 2 -1 8.5t-1 7.5q0 9 6.5 15.5t15.5 6.5q26 0 24 -47zM156 469v-7q0 -1 1 -7t1 -7q0 -9 -6.5 -15.5t-15.5 -6.5q-11 0 -16.5 8.5t-6.5 17t-1 26.5q0 2 -1 8.5t-1 7.5
q0 9 6.5 15.5t15.5 6.5q26 0 24 -47z" />
    <glyph glyph-name="dotlessi" unicode="&#x131;" horiz-adv-x="160" 
d="M112 332q17 -5 17 -22q0 -3 -1 -5q-32 -130 -43 -297q-2 -21 -22 -21q-10 0 -16.5 6.5t-6.5 16.5t4.5 57t16 121.5t24.5 127.5q1 9 9.5 13.5t17.5 2.5z" />
    <glyph glyph-name="Lslash" unicode="&#x141;" horiz-adv-x="563" 
d="M341 455q66 26 109 72.5t43 90.5q0 14 -7.5 23t-20.5 9q-34 0 -70.5 -47t-53.5 -148zM104 -1q122 0 167 217q-106 0 -166 -50t-60 -106q0 -27 17.5 -44t41.5 -17zM103 -42q-43 0 -73 28t-30 74q0 33 17 67t49 64.5t87.5 49.5t123.5 18q2 11 4 42q-48 -12 -96 -12
q-25 0 -25 20q0 7 6.5 13.5t18.5 6.5q34 0 102 14q0 5 3 53q-32 -5 -59 -5q-71 0 -115 35t-44 99q0 9 6 15.5t16 6.5q9 0 15 -6.5t6 -15.5q0 -50 35.5 -70.5t80.5 -20.5q35 0 64 7q12 109 60.5 181.5t116.5 72.5q30 0 48.5 -21t18.5 -55q0 -66 -58 -123t-145 -88l-4 -52
q84 20 123 20q9 0 15.5 -6t6.5 -15q0 -7 -6.5 -13t-14.5 -6q-50 -1 -128 -23q0 -3 -7 -57q111 -16 159.5 -77.5t48.5 -132.5q0 -32 -11.5 -61t-27.5 -46t-29.5 -27t-20.5 -10q-10 0 -16.5 6.5t-6.5 15.5q0 11 10 18q58 38 58 105q0 57 -38.5 105.5t-132.5 61.5
q-53 -256 -211 -256z" />
    <glyph glyph-name="lslash" unicode="&#x142;" horiz-adv-x="220" 
d="M106 -4q-30 0 -30 72q0 75 28 205q-40 -25 -56 -25q-8 0 -14.5 6.5t-6.5 16.5q0 8 5.5 14.5t13.5 6.5q13 0 68 32l11 45q36 149 36 183q0 31 -4 38q-2 6 -2 8q0 16 14 21q4 2 9 2q10 0 15.5 -5.5t8 -17.5t3 -21t0.5 -25q0 -42 -31 -170l-6 -27q60 38 76 38q19 0 21 -18
q2 -24 -17 -27q-18 -3 -92 -46q-35 -156 -35 -234q0 -28 4 -40q3 -4 3 -10q0 -10 -6.5 -16t-15.5 -6z" />
    <glyph glyph-name="OE" unicode="&#x152;" horiz-adv-x="1094" 
d="M910 -10q-100 0 -173 45q-18 -28 -22 -47.5t-4 -52.5q0 -8 -6.5 -14.5t-15.5 -6.5q-23 0 -23 35q0 53 35 110q-69 61 -69 155q0 100 87 160q-11 27 -14 54q-64 -17 -125 -20q10 -41 10 -91q0 -145 -76.5 -236.5t-199.5 -91.5q-113 0 -193 82.5t-80 226.5q0 63 20.5 122
t54.5 95q7 7 16 7t15.5 -6.5t6.5 -15.5q0 -8 -6 -16q-28 -29 -45 -80t-17 -106q0 -126 67 -197t161 -71q103 0 167 80t64 207q0 54 -9 89q-113 -3 -200 17.5t-123 56.5q-28 28 -28 62q0 36 37.5 63.5t100.5 27.5q85 0 150.5 -47.5t95.5 -137.5q65 3 135 23q8 73 53 131
t103 58q29 0 46 -16.5t17 -43.5q0 -43 -48 -85.5t-127 -71.5q0 -23 9 -48q58 24 115 24q63 0 91 -24t28 -56t-26 -51.5t-68 -19.5q-100 0 -156 69q-65 -43 -65 -123q0 -73 53 -120q35 45 90.5 70.5t109.5 25.5q68 0 100 -34q27 -29 27 -68q0 -44 -38 -71t-108 -27zM912 31
q47 0 73.5 15t26.5 43q0 25 -22 42.5t-61 17.5q-47 0 -92 -21t-75 -59q69 -38 150 -38zM779 357q42 -48 118 -48q23 0 36.5 8.5t13.5 21.5q0 39 -75 39q-56 0 -93 -21zM751 486q57 23 92 54.5t35 59.5q0 6 -5.5 11.5t-12.5 5.5q-35 0 -67 -38t-42 -93zM524 447
q-31 76 -87 110.5t-115 34.5q-36 0 -64 -13t-28 -38q0 -39 81 -67.5t213 -26.5z" />
    <glyph glyph-name="oe" unicode="&#x153;" horiz-adv-x="531" 
d="M376 185q38 2 68 23t30 53q0 16 -10.5 26t-29.5 10q-43 0 -82.5 -48.5t-39.5 -125.5q0 -41 21.5 -68t62.5 -27q40 0 62 28q8 8 16 8q21 0 21 -20q0 -16 -27.5 -36.5t-73.5 -20.5q-39 0 -69.5 19t-43.5 56q-43 -80 -122 -80q-54 0 -86.5 41.5t-32.5 113.5q0 49 15 84
q5 14 21 14q19 0 19 -23q0 -2 -2 -8q-8 -27 -8 -67q0 -48 18.5 -81t56.5 -33q54 0 83.5 57.5t29.5 122.5q0 37 -14.5 66.5t-47.5 29.5q-27 0 -41 -15.5t-14 -37.5q0 -10 5.5 -17.5t12.5 -7.5q6 0 11 6q7 5 15 5q22 0 22 -20q0 -14 -15.5 -23.5t-32.5 -9.5q-25 0 -44 19.5
t-19 45.5q0 38 27 67t73 29q34 0 60.5 -21t37.5 -60q22 38 55.5 58.5t69.5 20.5q41 0 63 -21.5t22 -55.5q0 -54 -45 -85t-97 -31q-22 0 -22 18q0 9 6.5 15.5t14.5 6.5z" />
    <glyph glyph-name="Scaron" unicode="&#x160;" horiz-adv-x="579" 
d="M331 378q32 -11 50 -18t47.5 -21t46.5 -28.5t35 -35t26.5 -47.5t8.5 -59q0 -52 -30.5 -94.5t-89.5 -66.5q-10 -45 -36 -81t-48 -50.5t-33 -14.5q-23 0 -23 20q0 15 14 21q53 22 77 89q-27 -6 -50 -8q-27 -3 -58 -3q-99 0 -167 43.5t-68 113.5q0 56 48.5 95t118.5 39
q97 0 162.5 -61t67.5 -154q33 17 52 47t19 65q0 66 -45 101.5t-139 67.5q-45 15 -68 25t-53.5 29t-44 44.5t-13.5 60.5q0 61 53 105.5t147 44.5q31 0 65 -9q45 37 107 37q10 0 16.5 -6t6.5 -16q0 -18 -24 -18q-34 0 -62 -18q14 -10 19 -15q37 -36 37 -86q0 -28 -19 -49.5
t-48 -21.5q-34 0 -58 25.5t-24 65.5q0 38 19 67q-22 4 -36 4q-73 0 -113.5 -33t-40.5 -77q0 -42 34.5 -66t113.5 -53zM459 516q0 47 -45 75q-16 -24 -16 -55q0 -21 11.5 -35.5t26.5 -14.5q23 0 23 30zM200 230q-50 0 -86.5 -26.5t-36.5 -66.5q0 -49 55 -82.5t136 -33.5
q70 0 119 16q5 83 -45.5 138t-141.5 55zM409 792q3 2 12 2q22 0 22 -16q0 -15 -10 -19q-27 -17 -75 -58q-10 -8 -18 -8t-49 22.5t-58 35.5q-10 6 -10 18q0 6 6.5 11.5t15.5 5.5q8 0 13 -4q31 -22 79 -47q44 38 72 57z" />
    <glyph glyph-name="scaron" unicode="&#x161;" horiz-adv-x="285" 
d="M90 141q36 0 36 -26q0 -11 -7 -15.5t-13 -3.5q-1 0 -6.5 1.5t-9.5 1.5q-24 0 -24 -29q0 -18 19.5 -33t45.5 -15q30 0 52 17t22 49q0 46 -57 76q-73 39 -73 94q0 33 25.5 58.5t69.5 25.5q40 0 61.5 -21t21.5 -39q0 -10 -6.5 -16.5t-16.5 -6.5q-15 0 -18 13
q-3 11 -14.5 21.5t-28.5 10.5q-23 0 -36.5 -13t-13.5 -33q0 -15 10 -26t39 -29q41 -24 61.5 -48.5t20.5 -60.5q0 -48 -32 -78t-88 -30q-44 0 -76.5 23.5t-32.5 59.5q0 31 20 51.5t49 20.5zM168 388q-9 0 -13 4q-9 9 -22.5 24.5t-24 25t-23.5 17.5q-11 6 -11 19q0 6 7 11.5
t16 5.5q5 0 12 -4.5t16.5 -13.5t17 -16t17 -17t12.5 -13q14 10 35.5 27.5t32.5 24.5q6 3 15 3q8 0 14 -5.5t6 -11.5q0 -11 -10 -18q-7 -4 -31 -21.5t-43 -29.5t-23 -12z" />
    <glyph glyph-name="Ydieresis" unicode="&#x178;" horiz-adv-x="687" 
d="M378 112q62 0 139 92q-4 108 -4 118q0 55 1.5 92t8 77.5t18 64.5t32.5 39.5t50 15.5q23 0 43 -17q26 -22 26 -82q0 -66 -37.5 -155.5t-93.5 -161.5q2 -38 2 -44q0 -89 -22.5 -160t-58.5 -116t-84.5 -75t-97.5 -42.5t-101 -12.5q-81 0 -140 44t-59 126q0 50 31.5 86
t75.5 36q35 0 60 -23.5t25 -60.5q0 -58 -29 -58q-9 0 -16 6.5t-7 15.5q0 4 2 8q5 17 5 28q0 20 -12 31t-28 11q-25 0 -44 -23t-19 -57q0 -46 27.5 -76.5t60.5 -41.5t67 -11q63 0 118 20.5t100.5 62.5t73 113.5t28.5 165.5q-78 -78 -148 -78q-30 0 -52 11t-35.5 32.5
t-21.5 43.5t-11.5 55t-4.5 54.5t-1 54.5v63q0 23 -2 59q-31 -11 -65 -11q-61 0 -101 34.5t-40 88.5q0 42 29 71t74 29q44 0 82.5 -33t54.5 -109q49 47 49 129q0 2 -1.5 17t-1.5 18q0 9 5.5 15.5t14.5 6.5t15 -4t8 -14t2.5 -17.5t0.5 -21.5q0 -51 -21 -98.5t-63 -78.5
q4 -33 4 -167q0 -103 21.5 -144.5t67.5 -41.5zM557 322q0 -5 1 -27t1 -35q39 62 64 133t25 120q0 57 -30 57q-34 0 -47.5 -61t-13.5 -187zM237 485q-22 129 -97 129q-25 0 -41.5 -17.5t-16.5 -41.5q0 -37 27.5 -59.5t69.5 -22.5q33 0 58 12zM547 769v-7q0 -1 1 -7t1 -7
q0 -9 -6.5 -15.5t-15.5 -6.5q-11 0 -16.5 8.5t-6.5 17t-1 26.5q0 2 -1 8.5t-1 7.5q0 9 6.5 15.5t15.5 6.5q26 0 24 -47zM439 769v-7q0 -1 1 -7t1 -7q0 -9 -6.5 -15.5t-15.5 -6.5q-11 0 -16.5 8.5t-6.5 17t-1 26.5q0 2 -1 8.5t-1 7.5q0 9 6.5 15.5t15.5 6.5q26 0 24 -47z" />
    <glyph glyph-name="Zcaron" unicode="&#x17d;" horiz-adv-x="790" 
d="M371 51l52 -33q108 -69 188 -69q47 0 76.5 25t29.5 66q0 28 -16.5 49t-46.5 21q-9 0 -15.5 6.5t-6.5 15.5t6.5 15.5t15.5 6.5q49 0 78 -33t29 -81q0 -56 -42.5 -94.5t-106.5 -38.5q-40 0 -79 11.5t-66 25.5t-81 46q-129 75 -153 87q-77 -87 -163 -87q-29 0 -49.5 17
t-20.5 46q0 41 33.5 69.5t95.5 28.5q40 0 93 -21q50 57 133 192l19 31q46 76 91 136q-46 20 -139 74q-22 -42 -62.5 -65.5t-84.5 -23.5q-51 0 -83 25t-32 69q0 42 30 66.5t75 24.5q63 0 134 -38q8 26 8 49q0 45 -26 76q-5 8 -5 14q0 10 6.5 16.5t14.5 6.5q19 0 36 -36
t17 -78q0 -37 -10 -68q15 -8 44 -24.5t52.5 -28.5t52.5 -23q38 46 70 69.5t70 23.5q62 0 62 -60q0 -41 -35.5 -67t-89.5 -26q-28 0 -61 10q-43 -54 -101 -147l-21 -34q-86 -139 -122 -183q48 -24 106 -60zM630 577q-40 0 -94 -66q16 -4 31 -4q84 0 84 49q0 8 -5.5 14.5
t-15.5 6.5zM179 516q35 0 64.5 19.5t44.5 46.5q-72 36 -118 36q-26 0 -43.5 -14.5t-17.5 -35.5q0 -24 19 -38t51 -14zM45 55q0 -9 8.5 -16.5t22.5 -7.5q53 0 115 64q-39 14 -65 14q-40 0 -60.5 -16t-20.5 -38zM560 792q3 2 12 2q22 0 22 -16q0 -15 -10 -19q-27 -17 -75 -58
q-10 -8 -18 -8t-49 22.5t-58 35.5q-10 6 -10 18q0 6 6.5 11.5t15.5 5.5q8 0 13 -4q31 -22 79 -47q44 38 72 57z" />
    <glyph glyph-name="zcaron" unicode="&#x17e;" horiz-adv-x="336" 
d="M245 332l3 3q5 5 14 5q25 0 25 -22q0 -8 -5 -16q-51 -56 -106 -133q-53 -74 -101 -120q51 10 122 -4q33 -7 50 -7q21 0 26.5 6.5t5.5 23.5q0 20 19 22q14 3 19.5 -6t5.5 -21q0 -31 -21 -48.5t-55 -17.5q-10 0 -57 7q-50 10 -79 10q-37 0 -71 -11q-1 -1 -8 -1
q-9 0 -15.5 6.5t-6.5 14.5q0 9 5 16q63 65 126 155q26 37 76 93q-11 0 -56.5 5t-52.5 5q-20 0 -25 -11q-6 -13 -20 -13q-9 0 -16 6.5t-7 15.5q0 7 5.5 16t22 18.5t40.5 9.5q7 0 53 -6t54 -6q22 0 30 5zM184 388q-9 0 -13 4q-9 9 -22.5 24.5t-24 25t-23.5 17.5q-11 6 -11 19
q0 6 7 11.5t16 5.5q5 0 12 -4.5t16.5 -13.5t17 -16t17 -17t12.5 -13q14 10 35.5 27.5t32.5 24.5q6 3 15 3q8 0 14 -5.5t6 -11.5q0 -11 -10 -18q-7 -4 -31 -21.5t-43 -29.5t-23 -12z" />
    <glyph glyph-name="florin" unicode="&#x192;" horiz-adv-x="390" 
d="M401 501q0 -31 -23 -55t-54 -24q-21 0 -36.5 8.5t-15.5 23.5q0 9 6 15t16 6q8 0 15 -5q9 -6 15 -6q13 0 22.5 10.5t9.5 26.5q0 21 -16.5 39.5t-44.5 18.5q-130 0 -116 -245q54 4 78 4q46 0 76 -9q17 -3 17 -19q0 -9 -7 -14.5t-16 -5.5q-4 0 -6 1q-24 6 -63 6
q-11 0 -24 -0.5t-28.5 -1.5t-24.5 -1q7 -119 7 -148q0 -134 -41 -207.5t-124 -73.5q-43 0 -73 26.5t-30 64.5q0 30 19 52.5t44 22.5q11 0 17.5 -7t6.5 -15t-6.5 -15t-17.5 -7q-6 0 -12 -9t-6 -22q0 -20 17.5 -35t41.5 -15q44 0 72 33q47 53 47 212q0 35 -7 140
q-36 -2 -51 -2h-7q-19 0 -27 0.5t-15.5 5.5t-7.5 16q0 21 22 21q2 0 17 -1t18 -1q14 0 50 2q-12 143 34 215.5t128 72.5q46 0 75 -27t29 -72z" />
    <glyph glyph-name="circumflex" unicode="&#x2c6;" horiz-adv-x="290" 
d="M152 513q9 0 13 -4q9 -9 22.5 -24.5t24 -25t23.5 -17.5q11 -6 11 -19q0 -6 -7 -11.5t-16 -5.5q-5 0 -12 4.5t-16.5 13.5t-17 16t-17 17t-12.5 13q-14 -10 -35.5 -27.5t-32.5 -24.5q-6 -3 -15 -3q-8 0 -14 5.5t-6 11.5q0 11 10 18q7 4 31 21.5t43 29.5t23 12z" />
    <glyph glyph-name="caron" unicode="&#x2c7;" horiz-adv-x="289" 
d="M155 388q-9 0 -13 4q-9 9 -22.5 24.5t-24 25t-23.5 17.5q-11 6 -11 19q0 6 7 11.5t16 5.5q5 0 12 -4.5t16.5 -13.5t17 -16t17 -17t12.5 -13q14 10 35.5 27.5t32.5 24.5q6 3 15 3q8 0 14 -5.5t6 -11.5q0 -11 -10 -18q-7 -4 -31 -21.5t-43 -29.5t-23 -12z" />
    <glyph glyph-name="uni02C9" unicode="&#x2c9;" horiz-adv-x="237" 
d="M184 475q10 3 19 -2.5t9 -12.5q0 -19 -17 -21q-36 -9 -75 -9q-5 0 -36 2t-38 2q-9 0 -15.5 5t-6.5 12q0 8 6.5 14.5t15.5 6.5q5 0 36 -2t38 -2q30 0 64 7z" />
    <glyph glyph-name="breve" unicode="&#x2d8;" horiz-adv-x="292" 
d="M138 447q53 0 69 49q5 16 19 16q7 0 12 -4q7 -5 7 -11q0 -9 -3 -16q-30 -71 -104 -71q-42 0 -66.5 28.5t-23.5 56.5q0 22 18 22t20 -17q2 -21 17 -37t35 -16z" />
    <glyph glyph-name="dotaccent" unicode="&#x2d9;" horiz-adv-x="122" 
d="M37 479l-1 16q0 9 6.5 15.5t15.5 6.5q25 0 23 -47v-7q0 -1 1.5 -7t1.5 -7q0 -9 -6.5 -15.5t-16.5 -6.5q-11 0 -16.5 8.5t-6.5 17t-1 26.5z" />
    <glyph glyph-name="ring" unicode="&#x2da;" horiz-adv-x="267" 
d="M134 399q-36 0 -58.5 20.5t-22.5 49.5q0 25 13.5 45.5t28.5 20.5q23 0 23 -17q0 -9 -14 -18q-12 -7 -12 -31q0 -15 13 -23.5t28 -8.5q20 0 31 12.5t11 30.5q0 7 -6.5 17t-15.5 10t-16 6.5t-7 15.5q0 15 22 15q25 1 44 -19.5t19 -44.5q0 -32 -24.5 -56.5t-56.5 -24.5z" />
    <glyph glyph-name="ogonek" unicode="&#x2db;" horiz-adv-x="201" 
d="M107 -162q-31 0 -53 19.5t-22 50.5q0 45 40 83t61 42l7 -30q-69 -47 -69 -89q0 -40 31 -40q10 0 15 4q8 4 15 4q19 0 19 -19q0 -12 -14 -18.5t-30 -6.5z" />
    <glyph glyph-name="tilde" unicode="&#x2dc;" horiz-adv-x="326" 
d="M214 416q-35 0 -56 20q-20 19 -36 19q-18 0 -29 -35q-3 -10 -16 -10q-9 0 -14.5 6.5t-5.5 15.5q0 16 19.5 38t44.5 22q29 0 54 -22q18 -17 34 -17q14 0 23 25q5 13 18 13q7 0 12 -4q7 -4 7 -19q0 -13 -16 -32.5t-39 -19.5z" />
    <glyph glyph-name="hungarumlaut" unicode="&#x2dd;" horiz-adv-x="356" 
d="M166 518q18 0 18 -21q0 -8 -5 -13q-28 -36 -99 -93q-6 -5 -15 -5q-5 0 -10.5 7t-5.5 13q0 13 8 17q66 54 92 87q8 8 17 8zM252 481q18 10 36 23q7 5 13 5q17 0 17 -21q0 -10 -9 -17.5t-40 -25.5q-54 -36 -65 -45q-6 -5 -15 -5q-5 0 -11 6.5t-6 13.5q0 9 9 18q32 25 71 48
z" />
    <glyph glyph-name="uni03A9" unicode="&#x3a9;" horiz-adv-x="740" 
d="M215 33v2q-63 44 -104 114.5t-41 160.5q0 128 88 211.5t214 83.5q128 0 212.5 -87t84.5 -205q0 -93 -43 -166.5t-103 -111.5v-2h160v-33h-228v24q72 36 122 109.5t50 175.5q0 99 -69.5 181t-185.5 82q-115 0 -187.5 -78t-72.5 -187q0 -97 50.5 -172.5t121.5 -110.5v-24
h-228v33h159z" />
    <glyph glyph-name="uni03BC" unicode="&#x3bc;" horiz-adv-x="382" 
d="M139 322v-3q-22 -141 -22 -188q0 -92 41 -92q42 0 79.5 73.5t60.5 199.5q4 23 25 18q19 -3 19 -21q0 -1 -2 -14t-2 -15q-25 -132 -25 -187q0 -42 9 -61q3 -6 3 -10q0 -10 -6.5 -16.5t-16.5 -6.5q-30 0 -33 86q-44 -90 -111 -90q-46 0 -65 46q-27 -162 -48 -208
q-6 -13 -20 -13q-9 0 -15.5 6.5t-6.5 15.5q0 2 0.5 5t0.5 4q31 68 68 333l3 24q16 113 21 123q7 14 20 14q10 0 16.5 -7t6.5 -16z" />
    <glyph glyph-name="pi" unicode="&#x3c0;" horiz-adv-x="552" 
d="M527 406h-89v-274q0 -85 15 -132h-41q-16 24 -16 124v282h-212q-6 -99 -29 -226.5t-50 -179.5h-42q28 61 50.5 182.5t28.5 223.5q-86 0 -123 -14l-9 27q46 21 131 21h391z" />
    <glyph glyph-name="uni2010" unicode="&#x2010;" horiz-adv-x="307" 
d="M171 216l-72 1q-31 0 -39 -2q-10 -4 -18 2.5t-8 16.5q0 18 14 22t51 4l72 -1q55 0 72 5q4 2 7 2q9 0 15.5 -7t6.5 -15q0 -32 -101 -28z" />
    <glyph glyph-name="endash" unicode="&#x2013;" horiz-adv-x="450" 
d="M425 255q1 -2 1 -7q0 -14 -14 -21q-24 -11 -123 -11q-14 0 -77.5 1t-81.5 1q-60 0 -82 -3q-1 -1 -5 -1q-8 0 -14.5 6.5t-6.5 15.5q0 19 17 22q24 5 91 5q15 0 78 -1t80 -1q86 0 108 8q3 1 7 1q15 0 22 -15z" />
    <glyph glyph-name="emdash" unicode="&#x2014;" horiz-adv-x="800" 
d="M753 273h3q9 0 15.5 -6.5t6.5 -15.5q0 -19 -19 -22q-108 -13 -287 -13h-311q-96 0 -112 -2h-3q-9 0 -15.5 6.5t-6.5 15.5q0 19 19 22q24 4 119 4q21 0 151.5 -1t153.5 -1q111 0 286 13z" />
    <glyph glyph-name="quoteleft" unicode="&#x2018;" horiz-adv-x="80" 
d="M39 602q5 7 16 7q10 0 16 -6.5t6 -15.5q0 -10 -6 -15q-14 -15 -23 -76q-3 -19 -23 -19q-8 0 -14.5 7t-6.5 16q0 19 11 53.5t24 48.5z" />
    <glyph glyph-name="quoteright" unicode="&#x2019;" horiz-adv-x="80" 
d="M56 612q9 0 15.5 -6.5t6.5 -15.5q0 -114 -37 -114q-10 0 -16.5 6.5t-6.5 16.5q0 7 4 12q12 17 12 79q0 9 6.5 15.5t15.5 6.5z" />
    <glyph glyph-name="quotesinglbase" unicode="&#x201a;" horiz-adv-x="80" 
d="M56 60q9 0 15.5 -6.5t6.5 -15.5q0 -114 -37 -114q-10 0 -16.5 6.5t-6.5 16.5q0 7 4 12q12 16 12 79q0 9 6.5 15.5t15.5 6.5z" />
    <glyph glyph-name="quotedblleft" unicode="&#x201c;" horiz-adv-x="165" 
d="M124 602q5 7 17 7q9 0 15 -6.5t6 -15.5q0 -10 -5 -15q-13 -13 -24 -76q-3 -19 -22 -19q-9 0 -15.5 7t-6.5 16q0 19 11 53.5t24 48.5zM40 602q6 7 16 7q9 0 16 -6.5t7 -15.5q0 -8 -7 -15q-14 -15 -23 -76q-1 -8 -7.5 -13.5t-14.5 -5.5q-10 0 -16.5 7t-6.5 16q0 20 11.5 54
t24.5 48z" />
    <glyph glyph-name="quotedblright" unicode="&#x201d;" horiz-adv-x="165" 
d="M143 613q9 0 15.5 -6.5t6.5 -15.5q0 -113 -38 -113q-8 0 -15 6.5t-7 15.5q0 4 4 12q11 19 11 79q0 9 6.5 15.5t16.5 6.5zM21 509q12 19 12 79q0 9 6.5 15.5t14.5 6.5q10 0 16.5 -6.5t6.5 -15.5q0 -114 -37 -114q-10 0 -16 6.5t-6 16.5q0 8 3 12z" />
    <glyph glyph-name="quotedblbase" unicode="&#x201e;" horiz-adv-x="165" 
d="M143 61q9 0 15.5 -6.5t6.5 -15.5q0 -113 -38 -113q-8 0 -15 6.5t-7 15.5q0 4 4 12q11 19 11 79q0 9 6.5 15.5t16.5 6.5zM21 -43q12 19 12 79q0 9 6.5 15.5t14.5 6.5q10 0 16.5 -6.5t6.5 -15.5q0 -114 -37 -114q-10 0 -16 6.5t-6 16.5q0 8 3 12z" />
    <glyph glyph-name="dagger" unicode="&#x2020;" horiz-adv-x="340" 
d="M136 -124q-30 0 -30 72q0 36 7.5 90t22 139t19.5 122l5 28h-31q-51 0 -59 -2q-10 -4 -18 2.5t-8 16.5q0 18 16.5 22t68.5 4h38q24 149 24 162q0 31 -4 38q-2 6 -2 8q0 16 14 21q4 2 9 2q10 0 15.5 -5.5t8 -17.5t3 -21t0.5 -25q0 -23 -23 -163q84 0 101 5q4 2 7 2
q9 0 15.5 -7t6.5 -15q0 -19 -31.5 -24t-99.5 -3h-6l-3 -15q-7 -47 -21 -131.5t-22 -140.5t-8 -92q0 -28 4 -40q3 -4 3 -10q0 -10 -6.5 -16t-15.5 -6z" />
    <glyph glyph-name="daggerdbl" unicode="&#x2021;" horiz-adv-x="340" 
d="M136 -124q-30 0 -30 72q0 58 25 199h-47q-31 0 -39 -2q-10 -4 -18 2.5t-8 16.5q0 18 14 22t51 4h54q3 18 9 54.5t9 54.5l6 38h-33q-51 0 -59 -2q-10 -4 -18 2.5t-8 16.5q0 18 16.5 22t68.5 4h40q22 140 22 152q0 31 -4 38q-2 6 -2 8q0 16 14 21q4 2 9 2q10 0 15.5 -5.5
t8 -17.5t3 -21t0.5 -25q0 -21 -21 -153q82 0 99 5q4 2 7 2q9 0 15.5 -7t6.5 -15q0 -19 -31.5 -24t-97.5 -3h-6l-5 -25q-8 -57 -20 -123h29q55 0 72 5q4 2 7 2q9 0 15.5 -7t6.5 -15q0 -31 -101 -27h-36q-24 -150 -24 -199q0 -28 4 -40q3 -4 3 -10q0 -10 -6.5 -16t-15.5 -6z
" />
    <glyph glyph-name="bullet" unicode="&#x2022;" horiz-adv-x="208" 
d="M79 256q-21 0 -35.5 15t-14.5 34q0 29 21 49t50 20q39 0 60.5 -22.5t21.5 -63.5q0 -36 -28 -62t-68 -26q-25 0 -25 20q0 19 25 19q22 0 38 14.5t16 35.5t-10.5 32t-26.5 11q-13 0 -22.5 -7.5t-9.5 -18.5q0 -2 1.5 -4t3.5 -2.5t3 0.5l2 3q8 12 20 12q10 0 16 -7t6 -16
q0 -14 -12 -25t-32 -11z" />
    <glyph glyph-name="ellipsis" unicode="&#x2026;" horiz-adv-x="800" 
d="M108 11l4 34q4 21 29 18q10 -1 16 -8.5t5 -16.5l-5 -34q-3 -18 -25 -18q-12 0 -19 7t-5 18zM373 11l4 34q4 21 29 18q10 -1 16 -8.5t5 -16.5l-5 -34q-3 -18 -25 -18q-12 0 -19 7t-5 18zM638 11l4 34q4 21 29 18q10 -1 16 -8.5t5 -16.5l-5 -34q-3 -18 -25 -18q-12 0 -19 7
t-5 18z" />
    <glyph glyph-name="perthousand" unicode="&#x2030;" horiz-adv-x="1102" 
d="M159 252q-53 0 -84 38t-31 106q0 49 19 94q7 13 20 13q9 0 15.5 -6.5t6.5 -15.5q0 -7 -2 -9q-16 -38 -16 -76q0 -42 19 -72.5t56 -30.5q48 0 80 47.5t37 104.5q-24 -3 -49 -3q-46 0 -78.5 22t-32.5 56q0 32 26 56t72 24q40 0 69 -30t37 -77q108 26 223 140q6 6 16 6
q9 0 15.5 -6.5t6.5 -15.5q0 -5 -3 -11q-91 -152 -171 -339.5t-99 -304.5q-4 -19 -22 -19q-20 0 -20 23q0 45 64 219t164 350q-88 -62 -174 -83q-3 -76 -49 -138t-115 -62zM278 486q-4 31 -20 52.5t-41 21.5t-39.5 -10.5t-14.5 -27.5q0 -14 20 -26.5t47 -12.5q24 0 48 3z
M533 241q0 38 27 68.5t70 30.5q49 0 78 -38t29 -99q0 -84 -46 -147.5t-120 -63.5q-51 0 -82.5 40t-31.5 104q-2 48 18 90q6 14 20 14q9 0 15.5 -6.5t6.5 -16.5q0 -2 -2 -8q-15 -36 -15 -73q0 -42 19.5 -72.5t55.5 -30.5q52 0 85 51.5t33 118.5q0 37 -15 66t-48 29
q-24 0 -39 -18t-15 -39q0 -34 36 -44q16 -5 16 -22q0 -8 -6.5 -14.5t-15.5 -6.5q-6 0 -20.5 4.5t-33.5 26t-19 56.5zM863 241q0 38 27 68.5t70 30.5q49 0 78 -38t29 -99q0 -84 -46 -147.5t-120 -63.5q-51 0 -82.5 40t-31.5 104q-2 48 18 90q6 14 20 14q9 0 15.5 -6.5
t6.5 -16.5q0 -2 -2 -8q-15 -36 -15 -73q0 -42 19.5 -72.5t55.5 -30.5q52 0 85 51.5t33 118.5q0 37 -15 66t-48 29q-24 0 -39 -18t-15 -39q0 -34 36 -44q16 -5 16 -22q0 -8 -6.5 -14.5t-15.5 -6.5q-6 0 -20.5 4.5t-33.5 26t-19 56.5z" />
    <glyph glyph-name="guilsinglleft" unicode="&#x2039;" horiz-adv-x="204" 
d="M126 175q18 -13 25 -18.5t11.5 -12t4.5 -13.5q0 -9 -6 -15.5t-15 -6.5t-16 7q-15 12 -30 22q-49 35 -68 54q-7 5 -7 16q0 9 9 18q12 8 49 51q26 32 34 39.5t16 7.5q10 0 16.5 -6.5t6.5 -15.5q0 -8 -6 -15q-3 -3 -19 -21.5t-31.5 -35.5t-20.5 -22q18 -14 47 -33z" />
    <glyph glyph-name="guilsinglright" unicode="&#x203a;" horiz-adv-x="204" 
d="M124 222l-19 16q-24 19 -50 48q-7 7 -7 16q0 8 6.5 14.5t16.5 6.5q12 0 16 -7q6 -7 42.5 -41t42.5 -40q6 -10 6 -15q0 -11 -10 -18q-39 -27 -82 -75q-16 -19 -27 -19q-9 0 -15.5 6.5t-6.5 15.5q0 8 16 27q34 37 71 65z" />
    <glyph glyph-name="fraction" unicode="&#x2044;" horiz-adv-x="365" 
d="M0 6v5q13 52 51.5 132t71 137t95.5 165q88 150 110 185q8 12 20 12q7 0 12 -6.5t5 -14.5q0 -7 -7 -18q-29 -50 -107 -179q-189 -317 -214 -424q-2 -9 -9.5 -13.5t-14.5 -2.5q-13 6 -13 22z" />
    <glyph glyph-name="Euro" unicode="&#x20ac;" horiz-adv-x="623" 
d="M246 216l-78 -5q-38 -2 -54 -2q19 -82 78.5 -131t148.5 -49q135 0 197 90q7 10 19 10q8 0 14.5 -6.5t6.5 -16.5q0 -6 -8 -19t-27.5 -30.5t-45.5 -33t-67.5 -26.5t-88.5 -11q-109 0 -180 61t-92 162q-33 0 -46 4.5t-13 18.5q0 9 7 15.5t16 6.5h4q7 -2 25 -4q-1 12 -1 37
v17q-51 3 -51 23q0 9 7 15.5t16 6.5h4q6 -2 11 -2q3 -1 8.5 -1.5t8.5 -0.5q16 120 96 200.5t212 84.5q19 46 58.5 72t86.5 26q57 0 57 -27q0 -20 -22 -20q-2 0 -17 2t-18 2q-64 0 -94 -54q85 0 127.5 -32t42.5 -90q0 -43 -32 -71t-82 -28q-62 0 -91.5 41t-29.5 109
q0 10 2 26q-105 -10 -170 -78t-81 -164q40 0 108 4l79 5q93 6 141 4q10 0 16 -6.5t6 -15.5q0 -5 -1 -8t-3.5 -5t-4.5 -3t-6.5 -1.5t-7 -0.5h-8.5h-9q-38 0 -144 -6l-88 -5q-52 -2 -83 -2v-17q0 -26 2 -38q29 0 91 4l69 5q73 6 131 4q10 0 16 -6.5t6 -15.5q0 -5 -1 -8
t-3.5 -5t-4.5 -3t-6.5 -1.5t-7 -0.5h-8.5h-9q-28 0 -134 -6zM480 453q35 0 51.5 18.5t16.5 37.5q0 81 -141 81q-3 -14 -3 -30q0 -49 20 -78t56 -29z" />
    <glyph glyph-name="afii61289" unicode="&#x2113;" horiz-adv-x="462" 
d="M412 121l25 -18q-62 -111 -175 -111q-74 0 -113 47.5t-42 115.5v10q-10 -7 -31 -23.5t-29 -22.5l-16 27q11 9 37 29t39 31v248q0 108 41 154.5t96 46.5q56 0 85 -39t29 -97q0 -80 -54.5 -159.5t-157.5 -169.5v-19q0 -73 36.5 -110t86.5 -37q47 0 85 29.5t58 67.5z
M146 461v-229q87 83 132.5 149t45.5 133q0 109 -83 109q-36 0 -65.5 -39t-29.5 -123z" />
    <glyph glyph-name="trademark" unicode="&#x2122;" horiz-adv-x="620" 
d="M139 632q39 0 133 -3q45 -1 42 -66q17 34 41.5 52t43.5 18q23 0 40 -18.5t19 -55.5q15 32 40 54t52 22q21 0 41.5 -21.5t20.5 -72.5q0 -63 -24 -162q-4 -14 -22 -14q-20 0 -20 14q0 3 3 10.5t3 10.5q1 4 5 22t7 33.5t5.5 39t2.5 44.5q0 22 -7.5 38t-19.5 16
q-29 0 -56.5 -43t-39.5 -118q-2 -10 -5.5 -26t-4.5 -18q-3 -15 -17 -15q-9 0 -14.5 6t-5.5 13q0 8 9 51q11 55 11 93q0 57 -29 57q-27 0 -59 -54.5t-51 -155.5q-3 -16 -19 -16q-19 0 -19 21q0 4 2 12.5t5.5 22t5.5 22.5q18 81 18 105q0 35 -10 42q-101 2 -117 1
q-31 -75 -31 -131q0 -52 35 -56q7 0 12.5 -5.5t5.5 -13.5q0 -19 -20 -21q-5 1 -6 1q-33 5 -49.5 30t-16.5 62q0 32 29 133q-35 -2 -48 -5q-7 -2 -14.5 -9t-8.5 -12q-4 -16 -18 -16q-20 0 -20 21t19 37q28 24 121 24z" />
    <glyph glyph-name="Omega" unicode="&#x2126;" horiz-adv-x="740" 
d="M215 33v2q-63 44 -104 114.5t-41 160.5q0 128 88 211.5t214 83.5q128 0 212.5 -87t84.5 -205q0 -93 -43 -166.5t-103 -111.5v-2h160v-33h-228v24q72 36 122 109.5t50 175.5q0 99 -69.5 181t-185.5 82q-115 0 -187.5 -78t-72.5 -187q0 -97 50.5 -172.5t121.5 -110.5v-24
h-228v33h159z" />
    <glyph glyph-name="estimated" unicode="&#x212e;" horiz-adv-x="745" 
d="M715 287h-556q-4 0 -4 -3v-169q0 -9 7 -19q88 -91 210 -91q133 0 222 102h49q-47 -55 -118.5 -87t-152.5 -32q-143 0 -243 90t-100 218t100.5 218.5t242.5 90.5t242.5 -90.5t100.5 -218.5v-9zM589 309v169q0 12 -8 20q-90 88 -209 88q-121 0 -209 -90q-8 -10 -8 -21v-166
q0 -5 4 -5h427q3 0 3 5z" />
    <glyph glyph-name="partialdiff" unicode="&#x2202;" horiz-adv-x="527" 
d="M100 586l-19 26q63 49 156 49q97 0 167 -86t70 -237q0 -65 -15 -126t-44 -111t-78 -80.5t-110 -30.5q-88 0 -135.5 60.5t-47.5 136.5q0 93 61 152t145 59q67 0 114.5 -36t66.5 -69h1q1 14 1 49q0 131 -59 209t-139 78q-77 0 -135 -43zM229 22h1q77 0 129 66t65 160
q-16 41 -62.5 79t-107.5 38q-68 0 -118.5 -51t-50.5 -124q0 -71 40 -119.5t104 -48.5z" />
    <glyph glyph-name="Delta" unicode="&#x2206;" horiz-adv-x="647" 
d="M32 0v36l268 578h48l266 -578v-36h-582zM74 33h494l-168 369q-6 15 -37 82t-39 89h-4q-4 -12 -16.5 -39.5t-28 -62t-22.5 -50.5z" />
    <glyph glyph-name="product" unicode="&#x220f;" horiz-adv-x="687" 
d="M662 558h-118v-640h-41v640h-320v-640h-40v640h-118v36h637v-36z" />
    <glyph glyph-name="summation" unicode="&#x2211;" horiz-adv-x="549" 
d="M523 -82h-502v27l284 309l-271 313v27h477v-36h-414v-3l258 -297l-274 -299v-3h442v-38z" />
    <glyph glyph-name="minus" unicode="&#x2212;" 
d="M398 181h-364v42h364v-42z" />
    <glyph glyph-name="uni2215" unicode="&#x2215;" horiz-adv-x="365" 
d="M0 6v5q13 52 51.5 132t71 137t95.5 165q88 150 110 185q8 12 20 12q7 0 12 -6.5t5 -14.5q0 -7 -7 -18q-29 -50 -107 -179q-189 -317 -214 -424q-2 -9 -9.5 -13.5t-14.5 -2.5q-13 6 -13 22z" />
    <glyph glyph-name="uni2219" unicode="&#x2219;" horiz-adv-x="130" 
d="M46 231l4 34q4 21 29 18q10 -1 16 -8.5t5 -16.5l-5 -34q-3 -18 -25 -18q-12 0 -19 7t-5 18z" />
    <glyph glyph-name="radical" unicode="&#x221a;" horiz-adv-x="545" 
d="M545 702l-219 -833h-43l-163 406l-74 -27l-12 28l112 43l143 -359q7 -21 14 -49h1q2 7 6 24t6 25l194 742h35z" />
    <glyph glyph-name="infinity" unicode="&#x221e;" horiz-adv-x="742" 
d="M691 247v-1q0 -62 -42 -102.5t-99 -40.5q-43 0 -79 27t-98 91q-62 -67 -93 -88q-44 -30 -91 -30q-56 0 -97 41.5t-41 98.5q0 61 41.5 102t103.5 41q26 0 50 -9.5t49 -30t39.5 -35.5t41.5 -44q29 32 42.5 45.5t38.5 35t49 30t52 8.5q61 0 97 -38.5t36 -100.5zM194 135h1
q19 0 37 6.5t36.5 20.5t30 24t31 30.5t25.5 26.5q-56 64 -82 83q-42 31 -86 31q-46 0 -73.5 -34t-27.5 -81q0 -45 30 -76t78 -31zM554 357h-1q-24 0 -50 -13.5t-41.5 -28t-38.5 -38.5t-30 -30q41 -43 61.5 -62t47.5 -34.5t53 -15.5q46 0 74 33t28 76q0 53 -29 83t-74 30z
" />
    <glyph glyph-name="integral" unicode="&#x222b;" horiz-adv-x="320" 
d="M309 707l-10 -29q-14 12 -38 12q-32 0 -50 -18q-37 -38 -37 -158q0 -66 6.5 -220t6.5 -219q0 -118 -44 -172q-28 -34 -78 -34q-36 0 -59 16l10 29q26 -13 48 -13q27 0 46 19q39 45 39 157q0 66 -7 221.5t-7 219.5q0 132 49 174q30 29 75 29q29 0 50 -14z" />
    <glyph glyph-name="approxequal" unicode="&#x2248;" horiz-adv-x="565" 
d="M493 369l19 -18q-47 -83 -121 -83q-7 0 -13 0.5t-13.5 2t-12 2.5t-12.5 4t-11.5 4.5t-13.5 6t-13 6.5t-15 8l-16 8q-60 32 -97 32q-53 0 -102 -72l-20 17q46 85 130 85q21 0 39.5 -6t45.5 -21t28 -15q5 -3 19 -10t20 -9.5t17 -6.5t21 -5.5t22 -1.5q31 0 53.5 17t45.5 55z
M493 214l19 -18q-47 -82 -121 -82q-20 0 -41 6.5t-33 12t-46 23.5q-64 32 -96 32q-23 0 -43 -11.5t-32 -24.5t-28 -36l-20 17q46 84 129 84q17 0 35 -5t28 -9.5t28 -14.5t23 -12q3 -2 13.5 -7t14 -7t12 -6t14 -5.5t13.5 -3.5t16 -3t17 -1q31 0 53 16.5t45 54.5z" />
    <glyph glyph-name="notequal" unicode="&#x2260;" horiz-adv-x="565" 
d="M392 450l-49 -103h170v-30h-184l-73 -149h257v-30h-271l-57 -120l-25 14l51 106h-160v30h174l72 149h-246v30h260l56 116z" />
    <glyph glyph-name="lessequal" unicode="&#x2264;" horiz-adv-x="565" 
d="M510 65l-452 212v32l452 212v-37l-415 -189v-2l415 -191v-37zM512 -4h-461v29h461v-29z" />
    <glyph glyph-name="greaterequal" unicode="&#x2265;" horiz-adv-x="565" 
d="M58 521l452 -212v-32l-452 -212v37l414 190v2l-414 190v37zM512 -4h-460v29h460v-29z" />
    <glyph glyph-name="lozenge" unicode="&#x25ca;" horiz-adv-x="547" 
d="M490 297l-201 -342h-33l-200 342l200 342h34zM450 296l-159 270q-12 22 -19 40h-1q-6 -15 -20 -40l-156 -268l159 -272q17 -32 18 -38h3q4 13 18 38z" />
    <glyph glyph-name="fi" unicode="&#xfb01;" horiz-adv-x="450" 
d="M50 -201q26 0 42 29.5t31 95.5q22 98 36 306q-70 -59 -107.5 -166.5t-37.5 -192.5q0 -31 10.5 -51.5t25.5 -20.5zM363 -13q-10 0 -16.5 6.5t-6.5 16.5q0 9 4 49.5t13.5 106.5t21.5 118q-18 5 -50 5q-26 0 -63 -8.5t-59 -22.5q-17 -250 -42 -350q-20 -77 -46 -114.5
t-72 -37.5q-33 0 -55.5 30.5t-22.5 84.5q0 63 18.5 138.5t64.5 155t110 119.5q8 110 16 158.5t28 95.5q19 42 53.5 69t75.5 27q40 0 62.5 -22.5t22.5 -54.5q0 -27 -15.5 -48t-29.5 -21q-7 0 -14 4.5t-7 11.5q0 18 12 26q9 7 9 27q0 13 -12.5 24.5t-32.5 11.5q-50 0 -83 -70
q-27 -59 -39 -220q20 12 57.5 20.5t72.5 8.5q40 0 71 -6q20 -3 20 -17q0 -6 -2 -14q-31 -113 -42 -287q-2 -21 -22 -21z" />
    <glyph glyph-name="fl" unicode="&#xfb02;" horiz-adv-x="450" 
d="M50 -201q26 0 42 29.5t31 95.5q22 96 37 317q-73 -63 -109.5 -169.5t-36.5 -195.5q0 -35 10.5 -56t25.5 -21zM47 -244q-33 0 -55.5 31.5t-22.5 88.5q0 66 18 141t64 155t112 122q7 106 15 151t30 91q21 44 64.5 71t91.5 27q49 0 80.5 -21.5t31.5 -65.5q0 -13 -1 -26
t-5 -31.5t-6 -28t-9.5 -38.5t-10.5 -41q-53 -217 -53 -314q0 -28 4 -40q3 -5 3 -10q0 -10 -6.5 -16t-15.5 -6q-30 0 -30 72q0 105 49 301q35 143 35 175q0 24 -20 36.5t-51 12.5q-32 0 -62 -18.5t-48 -53.5q-29 -56 -40 -207q38 15 82 15q41 0 41 -24q0 -9 -6 -14t-14 -5
h-13l-8 1q-48 0 -83 -18q-18 -262 -43 -361q-20 -77 -46 -114.5t-72 -37.5z" />
    <glyph glyph-name="a.superior" horiz-adv-x="313" 
d="M248 388h-1q3 -6 3 -11q0 -10 -6.5 -16t-15.5 -6q-26 0 -26 43q0 22 8 68q10 72 10 90q0 27 -12 40q-8 9 -24 9q-40 0 -72 -55.5t-32 -110.5q0 -44 26 -44q15 0 26.5 14t15.5 30q3 17 20 17q9 0 14.5 -6.5t5.5 -15.5q0 -21 -23.5 -51t-61.5 -30q-28 0 -48 20.5t-20 65.5
q0 69 44 138t107 69q36 0 57.5 -24t21.5 -66q0 -12 -11 -97q-8 -42 -8 -62q0 -5 2 -9zM159 286l-57 1q-19 0 -31 -2q-10 -2 -18.5 4.5t-8.5 16.5q0 8 3.5 12.5t12.5 6.5t16.5 2.5t25.5 0.5h56q47 0 57 3q4 2 7 2q9 0 16 -6.5t7 -16.5q0 -16 -19.5 -20t-66.5 -4z" />
    <glyph glyph-name="o.superior" horiz-adv-x="306" 
d="M108 563q0 34 21.5 59t54.5 25q40 0 65 -31.5t25 -82.5q0 -70 -38.5 -125.5t-98.5 -55.5q-44 0 -70.5 35t-26.5 93q0 33 10 69q3 17 21 17q10 0 16 -6.5t6 -15.5q0 -4 -1 -6q-7 -31 -7 -58q0 -37 13 -62t40 -25q40 0 65.5 42.5t25.5 97.5q0 73 -45 73q-13 0 -22.5 -11.5
t-9.5 -28.5q0 -24 29 -24q21 0 21 -20q0 -21 -26 -21q-28 0 -48 17.5t-20 44.5zM171 280h-58q-24 0 -30 -1q-11 -2 -18.5 5t-7.5 17q0 8 3 12.5t11.5 6t16.5 2t25 0.5l58 -1q43 0 56 5q6 2 7 2q9 0 15.5 -7t6.5 -16t-5 -14.5t-19 -7.5t-25 -2.5t-36 -0.5z" />
    <glyph glyph-name="one.superior" horiz-adv-x="260" 
d="M172 519v-25q0 -12 2 -49t2 -53q0 -68 -33 -68q-8 0 -13.5 6.5t-5.5 14.5q0 4 6 18t6 29t-2.5 61.5t-2.5 54.5q-40 -9 -87 -9q-20 0 -20 18q0 8 6 13.5t14 5.5q50 1 90 11q3 41 20 69t45 28q23 0 35.5 -13t12.5 -31q0 -56 -75 -81zM200 605q-16 0 -25 -44q33 17 33 38
q0 6 -8 6z" />
    <glyph glyph-name="two.superior" horiz-adv-x="320" 
d="M138 523v1q-4 5 -4 13t5.5 14t13.5 6q11 0 18 -10.5t7 -23.5q0 -22 -16 -39.5t-41 -17.5q-26 0 -45.5 19t-19.5 47q0 46 34.5 78t83.5 32q47 0 73.5 -28.5t26.5 -72.5q0 -40 -21.5 -86.5t-58.5 -82.5q29 -17 48 -17q40 0 40 43q0 21 18 21q19 0 19 -26q0 -35 -22 -55.5
t-55 -20.5q-38 0 -79 32q-41 -28 -79 -28q-26 0 -44.5 14t-18.5 36q0 25 19 42t46 17q30 0 76 -37q32 29 52 71t20 77q0 27 -15 45t-46 18q-35 0 -56 -20.5t-21 -51.5q0 -13 7.5 -20.5t17.5 -7.5q17 0 17 19zM84 360q25 0 46 12q-25 21 -44 21q-26 0 -26 -20q0 -5 7 -9
t17 -4z" />
    <glyph glyph-name="three.superior" horiz-adv-x="270" 
d="M133 320q-55 0 -79 29.5t-24 64.5q0 8 6 13.5t13 5.5q9 0 14.5 -5.5t5.5 -13.5q0 -24 15 -40q17 -17 49 -17q41 0 67.5 21t26.5 54q0 24 -8 36q-32 -30 -76 -30q-26 0 -42.5 14t-16.5 34q0 21 19.5 35.5t49.5 14.5q34 0 58 -12q6 14 6 32t-12 33.5t-42 15.5
q-18 0 -34.5 -10t-21.5 -28q-5 -15 -18 -15q-8 0 -14 6.5t-6 14.5q0 20 27 45t67 25q46 0 70 -24.5t24 -62.5q0 -29 -14 -55q25 -24 25 -69q0 -46 -37.5 -79t-97.5 -33zM123 486q0 -11 20 -11q26 0 46 17q-16 7 -36 7q-30 0 -30 -13z" />
    </font>
</defs>
</svg>
