<?xml version="1.0" standalone="no"?>
<!DOCTYPE svg PUBLIC "-//W3C//DTD SVG 1.1//EN" "http://www.w3.org/Graphics/SVG/1.1/DTD/svg11.dtd" >
<svg>
<metadata>
Created by FontForge 20110222 at Thu Jul 24 09:16:38 2014
 By Orthosie Webhosting
Typeface (c) Phelan Riessen. 2013. All Rights Reserved
</metadata>
<defs>
<font id="SocialIconsProSet1RoundedRegular" horiz-adv-x="1538" >
  <font-face 
    font-family="SocialIconsProSet1RoundedRegular"
    font-weight="400"
    font-stretch="normal"
    units-per-em="2048"
    panose-1="2 0 5 0 0 0 0 0 0 0"
    ascent="1638"
    descent="-410"
    x-height="1408"
    cap-height="1408"
    bbox="0 0 1473 1434"
    underline-thickness="150"
    underline-position="-142"
    unicode-range="U+001D-F002"
  />
<missing-glyph horiz-adv-x="954" 
d="M65 0v1434h824v-1434h-824zM115 50h724v1334h-724v-1334zM290 1148q31 28 58 43q53 30 112 30q92 0 148 -47.5t56 -127.5q0 -49 -23 -98.5t-87 -129.5q-63 -80 -99 -132t-36 -99q0 -38 24 -133h-32q-35 97 -35 148q0 76 81.5 218t81.5 217q0 57 -33 90t-91 33
q-38 0 -69 -17q-26 -15 -56 -40v45zM354 334l57 58q11 10 20 10q10 0 22 -11l56 -60q9 -11 9 -20q0 -11 -10 -22l-56 -62q-14 -14 -21 -14q-11 0 -20 10l-61 71q-7 9 -7 18q0 10 11 22z" />
    <glyph glyph-name=".notdef" horiz-adv-x="954" 
d="M65 0v1434h824v-1434h-824zM115 50h724v1334h-724v-1334zM290 1148q31 28 58 43q53 30 112 30q92 0 148 -47.5t56 -127.5q0 -49 -23 -98.5t-87 -129.5q-63 -80 -99 -132t-36 -99q0 -38 24 -133h-32q-35 97 -35 148q0 76 81.5 218t81.5 217q0 57 -33 90t-91 33
q-38 0 -69 -17q-26 -15 -56 -40v45zM354 334l57 58q11 10 20 10q10 0 22 -11l56 -60q9 -11 9 -20q0 -11 -10 -22l-56 -62q-14 -14 -21 -14q-11 0 -20 10l-61 71q-7 9 -7 18q0 10 11 22z" />
    <glyph glyph-name=".null" horiz-adv-x="0" 
 />
    <glyph glyph-name=".null" horiz-adv-x="0" 
 />
    <glyph glyph-name="nonmarkingreturn" horiz-adv-x="508" 
 />
    <glyph glyph-name="space" unicode=" " horiz-adv-x="508" 
 />
    <glyph glyph-name="space" unicode="&#xa0;" horiz-adv-x="508" 
 />
    <glyph glyph-name="exclam" unicode="!" horiz-adv-x="672" 
 />
    <glyph glyph-name="quotedbl" unicode="&#x22;" horiz-adv-x="672" 
 />
    <glyph glyph-name="numbersign" unicode="#" horiz-adv-x="1336" 
 />
    <glyph glyph-name="dollar" unicode="$" horiz-adv-x="1014" 
 />
    <glyph glyph-name="percent" unicode="%" horiz-adv-x="1610" 
 />
    <glyph glyph-name="ampersand" unicode="&#x26;" horiz-adv-x="1683" 
 />
    <glyph glyph-name="quotesingle" unicode="'" horiz-adv-x="346" 
 />
    <glyph glyph-name="parenleft" unicode="(" horiz-adv-x="758" 
 />
    <glyph glyph-name="parenright" unicode=")" horiz-adv-x="758" 
 />
    <glyph glyph-name="asterisk" unicode="*" horiz-adv-x="1024" 
 />
    <glyph glyph-name="plus" unicode="+" horiz-adv-x="1014" 
 />
    <glyph glyph-name="comma" unicode="," horiz-adv-x="557" 
 />
    <glyph glyph-name="hyphen" unicode="-" horiz-adv-x="670" 
 />
    <glyph glyph-name="hyphen" unicode="&#xad;" horiz-adv-x="670" 
 />
    <glyph glyph-name="period" unicode="." horiz-adv-x="557" 
 />
    <glyph glyph-name="slash" unicode="/" horiz-adv-x="569" 
 />
    <glyph glyph-name="zero" unicode="0" 
d="M185 1408h1168q120 -18 120 -120v-1168q-18 -120 -120 -120h-1168q-120 18 -120 120v1168q18 120 120 120zM193 1136v-864q0 -80 64 -80h1024q64 0 64 80v864q0 80 -64 80h-1024q-64 0 -64 -80zM321 1160h892v-4q-26 -26 -432 -340h-20q-19 0 -192 144q-238 182 -248 196
v4zM261 1132q458 -372 484 -372q7 -4 20 -4q48 0 152 96q22 14 360 280h8v-876q0 -8 -8 -8h-1016q-8 0 -8 8v868q1 8 8 8z" />
    <glyph glyph-name="one" unicode="1" 
d="M185 1408h1168q120 -18 120 -120v-1168q-18 -120 -120 -120h-1168q-120 18 -120 120v1168q18 120 120 120zM489 720q0 -203 104 -452q86 -172 316 -172q16 4 32 4h12v4q-122 269 -144 300q-96 0 -96 72q-9 0 -12 228v192q21 84 84 84q28 0 36 36l124 264q-64 29 -132 32
q-165 0 -236 -232q-88 -217 -88 -360zM965 1268q-116 -241 -132 -292q23 -12 40 -12q64 0 88 84q68 131 68 144q0 36 -56 76h-8zM865 412h-24q132 -284 140 -312q68 59 68 80q-94 236 -128 236q-34 -4 -56 -4z" />
    <glyph glyph-name="two" unicode="2" 
d="M185 1408h1168q120 -18 120 -120v-1168q-18 -120 -120 -120h-1168q-120 18 -120 120v1168q18 120 120 120zM949 724q0 -177 156 -216q45 -5 56 -8q57 6 88 20q66 -48 100 -48q28 48 28 60q-61 23 -64 36q48 62 48 124v56q-27 192 -192 192h-28q-137 0 -184 -152
q-5 -59 -8 -64zM217 936v-428h88v172q1 8 8 8h168v76h-168q-8 0 -8 8v80q1 8 8 8h196v76h-292zM665 936l-164 -428h88q6 1 40 96h160q10 0 40 -96h96v4q-164 424 -172 424h-88zM1145 864h12q95 0 112 -108v-56q0 -55 -32 -84q-58 40 -80 40q0 -7 -24 -52q7 0 44 -16v-4
q0 -8 -8 -8h-8q-120 0 -120 148q0 123 104 140zM705 820h4q6 -1 56 -136l-8 -4h-92l-8 4q48 124 48 136z" />
    <glyph glyph-name="three" unicode="3" 
d="M185 1408h1168q120 -18 120 -120v-1168q-18 -120 -120 -120h-376q-8 0 -8 8v692h-400v-692q0 -8 -8 -8h-376q-120 18 -120 120v1168q18 120 120 120zM569 1276v-356h400v356h-400z" />
    <glyph glyph-name="four" unicode="4" 
d="M185 1408h1168q120 -18 120 -120v-1168q-18 -120 -120 -120h-1168q-120 18 -120 120v1168q18 120 120 120zM169 1260v-224h16q417 0 724 -360q192 -266 192 -564v-8h224v12q0 442 -324 792q-357 352 -820 352h-12zM169 868v-224h16q268 0 444 -256q80 -135 80 -284h224
q0 405 -364 652q-185 112 -400 112zM169 260q0 -131 156 -156q113 0 152 132q0 18 4 24q0 111 -132 152q-18 0 -24 4q-103 0 -148 -112q-8 -16 -8 -44z" />
    <glyph glyph-name="five" unicode="5" 
d="M185 1408h1168q120 -18 120 -120v-1168q-18 -120 -120 -120h-1168q-120 18 -120 120v1168q18 120 120 120zM297 760h92q8 -1 8 -8v-576h228v312q1 8 8 8h272q8 -1 8 -8v-312h228v576q1 8 8 8h92l-100 104v272h-148v-120h-4l-220 216q-233 -228 -472 -472z" />
    <glyph glyph-name="six" unicode="6" 
d="M185 1408h1168q120 -18 120 -120v-1168q-18 -120 -120 -120h-1168q-120 18 -120 120v1168q18 120 120 120zM229 704q228 -233 472 -472v264q1 8 8 8h600v400h-600q-8 0 -8 8v264q-233 -228 -472 -472z" />
    <glyph glyph-name="seven" unicode="7" 
d="M185 1408h1168q120 -18 120 -120v-1168q-18 -120 -120 -120h-1168q-120 18 -120 120v1168q18 120 120 120zM837 1176v-264q0 -8 -8 -8h-600v-400h600q8 -1 8 -8v-264q233 228 472 472q-228 233 -472 472z" />
    <glyph glyph-name="eight" unicode="8" 
d="M185 1408h1168q120 -18 120 -120v-1168q-18 -120 -120 -120h-1168q-120 18 -120 120v1168q18 120 120 120zM249 672q0 -336 312 -456q119 -40 244 -40q334 0 484 252h-100q-140 -164 -344 -164h-76q-218 0 -356 152q-76 121 -76 224v76q0 161 144 320q139 112 308 112
q250 0 364 -216q24 -84 24 -128q0 -179 -164 -284q-13 -7 -44 -16q-20 0 -36 24v4q0 26 92 460h-100l-16 -76h-4q-68 92 -164 92q-142 0 -244 -188q-40 -91 -40 -164q0 -166 144 -236q28 -8 48 -8h16q73 0 156 84h4q12 -84 84 -84h36q163 0 288 240q28 79 28 148
q0 266 -260 392q-105 40 -220 40q-227 0 -380 -160q-152 -182 -152 -400zM749 924q94 0 124 -116q0 -39 4 -40q0 -158 -132 -252q-37 -20 -60 -20h-12q-91 0 -108 140v32q0 139 120 236q24 15 64 20z" />
    <glyph glyph-name="nine" unicode="9" 
d="M185 1408h1168q120 -18 120 -120v-1168q-18 -120 -120 -120h-1168q-120 18 -120 120v1168q18 120 120 120zM297 772h264q8 -1 8 -8v-600h400v600q1 8 8 8h264q-228 233 -472 472q-233 -228 -472 -472z" />
    <glyph glyph-name="colon" unicode=":" horiz-adv-x="557" 
 />
    <glyph glyph-name="semicolon" unicode=";" horiz-adv-x="557" 
 />
    <glyph glyph-name="semicolon" unicode="&#x37e;" horiz-adv-x="557" 
 />
    <glyph glyph-name="less" unicode="&#x3c;" horiz-adv-x="1014" 
 />
    <glyph glyph-name="equal" unicode="=" horiz-adv-x="1014" 
 />
    <glyph glyph-name="greater" unicode="&#x3e;" horiz-adv-x="1014" 
 />
    <glyph glyph-name="question" unicode="?" horiz-adv-x="748" 
 />
    <glyph glyph-name="at" unicode="@" horiz-adv-x="2019" 
d="M120 1408h1168q120 -18 120 -120v-1168q-18 -120 -120 -120h-1168q-120 18 -120 120v1168q18 120 120 120zM876 1296h-12q-46 0 -112 -180q-25 -44 -120 -252q-70 -68 -112 -68q-13 64 -56 64h-336q-72 0 -72 -52v-624q10 -60 56 -60h352q45 0 60 72h36q28 0 88 4
q101 -88 128 -88q70 0 112 -4q104 4 212 4h68q4 0 4 -4q37 0 172 136q8 13 8 24v532q0 56 -136 104h-148q-8 0 -8 8v116l24 96v120q0 50 -80 56q-65 -4 -128 -4zM984 1264q12 -4 48 -4q6 0 16 -16v-112l-24 -100v-156q1 -8 8 -8h176q108 -40 108 -72v-528q-29 -34 -132 -120
h-176q-46 0 -84 -4q-21 4 -76 4h-64q-21 0 -124 88q-86 -4 -128 -4h-40q-7 0 -12 -24l4 -24v-4q0 -5 -20 -20h-344q-21 0 -28 16v632q7 16 28 16h344q20 -9 20 -40v-36h4q87 0 180 108q176 379 188 400l8 4h60q25 0 60 4zM484 696v-324q4 0 12 -4q-12 -27 -12 -44v-28h4
q24 74 36 76h12v-4q0 -7 -32 -84h16q7 1 36 84l8 4h8l8 -4q-32 -74 -32 -84h12q8 5 40 84l8 4h12v-4l-32 -84h20q28 83 40 88h12q0 -11 -28 -88h12q10 0 36 84h12q8 -1 8 -8q-24 -62 -24 -76q4 0 12 -4q26 66 32 68q6 0 12 -12l-24 -68v-4q1 -8 8 -8l36 68h4q8 0 8 -12
q0 -7 -28 -72l16 -12q26 76 36 76h12q0 -18 -32 -88l16 -12q35 100 44 100h8q8 -1 8 -8q-24 -50 -40 -96h20q37 104 48 104h12v-4l-36 -100h12q11 8 48 104h12l8 -4l-40 -100h20q36 104 48 104h12v-4q-4 -18 -40 -100h16q4 0 48 104q9 0 16 4l4 -8q-16 -35 -40 -100h20
q37 107 48 108h12v-4q0 -11 -40 -104h16q7 3 48 108h12q8 -1 8 -8q-21 -43 -40 -100h20q36 108 48 108h12v-4q0 -9 -40 -104h20q60 164 84 164h4l-64 -164h12q14 12 92 212q20 11 20 16v352q-25 25 -72 40h-192q-36 7 -36 16q8 15 8 32v28h-4q-19 -58 -28 -60h-4q-8 0 -8 8
q48 125 48 144q-4 8 -4 12h-4l-56 -144h-8q0 46 92 268v36h-4l-68 -176h-8q0 83 80 208v20h-100q-9 0 -112 -232q-88 -194 -112 -196q-99 -88 -188 -88zM140 768v-96q9 0 16 -4q-16 -32 -16 -44v-8h4q16 56 28 56h16q8 -1 8 -8q-54 -122 -56 -144v-8h4q53 148 68 160h24v-4
l-96 -248v-8h4q99 260 112 260h16q8 -1 8 -8q-140 -334 -140 -344v-12h4q125 325 152 364h24v-4l-180 -452v-4q7 0 96 228q92 224 100 232h20l8 -4l-188 -460h4q8 4 192 460l8 4h24v-4l-184 -460h8q172 437 192 464h12v104h-284q-8 -1 -8 -8zM428 624l-168 -416h8
q148 361 164 408v8h-4zM428 524q-8 -30 -128 -316h12l120 308v8h-4zM428 420l-84 -212h8q80 197 80 204v8h-4zM1260 400q-68 -167 -68 -176q24 0 72 140v36h-4zM428 320q0 -11 -44 -112h4q42 74 44 104v8h-4zM1260 300q0 -9 -4 -16v-4h4q0 4 4 12v8h-4z" />
    <glyph glyph-name="A" unicode="A" 
d="M185 1408h1168q120 -18 120 -120v-1168q-18 -120 -120 -120h-1168q-120 18 -120 120v1168q18 120 120 120zM141 1096v-784h352q209 0 268 136q16 26 24 100q0 125 -116 188q88 46 88 144v24q0 169 -224 192h-392zM957 1064v-84h320v84h-320zM333 956h152q112 0 112 -64
v-32q0 -72 -120 -72h-144q-8 0 -8 8v152q1 8 8 8zM841 624v-32q0 -182 156 -248q59 -28 128 -28q193 0 260 168q4 7 4 20h-148q-40 -64 -108 -64h-12q-83 0 -116 72q-12 26 -12 56q1 8 8 8h396v40q0 215 -172 284q-58 12 -92 12h-40q-156 0 -232 -168q-20 -52 -20 -120z
M1109 788h16q116 -15 116 -108l-8 -4h-228q-8 0 -8 12q0 55 76 96q22 4 36 4zM333 656h120q160 0 160 -76v-40q0 -77 -104 -88h-176q-8 0 -8 8v188q1 8 8 8z" />
    <glyph glyph-name="B" unicode="B" 
d="M185 1408h1168q120 -18 120 -120v-1168q-18 -120 -120 -120h-1168q-120 18 -120 120v1168q18 120 120 120zM201 1168v-512q0 -263 104 -380q165 -200 388 -200h156q261 0 428 252q60 115 60 220q0 272 -220 428q-77 44 -184 44h-212q-111 0 -140 -104q0 -20 -4 -20
q0 -118 144 -132h224q96 0 128 -156q4 0 8 -64q0 -147 -188 -208q-48 -8 -120 -8h-12q-227 0 -284 156q-20 45 -20 104v628q-28 116 -116 116h-24q-73 0 -112 -100q-4 -41 -4 -64z" />
    <glyph glyph-name="C" unicode="C" 
d="M185 1408h1168q120 -18 120 -120v-1168q-18 -120 -120 -120h-1168q-120 18 -120 120v1168q18 120 120 120zM141 724v-40q0 -283 264 -492q172 -116 344 -116h32q203 0 384 140q14 -8 220 -80v4q-64 150 -88 220v4q100 157 100 332v28q0 283 -264 492q-172 116 -344 116
h-40q-283 0 -492 -264q-116 -172 -116 -344zM749 1016q75 0 132 -44q87 24 144 32q54 0 76 -168q60 -232 60 -264q0 -54 -112 -68q-506 -120 -528 -120h-4q-51 0 -76 176q-40 150 -60 256q0 55 148 72q19 0 76 76q70 52 144 52zM621 700q0 -118 132 -156q4 -4 32 -4
q112 0 156 132v24q0 111 -112 156l-48 8q-108 0 -156 -124q0 -14 -4 -36zM781 800q85 0 100 -104q0 -82 -104 -96q-96 20 -96 100q19 100 100 100z" />
    <glyph glyph-name="D" unicode="D" 
d="M185 1408h1168q120 -18 120 -120v-1168q-18 -120 -120 -120h-1168q-120 18 -120 120v1168q18 120 120 120zM765 1264v-236q0 -8 -8 -8h-144q-8 0 -8 8v76h-76q-8 0 -8 8v80h-212v-80q0 -8 -8 -8h-80v-76q0 -8 -8 -8h-72v-320h72q8 -1 8 -8v-76h140q8 -1 8 -8v-128
q0 -8 -8 -8h-52v-80q0 -8 -8 -8h-76v-240h380v240h-76q-8 0 -8 8v80h-52q-8 0 -8 8v128q1 8 8 8h216q8 -1 8 -8v-460h632v476q1 8 8 8h64v388h-4q-34 0 -152 -4l-4 8v240h-472zM861 1176h276q8 -1 8 -8v-292q0 -8 -8 -8h-276q-8 0 -8 8v292q1 8 8 8zM321 1100h188q8 -1 8 -8
v-76h76q8 -1 8 -8v-296q0 -8 -8 -8h-360q-8 0 -8 8v296q1 8 8 8h80v76q1 8 8 8zM701 928h56q8 -1 8 -8v-140h472v140q1 8 8 8h56q8 -1 8 -8v-208q0 -8 -8 -8h-64v-460q0 -8 -8 -8h-168q-8 0 -8 8v228h-80v-228q0 -8 -8 -8h-176q-8 0 -8 8v460h-80q-8 0 -8 8v208q1 8 8 8z
M321 380h188q8 -1 8 -8v-128q0 -8 -8 -8h-188q-8 0 -8 8v128q1 8 8 8z" />
    <glyph glyph-name="E" unicode="E" 
d="M185 1408h1168q120 -18 120 -120v-1168q-18 -120 -120 -120h-1168q-120 18 -120 120v1168q18 120 120 120zM141 712v-28q0 -287 276 -504q171 -104 344 -104h28q287 0 504 276q104 171 104 344v28q0 287 -276 504q-171 104 -344 104h-28q-287 0 -504 -276
q-104 -171 -104 -344zM765 1244l4 -8v-524q0 -8 -8 -8h-524q-8 0 -8 12q0 245 216 420q147 108 320 108zM777 700h524q8 -1 8 -8q0 -245 -216 -420q-147 -108 -320 -108l-4 8v520q1 8 8 8z" />
    <glyph glyph-name="F" unicode="F" 
d="M185 1408h1168q120 -18 120 -120v-1168q-18 -120 -120 -120h-1168q-120 18 -120 120v1168q18 120 120 120zM397 960q0 -133 176 -392q16 -24 16 -36h-320q-44 0 -52 -84q-4 -9 -88 -348q6 -16 20 -24h1240q5 0 20 20q-88 376 -104 420q-17 16 -32 16h-332v4
q200 293 200 412v28q0 79 -96 220q-117 124 -268 124h-28q-199 0 -316 -204q-36 -89 -36 -156zM769 1096q136 -19 136 -132q-20 -136 -132 -136h-12q-86 0 -120 96v52q0 107 128 120zM617 488q145 -231 156 -240q33 69 140 240h348q11 0 84 -324q5 0 12 -40l-8 -4h-1160
l-8 4q88 350 96 364h340z" />
    <glyph glyph-name="G" unicode="G" 
d="M185 1408h1168q120 -18 120 -120v-1168q-18 -120 -120 -120h-524q12 79 12 88q0 151 -100 244q-58 59 -164 144q-32 43 -32 76q0 60 140 184q80 83 80 232v8q0 149 -132 264h-4v8h112q12 0 144 76v4h-432q-251 0 -384 -128h-4v88q18 120 120 120zM1113 1320v-220
q0 -8 -8 -8h-216v-112h216q8 -1 8 -8v-216h116v216q1 8 8 8h216v112h-216q-8 0 -8 8v220h-116zM329 1252q184 0 248 -336l4 -56q0 -216 -192 -216q-148 0 -236 248q-24 69 -24 132q0 186 160 228h40zM65 660h4q100 -80 232 -80l24 4h32q8 -1 8 -8q-16 -33 -16 -64v-20
q0 -53 56 -128q-11 -6 -172 -20q-98 -24 -164 -48h-4v364zM405 296h64q228 -148 228 -264v-24q0 -8 -8 -8h-504q-120 18 -120 120v40q0 61 192 116q73 20 148 20z" />
    <glyph glyph-name="H" unicode="H" 
d="M185 1408h1168q120 -18 120 -120v-1168q-18 -120 -120 -120h-1168q-120 18 -120 120v1168q18 120 120 120zM877 1224q0 -73 124 -104q12 -15 12 -24q-12 -118 -12 -176q0 -36 12 -172q0 -27 -140 -36q-52 0 -284 -52h-16q-16 0 -20 92q0 86 8 308q0 13 108 60l4 20v20
q0 80 -112 92q-258 -27 -292 -80l-12 -20v-12q33 -92 100 -92q28 0 28 -52q8 -551 28 -748q0 -14 -80 -44q-24 -22 -24 -40q30 -88 96 -88q195 0 276 76q8 15 8 32q-25 76 -80 76q-40 0 -40 24l-12 148q0 74 116 88q171 48 292 48h32q8 -1 8 -8v-52q0 -53 8 -168
q0 -28 -76 -36q-36 -23 -36 -40q0 -69 108 -108h8q108 0 256 76q0 7 8 32q-19 84 -84 84q-28 0 -28 28v504q0 73 -4 204q0 60 36 84q72 31 72 56q-29 104 -56 104q0 4 -4 4h-76q-260 -24 -260 -108z" />
    <glyph glyph-name="I" unicode="I" 
d="M185 1408h1168q120 -18 120 -120v-1168q-18 -120 -120 -120h-1168q-120 18 -120 120v1168q18 120 120 120zM153 680q0 -267 228 -468q127 -97 212 -108q17 6 24 20v128q-54 -8 -68 -8q-116 0 -168 136q-60 52 -60 56q4 12 24 12q40 -5 40 -16h-16v-12l16 -4l4 8l-4 8h8
q36 -24 72 -84l-16 -4v-12q0 -9 20 -12q4 8 4 12q-4 8 -4 12h4q35 -24 60 -24h36q51 6 52 20q0 33 40 80q-115 0 -216 88q-64 82 -64 196v36q0 67 60 144l-12 68q10 96 24 96q62 0 164 -64q85 20 156 20q49 0 156 -20q83 64 160 64q13 -21 20 -96l-12 -72q60 -65 60 -148
v-28q0 -199 -172 -264q-50 -12 -108 -20q44 -34 44 -152v-144q10 -20 32 -20q226 76 336 256q96 161 96 320q0 357 -328 552q-136 72 -292 72q-310 0 -512 -280q-100 -156 -100 -344zM397 412q0 -4 -4 -12l12 -8h4q8 0 8 8q0 6 -12 12h-8zM417 376q4 -20 20 -20l4 8v4
q0 6 -12 12h-4zM489 312v-4q0 -6 12 -12h8q8 0 8 8v4q0 6 -12 12h-8q-8 -1 -8 -8zM585 308v-4q1 -8 8 -8l20 4v8q0 8 -8 8h-12q-8 -1 -8 -8zM537 304l12 -16q19 5 20 16l-12 8h-8z" />
    <glyph glyph-name="J" unicode="J" 
d="M185 1408h1168q120 -18 120 -120v-1168q-18 -120 -120 -120h-1168q-120 18 -120 120v1168q18 120 120 120zM133 828q0 -239 344 -388q96 -25 96 -36q0 -53 -120 -276h4q303 86 416 248v4q-208 -182 -340 -204h-8v4q100 209 100 244v8q-50 0 -220 72q-236 138 -236 328
q0 223 328 368q131 48 248 48h32q326 0 532 -248q56 -77 56 -152v-4q0 -235 -344 -412v-4h8q265 106 356 304q20 55 20 108q0 221 -340 384q-155 56 -296 56q-414 0 -608 -320q-28 -75 -28 -132zM885 1184v-4q332 -157 332 -352q0 -152 -228 -336h4q296 143 296 324v16
q0 197 -332 332q-65 20 -68 20h-4z" />
    <glyph glyph-name="K" unicode="K" 
d="M185 1408h1168q120 -18 120 -120v-1168q-18 -120 -120 -120h-1168q-120 18 -120 120v1168q18 120 120 120zM165 736v-64q0 -239 232 -448q183 -124 340 -124h64q239 0 448 232q124 183 124 340v64q0 239 -232 448q-183 124 -340 124h-64q-239 0 -448 -232
q-124 -183 -124 -340zM761 1156h24q224 0 372 -216q64 -112 64 -216v-32q0 -112 -72 -112q-86 0 -232 220q-207 215 -276 216q-54 24 -76 24q8 -90 8 -132v-36q0 -188 -152 -256q-6 -5 -40 -8q-54 0 -60 92q0 240 212 388q112 68 228 68z" />
    <glyph glyph-name="L" unicode="L" 
d="M185 1408h1168q120 -18 120 -120v-1168q-18 -120 -120 -120h-1168q-120 18 -120 120v1168q18 120 120 120zM141 716v-24q0 -158 176 -248q45 -20 104 -20h4q193 0 272 208q8 38 8 60v24q0 158 -176 248q-45 20 -104 20h-4q-193 0 -272 -208q-8 -38 -8 -60zM833 716v-24
q0 -158 176 -248q45 -20 104 -20h4q193 0 272 208q8 38 8 60v24q0 158 -176 248q-45 20 -104 20h-4q-193 0 -272 -208q-8 -38 -8 -60z" />
    <glyph glyph-name="M" unicode="M" 
d="M185 1408h1168q120 -18 120 -120v-1168q-18 -120 -120 -120h-1168q-120 18 -120 120v1168q18 120 120 120zM845 1112q0 -113 120 -180q39 -20 84 -20h12q154 0 204 184v32q0 154 -184 204h-32q-150 0 -204 -176v-44zM517 1100q0 -97 108 -144q15 -8 32 -8h32
q85 0 132 108q8 18 8 52q0 95 -108 140q-15 8 -32 8h-20q-100 0 -144 -112q-4 -8 -8 -44zM241 1088q22 -124 132 -124q124 22 124 132q0 100 -128 124q-109 0 -128 -132zM197 780v-316h256q8 -1 8 -8v-124h296q8 -1 8 -8v-248h576v528q0 163 -180 252q-45 20 -104 20h-4
q-105 0 -184 -68h-4q-77 116 -196 116q-69 0 -148 -64q-63 84 -144 84h-28q-81 0 -144 -112q-8 -36 -8 -52z" />
    <glyph glyph-name="N" unicode="N" 
d="M185 1408h1168q120 -18 120 -120v-1168q-18 -120 -120 -120h-1168q-120 18 -120 120v1168q18 120 120 120zM905 708q0 -11 12 -60v-4q-27 16 -48 16h-24q-8 0 -8 8v136q-18 28 -40 28h-4q-40 0 -40 -48v-160q0 -48 68 -48h52q45 0 52 44q-4 7 -4 16q33 -36 36 -36
q42 40 72 40h24q26 0 72 -40h4q44 66 44 88h8q0 -75 96 -112q5 -4 28 -4h20q92 14 92 80v12q0 64 -48 64v8q32 0 40 40q-19 60 -104 60q-124 -24 -124 -116h-4q-7 0 -16 40q-46 76 -120 76h-4q-128 -20 -128 -120q-4 0 -4 -8zM121 708v-48q0 -84 44 -84h4q38 0 44 60l-4 8
v20h4q70 -88 80 -88h16q40 0 40 64v140q0 36 -32 52h-12q-44 0 -44 -64v-20h-4q-70 84 -80 84h-8q-44 0 -44 -56q-4 -9 -4 -68zM357 804v-200q0 -23 72 -28h40q56 0 56 36v8q0 35 -52 40h-24q-8 0 -8 8q68 0 68 40q0 27 -68 32v4l8 4h16q60 0 60 44v16q-9 24 -72 24h-24
q-72 -4 -72 -28zM533 792v-16q0 -19 64 -32v-120q0 -48 40 -48h16q28 18 28 40v124q0 4 52 20q12 10 12 24v8q0 35 -52 40h-100q-60 0 -60 -40zM1313 752q36 -16 48 -16v-8h-24q-36 0 -48 -28v-4q0 -19 28 -36l-8 -4q-44 14 -44 48v4q0 35 48 44zM1041 748h4q32 0 40 -44
q-5 -48 -44 -48q-38 0 -48 44q0 48 48 48z" />
    <glyph glyph-name="O" unicode="O" 
d="M185 1408h1168q120 -18 120 -120v-1168q-18 -120 -120 -120h-1168q-120 18 -120 120v1168q18 120 120 120zM549 1292q0 -4 480 -440v420q-51 36 -188 56q-23 4 -64 4h-28q-83 0 -200 -40zM141 708v-12q0 -58 20 -160q468 420 560 512q-235 211 -236 216
q-105 -44 -236 -204q-108 -170 -108 -352zM1093 1240v-748h264q15 0 40 160v56q0 329 -304 532zM185 472q90 -210 264 -308v544zM509 432v-304q127 -52 220 -52h80q242 0 452 236q53 71 72 120h-824z" />
    <glyph glyph-name="P" unicode="P" 
d="M1353 1408q92 0 120 -104v-1192q0 -75 -104 -112h-1176q-87 0 -124 88l-4 24v1188q30 108 108 108h1180zM189 808q0 -151 96 -268q60 19 172 132q-56 61 -56 128v20q0 162 228 260q64 16 128 16q268 0 364 -216l12 -68q0 -149 -160 -200q-40 -8 -72 -8q-85 0 -108 28v324
q-44 8 -136 12q-84 0 -84 -20q0 -198 4 -496q0 -136 -64 -136q-31 7 -96 36q-4 -80 -4 -120q0 -104 164 -104q168 0 224 204l8 76q-4 15 -4 36l8 4q60 -16 120 -16q203 0 356 196q60 110 60 200q0 290 -364 424q-137 32 -228 32q-349 0 -508 -244q-60 -111 -60 -232z" />
    <glyph glyph-name="Q" unicode="Q" 
d="M185 1408h1168q120 -18 120 -120v-1168q-18 -120 -120 -120h-1168q-120 18 -120 120v1168q18 120 120 120zM181 740v-28q0 -241 268 -352q92 -24 152 -24h48q139 0 260 108h8q-24 -119 -24 -188v-28q0 -120 120 -152h212l124 756q8 34 8 88v16q0 4 4 4l-4 8v12
q0 266 -288 352q-75 20 -172 20h-44q-395 0 -616 -352q-56 -124 -56 -240zM809 1080q180 0 180 -180q0 -162 -116 -264q-55 -36 -136 -36q-125 0 -164 100q-8 36 -12 72q0 137 104 256q62 52 144 52z" />
    <glyph glyph-name="R" unicode="R" 
d="M185 1408h1168q120 -18 120 -120v-1168q-18 -120 -120 -120h-1168q-120 18 -120 120v1168q18 120 120 120zM677 1076q2 -12 148 -152h208q8 -1 8 -8v-264q0 -8 -8 -8h-196q245 -269 276 -308h8q25 32 276 308h-196q-8 0 -8 8v368q0 56 -68 56h-448zM141 764h196
q8 -1 8 -8v-368q0 -56 68 -56h448q0 11 -148 152h-208q-8 0 -8 8v264q1 8 8 8h196q-251 276 -276 308q-45 -41 -284 -308z" />
    <glyph glyph-name="S" unicode="S" 
d="M185 1408h1168q120 -18 120 -120v-1168q-18 -120 -120 -120h-1168q-120 18 -120 120v1168q18 120 120 120zM157 712q0 -372 352 -564q131 -56 232 -56h40q315 0 516 300q84 151 84 288v32q0 318 -296 516q-146 88 -316 88q-326 0 -524 -296q-88 -152 -88 -308zM757 968
h24q86 0 132 -116q4 -21 4 -40v-36q-3 -13 -76 -24q-40 18 -40 24v36q-5 40 -40 40q-30 0 -36 -40v-200q0 -133 -116 -168q-22 -4 -36 -4h-8q-113 0 -148 128q-4 31 -4 68v48q1 8 8 8h104q8 -1 8 -8v-88q0 -33 40 -40q31 0 36 48v216q23 148 148 148zM1001 692h100
q8 -1 8 -8v-112q0 -31 -44 -92q-55 -40 -104 -40h-12q-129 0 -148 160v84q8 0 48 -16q56 16 68 16v-84q3 -48 44 -48q23 8 32 28v104q1 8 8 8z" />
    <glyph glyph-name="T" unicode="T" 
d="M185 1408h1168q120 -18 120 -120v-1168q-18 -120 -120 -120h-1168q-120 18 -120 120v1168q18 120 120 120zM945 1108h-4v12l4 8h-4q-128 -93 -192 -296h-8q-118 109 -396 204q0 5 -16 8l-4 -8q0 -87 100 -144v-8h-12q-26 0 -56 -8q0 -57 84 -108q26 -12 36 -12v-8
q-36 0 -64 -32q44 -80 132 -80v-4q-28 -28 -28 -44v-16q21 -40 76 -40h4v-4q-94 -92 -216 -92h-24q-118 0 -216 88v-4q196 -248 480 -248h48q246 0 452 188q109 123 128 220q103 0 148 60q-5 0 -40 -4q-80 4 -80 16q112 35 112 80h-4q-53 -20 -108 -20q-40 0 -40 40
q-51 134 -152 180q-44 24 -88 24v8q84 16 84 36v4q0 6 -12 12h-12q-16 0 -52 -8l16 20v8h-4q-33 -2 -72 -28z" />
    <glyph glyph-name="U" unicode="U" 
d="M185 1408h1168q120 -18 120 -120v-1168q-18 -120 -120 -120h-1168q-120 18 -120 120v1168q18 120 120 120zM657 1260q0 -91 -80 -204q-69 -69 -160 -92v-160h144q8 -1 8 -8v-408q0 -165 180 -224q52 -16 100 -16h40q122 0 232 64v176q-81 -56 -176 -56q-120 17 -120 80
q-4 15 -4 44v340q1 8 8 8h248v200h-248q-8 0 -8 8v248h-164z" />
    <glyph glyph-name="V" unicode="V" 
d="M185 1408h1168q120 -18 120 -120v-1168q-18 -120 -120 -120h-1168q-120 18 -120 120v1168q18 120 120 120zM569 1256v-76q0 -8 -8 -8h-68q-16 -5 -16 -36q3 -40 16 -40h64q8 0 8 -12q0 -76 12 -76h52q6 0 16 16v64q1 8 8 8h76q0 6 8 16v28q0 32 -28 32q-28 4 -48 4
q-8 -4 -12 -4l-4 8v60q0 24 -24 24h-44q-8 -1 -8 -8zM233 964v-12q44 -457 96 -792q18 -16 20 -16h36q40 0 40 112q12 75 88 688q0 21 -40 24h-4q-40 0 -40 -48l-20 -152q0 -4 4 -4q-16 -125 -40 -364h-8v4q-48 560 -60 560l-48 4h-4zM565 944v-788q2 -12 28 -12q16 0 48 8
q4 47 4 68v264q0 43 4 68q-4 29 -4 72v288q0 52 -20 52q-7 4 -20 4h-8q-32 0 -32 -24zM705 952q-4 -122 -4 -180v-564q0 -20 4 -60l40 -4h12q28 0 28 52v112q0 75 4 220l32 8q72 -10 72 -56q0 -86 4 -320q4 -16 24 -16h28q28 0 28 52v240q0 124 -60 136v12q56 19 56 96
q0 6 4 56q0 139 -32 176q-45 56 -176 56h-36q-14 0 -28 -16zM1033 956v-124q0 -210 -4 -376q4 -82 4 -284q0 -25 32 -28q174 0 196 52q38 37 44 80v228q0 30 -56 72v4q43 37 56 64v144q0 180 -184 180h-56q-7 0 -32 -12zM813 884q76 0 76 -68q4 0 4 -8q-4 -89 -4 -144
q-21 -56 -84 -56h-8q-12 14 -12 48v216q0 9 28 12zM1125 880h36q60 0 60 -108v-72q0 -92 -92 -92q-16 0 -16 96v72q0 104 12 104zM1141 532h24q60 0 60 -84v-144q0 -70 -100 -76q0 8 -8 8q-4 94 -4 140v40q0 34 4 108q13 8 24 8z" />
    <glyph glyph-name="W" unicode="W" 
d="M185 1408h1168q120 -18 120 -120v-292h-8q-65 192 -268 192h-20q-212 0 -288 -232v-8h140q0 66 128 136q32 8 48 8q128 -25 128 -160q0 -97 -104 -136q-32 -11 -96 -16v-124q28 4 36 8q160 -22 160 -148q0 -127 -156 -184h-20q-81 0 -140 140v4h-132q0 -124 128 -208
q84 -36 164 -36q186 0 296 140h4v-252q-18 -120 -120 -120h-1168q-120 18 -120 120v632h8q36 -82 160 -132q53 -16 88 -16h4q111 0 220 112h4q83 -104 204 -104q132 0 224 108q40 60 40 112v48h-120q0 -78 -100 -144q-32 -8 -40 -8h-4q-117 0 -156 200h-104
q0 -134 -160 -188l-20 -4q-80 0 -152 156q-19 0 -92 -12l-4 8v400q18 120 120 120z" />
    <glyph glyph-name="X" unicode="X" 
d="M185 1408h1168q120 -18 120 -120v-1168q-18 -120 -120 -120h-1168q-120 18 -120 120v1168q18 120 120 120zM165 1112v-56q50 0 124 -132q82 -177 272 -628h60q44 106 172 336h4q132 -321 144 -332l24 -4h20q10 0 88 192q20 39 228 520q35 52 72 52v48h-244v-24
q0 -24 60 -44q20 -13 20 -32q-208 -493 -216 -496q-44 80 -116 260q117 288 192 288q32 4 32 16v32h-268v-24q0 -24 40 -24q26 0 36 -20v-24q0 -7 -72 -164h-4q-40 64 -80 176v12q0 12 36 20h16v48h-296v-48h40q68 0 108 -128l96 -212q-124 -230 -124 -236h-8l-220 516v12
q0 41 76 48v52h-312z" />
    <glyph glyph-name="Y" unicode="Y" 
d="M185 1408h1168q120 -18 120 -120v-1168q-18 -120 -120 -120h-1168q-120 18 -120 120v1168q18 120 120 120zM401 1336q96 -229 96 -244v-252h80v260q0 9 92 236h-84q-7 0 -48 -156h-8q-34 143 -48 156h-80zM657 996q0 -148 56 -148q0 -8 28 -8h28q71 0 84 104v160
q0 95 -88 108h-20q-88 0 -88 -160v-56zM897 1200v-280q0 -76 52 -76h20l28 20h4v-16h84v352h-68v-268q0 -28 -28 -28h-4q-6 0 -16 16v280h-72zM761 1152q24 -8 24 -32v-188q0 -32 -32 -32q-23 0 -28 44v164q0 44 36 44zM241 584v-324q0 -136 120 -180q38 -8 60 -8h696
q122 0 172 116q8 40 8 72v324q0 139 -124 180q-32 8 -68 8h-672q-151 0 -188 -136q-4 -26 -4 -52zM325 644h216q8 -1 8 -8v-40q0 -8 -8 -8h-80v-384q0 -8 -8 -8h-52q-8 0 -8 8v388h-68q-8 0 -8 8v36q1 8 8 8zM781 644h52q8 -1 8 -8v-124q36 28 64 28q44 0 52 -80v-176
q0 -77 -52 -88h-8q-19 0 -64 32q-4 -28 -12 -28h-44q-8 0 -8 12q0 67 4 428zM1101 548q84 0 84 -100v-84q0 -8 -8 -8h-116v-92q0 -5 20 -20h32q5 0 20 20v40q1 8 8 8h36q7 0 12 -20q-12 -96 -80 -96h-20q-84 13 -84 120v100q0 132 96 132zM545 528h52q8 -1 8 -8v-232
q0 -31 20 -40h8q24 16 24 36l-4 8v228q1 8 8 8h56q8 -1 8 -8v-316q0 -8 -8 -8h-40q-8 0 -8 44q-37 -44 -76 -44h-16q-40 0 -40 88v236q1 8 8 8zM837 464v-172q0 -44 40 -44q25 8 28 20v212q0 5 -20 20h-24q-24 -14 -24 -36zM1061 448v-36h72v24q0 9 4 16q-12 36 -40 36
q-36 -8 -36 -40z" />
    <glyph glyph-name="Z" unicode="Z" 
d="M185 1408h1168q120 -18 120 -120v-1168q-18 -120 -120 -120h-1168q-120 18 -120 120v1168q18 120 120 120zM505 1160q0 -68 56 -92q43 26 96 36q68 0 256 -60v-8q-35 -66 -280 -296l-16 -12q-59 48 -100 48q-134 0 -168 -212v-20q0 -108 52 -108q38 0 124 60h8
q115 -237 220 -364q64 -56 136 -56h16q167 0 272 152q12 37 12 56q0 42 -36 72q-97 -52 -164 -52q-84 0 -220 224q-3 0 -68 96v4q288 268 324 352q16 24 108 100q52 56 56 112q-24 108 -92 108q-25 0 -68 -60q-233 92 -356 92h-8q-129 0 -160 -172z" />
    <glyph glyph-name="bracketleft" unicode="[" horiz-adv-x="758" 
 />
    <glyph glyph-name="backslash" unicode="\" horiz-adv-x="569" 
 />
    <glyph glyph-name="bracketright" unicode="]" horiz-adv-x="758" 
 />
    <glyph glyph-name="asciicircum" unicode="^" horiz-adv-x="1014" 
 />
    <glyph glyph-name="underscore" unicode="_" horiz-adv-x="1024" 
 />
    <glyph glyph-name="grave" unicode="`" horiz-adv-x="1024" 
 />
    <glyph glyph-name="a" unicode="a" 
d="M185 1408h1168q120 -18 120 -120v-1168q-18 -120 -120 -120h-1168q-120 18 -120 120v1168q18 120 120 120zM221 448q0 -177 280 -240q136 24 176 24q45 0 108 -100q71 -72 148 -72h32q74 0 168 64q72 51 72 356q0 102 36 116q44 53 44 100q0 32 -56 92q-15 35 -20 104
q4 60 4 100v120l4 24q-37 212 -168 212h-16q-89 0 -220 -100q-551 -638 -556 -652q-36 -89 -36 -148zM1033 1296h16q83 0 112 -144v-64q0 -90 -4 -208q0 -109 72 -172q0 -4 4 -12q0 -39 -52 -80q-36 -79 -36 -340q-31 -136 -88 -136q-50 -28 -104 -28h-24q-80 0 -152 120
q-45 52 -116 52q-32 0 -156 -24q-228 54 -228 172v40q0 101 148 244q409 481 444 512q107 68 164 68zM397 452q22 -36 68 -36q148 136 276 172l124 24l4 -8q0 -55 -4 -76q4 -83 4 -152v-100q47 -32 72 -32h20q17 0 60 32q0 25 -4 364q92 16 92 28q-6 16 -28 16q-13 0 -68 -4
l-4 8v364q-18 40 -44 40h-12q-45 0 -164 -160q-392 -449 -392 -468v-12zM873 860h4v-172q0 -9 -156 -20q-16 6 -16 12z" />
    <glyph glyph-name="b" unicode="b" 
d="M185 1408h1168q120 -18 120 -120v-1168q-18 -120 -120 -120h-1168q-120 18 -120 120v1168q18 120 120 120zM181 920v-432q0 -246 260 -356q63 -16 112 -16h428q256 0 360 272q16 51 16 168v232q0 60 -100 60q-112 0 -112 60q-17 151 -56 208q-140 176 -300 176h-236
q-230 0 -344 -232q-28 -65 -28 -140zM549 984h220q64 -8 64 -64v-12q0 -50 -68 -60h-196q-80 6 -80 68q12 68 60 68zM549 560h432q64 -11 64 -56v-20q0 -50 -68 -60h-416q-72 11 -72 68q13 68 60 68z" />
    <glyph glyph-name="c" unicode="c" 
d="M185 1408h1168q120 -18 120 -120v-1168q-18 -120 -120 -120h-1168q-120 18 -120 120v1168q18 120 120 120zM449 672q0 -31 -52 -52q-12 15 -12 28v16q12 63 12 88q-7 4 -16 4q-52 -120 -88 -120l-8 12v8q0 65 96 116q8 4 12 4v16q-6 0 -16 8h-4q-71 0 -128 -132
q-45 -44 -80 -44q-40 0 -40 64q22 88 60 88l8 -12q-8 -37 -8 -44h12q12 0 20 36v4q-4 44 -32 44q-74 0 -96 -108v-32q0 -63 68 -72h4q39 5 84 44h8q0 -19 24 -36h12q36 0 64 44q14 -52 44 -52q5 0 44 16v-4q-4 -44 -4 -76v-16q0 -76 36 -76h4q28 16 28 48v8q0 38 -28 100
q45 7 84 44q28 -44 64 -44q47 0 84 60h8v-60h28v116q0 52 48 52q36 0 40 -72q-4 -56 -4 -96h32q-4 40 -4 60v12q0 96 44 96h8q36 -12 36 -52v-116h28v128q0 62 -80 68q-17 0 -44 -24h-8q-24 24 -52 24q-17 0 -40 -12q-4 8 -4 12h-28v-84q-52 -80 -88 -80h-4q-5 0 -20 20v24
q48 55 48 92v24q0 6 -16 16h-12q-51 0 -68 -116q0 -34 -32 -44q0 -5 -20 -16h-16q-16 7 -16 28l100 212l12 60q0 32 -32 48h-24q-44 -21 -64 -92q-16 -145 -16 -208zM549 932q8 -13 8 -20q0 -39 -64 -168h-8q24 188 64 188zM985 692q19 -100 100 -100q96 21 96 92v4
q-13 100 -88 100h-16q-73 0 -92 -96zM1193 788v-196h28v128q0 35 48 40q36 -12 36 -40v-128h28v100q0 68 48 68q36 0 40 -64v-104h28v124q0 72 -80 72q-5 0 -56 -24q-15 24 -56 24q-9 0 -32 -12q-4 8 -4 12h-28zM625 772l4 -8v-4q0 -31 -24 -56h-4q0 52 24 68zM1085 760
q61 0 68 -76q-17 -60 -60 -60h-12q-64 8 -64 64v8q0 55 68 64zM453 552h8q16 -58 16 -68q-4 -7 -4 -16h-8q-12 0 -12 44v40z" />
    <glyph glyph-name="d" unicode="d" 
d="M185 1408h1168q120 -18 120 -120v-1168q-18 -120 -120 -120h-1168q-120 18 -120 120v1168q18 120 120 120zM361 1152v-216q0 -8 -8 -8h-212v-448h352v672h-132zM517 1152v-128h128v128h-128zM517 928v-448h128v448h-128zM697 928v-448h200q8 -1 8 -8v-80q0 -8 -8 -8h-200
v-128h340v672h-340zM1061 928v-448h212q8 -1 8 -8v-80q0 -8 -8 -8h-212v-128h336v672h-336zM277 812h76q8 -1 8 -8v-200q0 -8 -8 -8h-76q-8 0 -8 8v200q1 8 8 8zM833 812h64q8 -1 8 -8v-200q0 -8 -8 -8h-64q-8 0 -8 8v200q1 8 8 8zM1197 812h76q8 -1 8 -8v-200q0 -8 -8 -8
h-76q-8 0 -8 8v200q1 8 8 8z" />
    <glyph glyph-name="e" unicode="e" 
d="M1353 1408q92 0 120 -104v-1192q0 -75 -104 -112h-1176q-87 0 -124 88l-4 24v1188q30 108 108 108h1180zM929 768h-4q-143 135 -168 160q-37 -43 -68 -64q-90 180 -276 180q-145 0 -240 -148q-32 -59 -32 -116v-12q0 -199 228 -268q63 0 80 -36l308 -296l392 380
q-32 23 -32 44q82 58 280 216v432q-5 0 -468 -472zM1349 1144h4v-308q-615 -491 -628 -492q-35 27 -236 204h-4q-36 -8 -52 -8h-20q-157 0 -220 168q-8 18 -8 52v20q0 155 188 216q2 0 52 4q148 0 220 -156q12 -41 12 -76q0 -40 -20 -96q89 -149 100 -156q520 540 612 628z
" />
    <glyph glyph-name="f" unicode="f" 
d="M185 1408h1168q120 -18 120 -120v-1168q-18 -120 -120 -120h-304q-8 0 -8 8v524q1 8 8 8h172l28 216h-200q-8 0 -8 8v152q0 76 132 76h84v192q-73 8 -160 8h-12q-183 0 -252 -168q-16 -54 -16 -108v-152q0 -8 -8 -8h-176v-216h176q8 -1 8 -8v-524q0 -8 -8 -8h-624
q-120 18 -120 120v1168q18 120 120 120z" />
    <glyph glyph-name="g" unicode="g" 
d="M185 1408h1168q120 -18 120 -120v-1168q-18 -120 -120 -120h-1168q-120 18 -120 120v1168q18 120 120 120zM437 1020q0 -168 180 -244q36 -16 100 -16h44q-12 -37 -12 -68v-4q0 -37 40 -88v-12h-4q-342 -14 -416 -208q-12 -26 -12 -64v-8q0 -166 244 -224q51 -8 96 -8h28
q301 0 408 228q12 42 16 84q0 148 -220 292q-20 32 -20 44v24q0 37 116 128q68 85 68 172q0 119 -108 216v4h76q12 0 120 60v4h-360q-282 0 -372 -236q-12 -65 -12 -76zM737 1276q148 0 204 -256v-60q0 -112 -116 -148h-44q-128 0 -184 212q-8 30 -8 56v36q0 118 116 156
q17 0 32 4zM825 540h28q180 -111 180 -216v-4q0 -112 -136 -160q-70 -12 -116 -12q-209 0 -272 156l-4 40q0 154 216 188q53 8 104 8z" />
    <glyph glyph-name="h" unicode="h" 
d="M185 1408h1168q120 -18 120 -120v-1168q-18 -120 -120 -120h-1168q-120 18 -120 120v1168q18 120 120 120zM145 1000v-204h32q8 -1 8 -8v-156q0 -8 -8 -8h-32v-200h816q0 20 8 20q66 -36 160 -36q178 0 248 156q16 50 16 84v8q0 74 -44 128q0 3 4 24q0 70 8 192h-424
q-8 -43 -8 -56h-8v24h-236v-100q0 -8 -8 -8h-64v-16h-8q-35 24 -88 24q-18 0 -64 -8v140h-308zM205 948h188q8 -1 8 -8v-188q54 64 116 64q96 -13 96 -84q4 0 4 -24v-136h36q8 -1 8 -8v-80q0 -8 -8 -8h-208q-8 0 -8 8v80q0 8 20 8v128q0 6 -12 12h-12q-32 -20 -32 -76v-64
q16 0 16 -8v-80q0 -8 -8 -8h-204q-8 0 -8 8v80q1 8 8 8h32v276h-32q-8 0 -8 8v84q1 8 8 8zM989 948h308q8 -1 8 -8q-4 -67 -4 -104v-12q0 -8 -8 -8h-204l-4 -20v-12q52 16 96 20q107 0 148 -88q8 -29 12 -72q0 -126 -148 -176l-76 -8q-200 24 -200 128v4q7 88 72 88h20
q39 0 52 -48q-4 -22 -4 -36v-16q0 -10 36 -16q52 17 52 72v16q-5 56 -40 56h-12q-11 0 -40 -20q-94 8 -116 16q40 244 52 244zM749 916h112q8 -1 8 -8v-72q0 -8 -8 -8h-112q-8 0 -8 8v72q1 8 8 8zM673 808h188q8 -1 8 -8v-228h28q8 -1 8 -8v-80q0 -8 -8 -8h-224q-8 0 -8 8
v80q1 8 8 8h32v136h-32q-8 0 -8 8v84q1 8 8 8z" />
    <glyph glyph-name="i" unicode="i" 
d="M185 1408h1168q120 -18 120 -120v-548h-4q-239 252 -664 252q-96 0 -284 -24v4q-60 116 -64 136q-190 -24 -212 -24l84 -172q-115 -53 -188 -132q-61 -77 -68 -116h-8v624q18 120 120 120zM749 892q207 0 412 -120v-4q-199 -56 -212 -56q-6 0 -68 116q-44 12 -116 12
q-33 0 -92 -8q146 -294 152 -316l644 184l4 -8v-572q-18 -120 -120 -120h-1168q-120 18 -120 120v232h8q0 -11 16 -52q599 176 664 192l-176 372v4q96 20 172 24zM385 780h4q6 -1 96 -192q-165 -56 -216 -56q-8 18 -8 52q0 112 124 196z" />
    <glyph glyph-name="j" unicode="j" 
d="M185 1408h1168q120 -18 120 -120v-1168q-18 -120 -120 -120h-1168q-120 18 -120 120v1168q18 120 120 120zM145 704q0 -326 304 -536q163 -88 320 -88q326 0 536 304q88 163 88 320q0 326 -304 536q-163 88 -320 88q-326 0 -536 -304q-88 -163 -88 -320zM769 1228
q313 0 480 -308q44 -120 44 -216q0 -313 -308 -480q-120 -44 -216 -44q-313 0 -480 308q-44 120 -44 216q0 313 308 480q120 44 216 44zM789 984v-12q20 -96 100 -96q100 20 100 96v12q-22 92 -88 92h-24q-66 0 -88 -92zM409 860v-4q22 -92 88 -92h12q91 0 100 104
q0 75 -100 96q-87 0 -100 -104zM1125 708q0 -150 -184 -284q-98 -48 -176 -48q-185 0 -308 144q-60 -46 -60 -52q153 -176 360 -176q260 0 416 268q36 105 36 144q-24 4 -84 4z" />
    <glyph glyph-name="k" unicode="k" 
d="M185 1408h1168q120 -18 120 -120v-1168q-18 -120 -120 -120h-1168q-120 18 -120 120v1168q18 120 120 120zM245 1216v-1024q0 -83 100 -116h28q100 28 100 124v148q83 92 88 92q4 0 220 -336q39 -28 64 -28h12q82 0 108 92v40q0 38 -120 212q-116 173 -116 188
q228 201 228 268v16q-20 112 -96 112h-16q-53 0 -192 -168l-176 -184h-4v556q0 96 -100 124h-28q-49 0 -88 -72q-12 -27 -12 -44zM1017 496q0 -102 116 -140h36q79 0 120 104q4 16 4 32v12q0 80 -96 120q-16 8 -44 8q-97 0 -132 -112z" />
    <glyph glyph-name="l" unicode="l" 
d="M185 1408h1168q120 -18 120 -120v-1168q-18 -120 -120 -120h-1168q-120 18 -120 120v1168q18 120 120 120zM205 1116q0 -102 120 -128h16q140 19 140 124q0 117 -140 132q-136 -18 -136 -128zM845 800h-8v92h-244v-728h244v372q0 145 84 172q26 8 36 8h12q120 0 120 -184
v-368h244v420q0 241 -180 312q-45 12 -96 16q-142 0 -212 -112zM221 892v-728h244v728h-244z" />
    <glyph glyph-name="m" unicode="m" 
d="M185 1408h1168q120 -18 120 -120v-1168q-18 -120 -120 -120h-1168q-120 18 -120 120v1168q18 120 120 120zM101 1072v-736q0 -80 104 -80h1128q104 0 104 80v736q0 80 -104 80h-1128q-104 0 -104 -80zM133 912h1272q8 -1 8 -8v-512q0 -8 -8 -8h-1272q-8 0 -8 8v512
q1 8 8 8zM849 880q-8 -35 -8 -48q12 -136 12 -164q-48 -4 -48 -16v-12q56 -4 56 -24q4 -25 4 -56v-40h44l-4 40v68q0 11 64 16l4 -8v-16q0 -88 68 -88q36 0 80 104l4 28q-12 36 -52 36q-5 -136 -40 -136q-8 21 -8 92v24q-50 20 -52 20v-48h-4q-39 36 -48 36q-4 -7 -4 -16h-8
q-4 80 -4 120v36l4 28q-16 15 -60 24zM397 788q-44 -75 -48 -136h-4q-48 87 -60 96h-8q-44 0 -44 -12v-44q0 -16 -4 -32q6 -112 20 -124q52 6 52 16q0 7 -4 48h4l44 -60h28l20 4q0 -4 4 -4q11 43 16 132h8q0 -25 44 -152q48 7 48 12q-45 193 -68 256q-30 -4 -40 -8q0 8 -8 8
zM737 780q-76 -59 -76 -184q0 -48 100 -68q64 10 64 28q-15 12 -28 12q-10 -20 -36 -20q-48 11 -48 44v16l4 8l40 -4h20q8 0 8 8v8q0 21 12 128q-36 24 -60 24zM509 628q0 -104 84 -104q49 4 84 16q0 6 -16 16q-58 -8 -60 -8q-27 0 -36 48q4 32 12 32h28l40 -4l4 56
q0 76 -16 76l-48 12q-76 -33 -76 -140zM1113 568v-16q12 0 20 -16v-32q0 -88 36 -88h32q-16 37 -16 92v24l60 32q64 53 64 120v8q0 76 -72 76h-4q-79 0 -100 -156q0 -30 -20 -44zM1245 724q12 -23 12 -40q-19 -92 -68 -92q0 60 52 132h4zM589 704h4v-40q0 -8 -8 -8h-4
q-6 0 -12 12q12 36 20 36zM741 704h4v-20q0 -44 -12 -44h-4q-8 0 -8 8v4q0 29 20 52z" />
    <glyph glyph-name="n" unicode="n" 
d="M185 1408h1168q120 -18 120 -120v-1168q-18 -120 -120 -120h-1168q-120 18 -120 120v1168q18 120 120 120zM449 1244q0 -76 96 -88q84 17 84 80v16q0 68 -92 80h-4q-65 0 -84 -88zM905 1244q0 -76 96 -88q84 17 84 80v16q0 68 -92 80h-4q-65 0 -84 -88zM561 1004v-8
q17 -84 84 -84h12q65 0 84 88q-19 88 -84 88h-4q-92 -10 -92 -84zM797 1000q19 -88 84 -88h12q67 0 84 84v8q0 74 -92 84h-4q-65 0 -84 -88zM141 936v-12q17 -80 80 -80h16q65 0 84 88q-20 88 -88 88h-8q-84 -17 -84 -84zM1217 932q19 -88 84 -88h16q80 17 80 80v12
q0 67 -84 84h-8q-88 -19 -88 -88zM385 828v-4q17 -88 88 -88q92 17 92 92q0 74 -96 88q-65 0 -84 -88zM973 824q20 -88 88 -88q92 17 92 88v4q-16 88 -88 88q-92 -16 -92 -92zM385 592v-8q20 -88 88 -88q92 19 92 92q-17 88 -88 88h-12q-59 0 -80 -84zM973 580q0 -59 88 -84
q92 18 92 88v8q-21 84 -80 84h-12q-75 0 -88 -96zM141 480q16 -84 84 -84h12q65 0 84 88q-19 88 -84 88h-12q-74 0 -84 -92zM1217 484q19 -88 84 -88h4q92 10 92 84v8q-16 84 -84 84h-12q-65 0 -84 -88zM561 416v-8q0 -68 88 -84h4q72 0 88 92q-24 84 -76 84h-24
q-64 0 -80 -84zM797 416q17 -92 88 -92h8q84 19 84 84q-10 92 -80 92h-24q-52 0 -76 -84zM449 164q19 -88 84 -88h4q92 12 92 80v16q0 68 -92 80h-4q-65 0 -84 -88zM905 164q19 -88 84 -88h4q92 12 92 80v16q0 68 -92 80h-4q-65 0 -84 -88z" />
    <glyph glyph-name="o" unicode="o" 
d="M185 1408h1168q120 -18 120 -120v-1168q-18 -120 -120 -120h-1168q-120 18 -120 120v1168q18 120 120 120zM141 724v-40q0 -283 264 -492q172 -116 344 -116h40q283 0 492 264q116 172 116 344v40q0 283 -264 492q-172 116 -344 116h-40q-283 0 -492 -264
q-116 -172 -116 -344zM769 1132q233 0 372 -220q56 -108 56 -208q0 -233 -220 -372q-108 -56 -208 -56q-233 0 -372 220q-56 108 -56 208q0 233 220 372q108 56 208 56z" />
    <glyph glyph-name="p" unicode="p" 
d="M185 1408h1168q120 -18 120 -120v-1168q-18 -120 -120 -120h-1168q-120 18 -120 120v1168q18 120 120 120zM301 872v-8q9 -206 156 -260q27 0 40 100q-56 73 -56 136v28q0 209 220 300q47 16 104 16h44q166 0 240 -164q16 -56 16 -104q0 -196 -112 -316q-41 -37 -104 -44
q-86 0 -112 88v16q0 19 60 240q4 35 4 44q-17 96 -92 96q-121 0 -140 -184q8 -82 24 -108q-104 -403 -104 -500q7 -148 20 -148h4q113 115 164 348q11 64 20 64q71 -80 160 -80q249 0 352 288q28 89 28 188v8q0 230 -252 356q-93 36 -180 36h-4q-364 0 -488 -332
q-12 -63 -12 -104z" />
    <glyph glyph-name="q" unicode="q" 
d="M185 1408h1168q120 -18 120 -120v-1168q-18 -120 -120 -120h-1168q-120 18 -120 120v1168q18 120 120 120zM209 764q0 -289 260 -476q145 -88 276 -88h40q29 0 116 12q80 -136 208 -136h28q32 0 72 8v100q-98 26 -132 80l-12 20q264 188 264 480q0 336 -328 520
q-126 48 -208 48h-48q-231 0 -424 -224q-112 -165 -112 -344zM777 1188q162 0 252 -204q28 -63 28 -184v-72q0 -170 -72 -272q-10 0 -88 60q-85 48 -200 48v-116q65 0 136 -92q0 -8 -4 -8q-50 -8 -56 -8q-189 0 -272 252q-12 69 -12 160v24q0 324 212 400q47 12 76 12z" />
    <glyph glyph-name="r" unicode="r" 
d="M185 1408h1168q120 -18 120 -120v-1168q-18 -120 -120 -120h-1168q-120 18 -120 120v1168q18 120 120 120zM1041 1160q-43 20 -124 28q-126 0 -172 -136q-8 -104 -28 -104q-137 0 -300 -84q-45 40 -112 40q-117 0 -164 -136v-36q0 -61 84 -132v-44q0 -198 276 -328
q134 -48 272 -48q348 0 512 256q28 69 28 128v36q84 67 84 140q0 116 -128 160q-15 4 -32 4h-12q-60 0 -108 -40q-134 74 -296 88q0 4 -4 4q0 152 100 152q84 0 104 -44q0 -87 116 -128q22 -4 36 -4q102 0 144 120q4 22 4 32q0 90 -104 136q-16 8 -44 8h-8q-71 0 -124 -68z
M1169 1152q68 -13 68 -68v-4q0 -54 -68 -64q-68 11 -68 60v8q13 68 68 68zM765 868h8q307 0 440 -216q16 -52 16 -76v-24q0 -149 -236 -252q-104 -36 -200 -36h-48q-228 0 -380 156q-56 68 -56 140v16q0 166 264 264q101 28 192 28zM301 820h16l28 -4v-4q-85 -92 -88 -120
h-8q-24 18 -24 52q12 76 76 76zM1205 820h32q76 -13 76 -76q0 -34 -24 -52h-8q-7 34 -88 120zM493 632q14 -80 76 -80h12q62 0 76 80q-16 80 -80 80h-4q-80 -16 -80 -80zM881 628q18 -76 76 -76h12q68 0 76 88q-15 72 -92 72q-56 0 -72 -84zM529 420q18 -70 216 -96h20
q244 29 244 100q0 24 -32 40h-8q-118 -56 -200 -56h-12q-84 0 -184 56h-4q-32 0 -40 -44z" />
    <glyph glyph-name="s" unicode="s" 
d="M185 1408h1168q120 -18 120 -120v-1168q-18 -120 -120 -120h-1168q-120 18 -120 120v1168q18 120 120 120zM169 700q0 -335 328 -532q143 -64 276 -64q317 0 512 296q84 141 84 304q0 334 -316 528q-134 72 -292 72q-280 0 -480 -252q-112 -161 -112 -352zM693 984
q271 0 484 -116q28 -22 28 -44v-8q-11 -48 -44 -48h-12q-12 0 -116 48q-162 60 -360 60q-112 0 -264 -36q-43 0 -52 60q0 59 196 76q60 8 140 8zM689 776q232 0 424 -120q0 -6 8 -16v-16q0 -26 -28 -40h-16q-12 0 -140 60q-135 44 -284 44q-63 0 -208 -28h-12q-36 0 -36 48
q0 54 232 68h60zM681 584q209 0 364 -108v-20q0 -32 -32 -32q-9 0 -108 48q-107 40 -232 40q-69 0 -212 -24h-16q-5 0 -20 20v16q0 40 116 48q48 8 140 12z" />
    <glyph glyph-name="t" unicode="t" 
d="M185 1408h1168q120 -18 120 -120v-1168q-18 -120 -120 -120h-1168q-120 18 -120 120v1168q18 120 120 120zM341 544q0 -245 260 -384q84 -32 160 -32h304q87 0 132 116v36q0 98 -116 136q-35 4 -60 4h-268q-81 0 -120 108q-4 35 -4 60v64q1 8 8 8h412q76 0 116 108v32
q0 92 -112 128h-416q-8 0 -8 8v212q0 88 -120 132h-28q-108 0 -140 -124v-612z" />
    <glyph glyph-name="u" unicode="u" 
d="M185 1408h1168q120 -18 120 -120v-1168q-18 -120 -120 -120h-1168q-120 18 -120 120v1168q18 120 120 120zM209 1180q-92 -158 -92 -172q28 -32 92 -144h368q-20 -75 -216 -636h352q0 17 204 612q4 24 12 24h300q8 8 192 316h-1212z" />
    <glyph glyph-name="v" unicode="v" 
d="M185 1408h1168q120 -18 120 -120v-1168q-18 -120 -120 -120h-1168q-120 18 -120 120v1168q18 120 120 120zM857 952h4q49 20 96 20q76 -9 76 -68v-24q0 -102 -152 -296q-29 -28 -48 -28h-8q-50 0 -108 320q-43 300 -80 300q-32 60 -116 60q-90 0 -380 -280q56 -76 60 -76
q82 56 104 56h8q43 -14 88 -140q116 -427 136 -480q82 -156 152 -156h24q224 0 588 564q96 170 96 300q0 224 -180 224h-32q-236 0 -328 -296z" />
    <glyph glyph-name="w" unicode="w" 
d="M185 1408h1168q120 -18 120 -120v-1168q-18 -120 -120 -120h-1168q-120 18 -120 120v1168q18 120 120 120zM161 704q0 -294 260 -496q168 -112 348 -112q294 0 496 260q112 168 112 348q0 294 -260 496q-168 112 -348 112q-294 0 -496 -260q-112 -168 -112 -348z
M769 1280q313 0 504 -296q72 -147 72 -280q0 -313 -296 -504q-147 -72 -280 -72q-313 0 -504 296q-72 147 -72 280q0 313 296 504q147 72 280 72zM333 988h48q46 0 140 4q8 -13 8 -20q0 -22 -80 -24v-4q168 -489 188 -560q9 0 116 340h4l-84 224q-72 4 -72 20v12l8 12
q94 -4 140 -4h20q46 0 140 4l8 -12v-12q0 -16 -80 -20q176 -515 188 -560q8 0 52 164q44 123 44 180q0 79 -84 216q-8 26 -8 36v20q0 72 92 80q-152 140 -340 140h-24q-249 0 -424 -236zM1221 956l4 -28v-32q0 -94 -116 -408q-80 -222 -80 -236q260 170 260 452
q0 141 -68 252zM293 916q-44 -104 -44 -212q0 -298 284 -464q8 -4 12 -4q-244 675 -252 680zM625 204q69 -20 144 -20h12q64 0 164 28q-44 109 -164 448q-8 0 -80 -224q-76 -204 -76 -232z" />
    <glyph glyph-name="x" unicode="x" 
d="M185 1408h1168q120 -18 120 -120v-1168q-18 -120 -120 -120h-1168q-120 18 -120 120v1168q18 120 120 120zM1065 1332q-418 -742 -436 -760q269 -469 280 -496h300l-280 492l432 764h-296zM229 1104q160 -281 160 -292v-4l-212 -348v-4h280q24 48 216 356
q-161 289 -168 292h-276z" />
    <glyph glyph-name="y" unicode="y" 
d="M185 1408h1168q120 -18 120 -120v-1168q-18 -120 -120 -120h-1168q-120 18 -120 120v1168q18 120 120 120zM409 1212q0 -11 196 -324q69 -140 132 -140q40 31 40 72q-4 74 -4 108v324q0 66 -92 80h-28q-202 -11 -244 -120zM877 704q0 -49 76 -60q272 37 272 60
q12 15 12 36v12q0 59 -120 180q-20 12 -32 12h-12q-40 0 -112 -104q-84 -82 -84 -136zM301 688v-176q14 -68 60 -68h8q300 87 300 132q8 0 8 28v8q0 56 -196 116q-92 44 -116 44q-48 0 -64 -84zM889 488q0 -43 112 -228q30 -80 68 -80h16q52 0 120 140q24 40 24 64v12
q0 60 -160 88q-89 32 -132 32h-16q-32 -3 -32 -28zM489 208v-16q0 -62 128 -88q66 -28 88 -28q53 0 76 60q4 188 4 288q0 28 -40 52q-64 0 -180 -164q-76 -79 -76 -104z" />
    <glyph glyph-name="z" unicode="z" 
d="M185 1408h1168q120 -18 120 -120v-1168q-18 -120 -120 -120h-1168q-120 18 -120 120v1168q18 120 120 120zM509 1104q0 -80 160 -80l132 16v-4q-381 -449 -436 -520v-112q0 -24 16 -24q254 0 340 -92q188 -138 300 -144q122 0 152 180v24l-4 48q-61 -40 -124 -40
q-111 0 -320 136q-64 28 -100 28h-16q-8 0 -8 8q0 24 92 124q387 447 412 480q12 81 12 104q-10 8 -16 8q-147 -24 -216 -24h-80q-118 0 -212 44q-41 -21 -76 -116q-8 -34 -8 -44z" />
    <glyph glyph-name="braceleft" unicode="{" horiz-adv-x="1014" 
 />
    <glyph glyph-name="bar" unicode="|" horiz-adv-x="1014" 
 />
    <glyph glyph-name="braceright" unicode="}" horiz-adv-x="1014" 
 />
    <glyph glyph-name="asciitilde" unicode="~" horiz-adv-x="1014" 
 />
    <glyph glyph-name="exclamdown" unicode="&#xa1;" horiz-adv-x="672" 
 />
    <glyph glyph-name="cent" unicode="&#xa2;" horiz-adv-x="1139" 
 />
    <glyph glyph-name="sterling" unicode="&#xa3;" horiz-adv-x="1014" 
 />
    <glyph glyph-name="currency" unicode="&#xa4;" horiz-adv-x="1014" 
 />
    <glyph glyph-name="yen" unicode="&#xa5;" horiz-adv-x="1262" 
 />
    <glyph glyph-name="brokenbar" unicode="&#xa6;" horiz-adv-x="1014" 
 />
    <glyph glyph-name="section" unicode="&#xa7;" horiz-adv-x="1014" 
 />
    <glyph glyph-name="dieresis" unicode="&#xa8;" horiz-adv-x="1024" 
 />
    <glyph glyph-name="copyright" unicode="&#xa9;" horiz-adv-x="1674" 
 />
    <glyph glyph-name="ordfeminine" unicode="&#xaa;" horiz-adv-x="648" 
 />
    <glyph glyph-name="guillemotleft" unicode="&#xab;" horiz-adv-x="944" 
 />
    <glyph glyph-name="logicalnot" unicode="&#xac;" horiz-adv-x="1014" 
 />
    <glyph glyph-name="registered" unicode="&#xae;" horiz-adv-x="1674" 
 />
    <glyph glyph-name="macron" unicode="&#xaf;" horiz-adv-x="670" 
 />
    <glyph glyph-name="degree" unicode="&#xb0;" horiz-adv-x="674" 
 />
    <glyph glyph-name="plusminus" unicode="&#xb1;" horiz-adv-x="1014" 
 />
    <glyph glyph-name="uni00B2" unicode="&#xb2;" horiz-adv-x="1014" 
 />
    <glyph glyph-name="uni00B3" unicode="&#xb3;" horiz-adv-x="1014" 
 />
    <glyph glyph-name="acute" unicode="&#xb4;" horiz-adv-x="1024" 
 />
    <glyph glyph-name="mu" unicode="&#xb5;" horiz-adv-x="1180" 
 />
    <glyph glyph-name="paragraph" unicode="&#xb6;" horiz-adv-x="1024" 
 />
    <glyph glyph-name="periodcentered" unicode="&#xb7;" horiz-adv-x="508" 
 />
    <glyph glyph-name="periodcentered" unicode="&#x2219;" horiz-adv-x="508" 
 />
    <glyph glyph-name="cedilla" unicode="&#xb8;" horiz-adv-x="1024" 
 />
    <glyph glyph-name="uni00B9" unicode="&#xb9;" horiz-adv-x="1014" 
 />
    <glyph glyph-name="ordmasculine" unicode="&#xba;" horiz-adv-x="718" 
 />
    <glyph glyph-name="guillemotright" unicode="&#xbb;" horiz-adv-x="944" 
 />
    <glyph glyph-name="onequarter" unicode="&#xbc;" horiz-adv-x="1708" 
 />
    <glyph glyph-name="onehalf" unicode="&#xbd;" horiz-adv-x="1964" 
 />
    <glyph glyph-name="threequarters" unicode="&#xbe;" horiz-adv-x="1708" 
 />
    <glyph glyph-name="questiondown" unicode="&#xbf;" horiz-adv-x="748" 
 />
    <glyph glyph-name="Agrave" unicode="&#xc0;" horiz-adv-x="1540" 
 />
    <glyph glyph-name="Aacute" unicode="&#xc1;" horiz-adv-x="1540" 
 />
    <glyph glyph-name="Acircumflex" unicode="&#xc2;" horiz-adv-x="1540" 
 />
    <glyph glyph-name="Atilde" unicode="&#xc3;" horiz-adv-x="1540" 
 />
    <glyph glyph-name="Adieresis" unicode="&#xc4;" horiz-adv-x="1540" 
 />
    <glyph glyph-name="Aring" unicode="&#xc5;" horiz-adv-x="1540" 
 />
    <glyph glyph-name="AE" unicode="&#xc6;" horiz-adv-x="2118" 
 />
    <glyph glyph-name="Ccedilla" unicode="&#xc7;" horiz-adv-x="1399" 
 />
    <glyph glyph-name="Egrave" unicode="&#xc8;" horiz-adv-x="1151" 
 />
    <glyph glyph-name="Eacute" unicode="&#xc9;" horiz-adv-x="1151" 
 />
    <glyph glyph-name="Ecircumflex" unicode="&#xca;" horiz-adv-x="1151" 
 />
    <glyph glyph-name="Edieresis" unicode="&#xcb;" horiz-adv-x="1151" 
 />
    <glyph glyph-name="Igrave" unicode="&#xcc;" horiz-adv-x="657" 
 />
    <glyph glyph-name="Iacute" unicode="&#xcd;" horiz-adv-x="657" 
 />
    <glyph glyph-name="Icircumflex" unicode="&#xce;" horiz-adv-x="657" 
 />
    <glyph glyph-name="Idieresis" unicode="&#xcf;" horiz-adv-x="657" 
 />
    <glyph glyph-name="Eth" unicode="&#xd0;" horiz-adv-x="1518" 
 />
    <glyph glyph-name="Ntilde" unicode="&#xd1;" horiz-adv-x="1554" 
 />
    <glyph glyph-name="Ograve" unicode="&#xd2;" horiz-adv-x="1614" 
 />
    <glyph glyph-name="Oacute" unicode="&#xd3;" horiz-adv-x="1614" 
 />
    <glyph glyph-name="Ocircumflex" unicode="&#xd4;" horiz-adv-x="1614" 
 />
    <glyph glyph-name="Otilde" unicode="&#xd5;" horiz-adv-x="1614" 
 />
    <glyph glyph-name="Odieresis" unicode="&#xd6;" horiz-adv-x="1614" 
 />
    <glyph glyph-name="multiply" unicode="&#xd7;" horiz-adv-x="1014" 
 />
    <glyph glyph-name="Oslash" unicode="&#xd8;" horiz-adv-x="1614" 
 />
    <glyph glyph-name="Ugrave" unicode="&#xd9;" horiz-adv-x="1501" 
 />
    <glyph glyph-name="Uacute" unicode="&#xda;" horiz-adv-x="1501" 
 />
    <glyph glyph-name="Ucircumflex" unicode="&#xdb;" horiz-adv-x="1501" 
 />
    <glyph glyph-name="Udieresis" unicode="&#xdc;" horiz-adv-x="1501" 
 />
    <glyph glyph-name="Yacute" unicode="&#xdd;" horiz-adv-x="1233" 
 />
    <glyph glyph-name="Thorn" unicode="&#xde;" horiz-adv-x="1120" 
 />
    <glyph glyph-name="germandbls" unicode="&#xdf;" horiz-adv-x="1251" 
 />
    <glyph glyph-name="agrave" unicode="&#xe0;" horiz-adv-x="922" 
 />
    <glyph glyph-name="aacute" unicode="&#xe1;" horiz-adv-x="922" 
 />
    <glyph glyph-name="acircumflex" unicode="&#xe2;" horiz-adv-x="922" 
 />
    <glyph glyph-name="atilde" unicode="&#xe3;" horiz-adv-x="922" 
 />
    <glyph glyph-name="adieresis" unicode="&#xe4;" horiz-adv-x="922" 
 />
    <glyph glyph-name="aring" unicode="&#xe5;" horiz-adv-x="922" 
 />
    <glyph glyph-name="ae" unicode="&#xe6;" horiz-adv-x="1454" 
 />
    <glyph glyph-name="ccedilla" unicode="&#xe7;" horiz-adv-x="905" 
 />
    <glyph glyph-name="egrave" unicode="&#xe8;" horiz-adv-x="909" 
 />
    <glyph glyph-name="eacute" unicode="&#xe9;" horiz-adv-x="909" 
 />
    <glyph glyph-name="ecircumflex" unicode="&#xea;" horiz-adv-x="909" 
 />
    <glyph glyph-name="edieresis" unicode="&#xeb;" horiz-adv-x="909" 
 />
    <glyph glyph-name="igrave" unicode="&#xec;" horiz-adv-x="514" 
 />
    <glyph glyph-name="iacute" unicode="&#xed;" horiz-adv-x="514" 
 />
    <glyph glyph-name="icircumflex" unicode="&#xee;" horiz-adv-x="514" 
 />
    <glyph glyph-name="idieresis" unicode="&#xef;" horiz-adv-x="514" 
 />
    <glyph glyph-name="eth" unicode="&#xf0;" horiz-adv-x="1139" 
 />
    <glyph glyph-name="ntilde" unicode="&#xf1;" horiz-adv-x="1108" 
 />
    <glyph glyph-name="ograve" unicode="&#xf2;" horiz-adv-x="1010" 
 />
    <glyph glyph-name="oacute" unicode="&#xf3;" horiz-adv-x="1010" 
 />
    <glyph glyph-name="ocircumflex" unicode="&#xf4;" horiz-adv-x="1010" 
 />
    <glyph glyph-name="otilde" unicode="&#xf5;" horiz-adv-x="1010" 
 />
    <glyph glyph-name="odieresis" unicode="&#xf6;" horiz-adv-x="1010" 
 />
    <glyph glyph-name="divide" unicode="&#xf7;" horiz-adv-x="1014" 
 />
    <glyph glyph-name="oslash" unicode="&#xf8;" horiz-adv-x="1010" 
 />
    <glyph glyph-name="ugrave" unicode="&#xf9;" horiz-adv-x="1059" 
 />
    <glyph glyph-name="uacute" unicode="&#xfa;" horiz-adv-x="1059" 
 />
    <glyph glyph-name="ucircumflex" unicode="&#xfb;" horiz-adv-x="1059" 
 />
    <glyph glyph-name="udieresis" unicode="&#xfc;" horiz-adv-x="1059" 
 />
    <glyph glyph-name="yacute" unicode="&#xfd;" horiz-adv-x="868" 
 />
    <glyph glyph-name="thorn" unicode="&#xfe;" horiz-adv-x="1010" 
 />
    <glyph glyph-name="ydieresis" unicode="&#xff;" horiz-adv-x="868" 
 />
    <glyph glyph-name="dotlessi" unicode="&#x131;" horiz-adv-x="514" 
 />
    <glyph glyph-name="circumflex" unicode="&#x2c6;" horiz-adv-x="1024" 
 />
    <glyph glyph-name="caron" unicode="&#x2c7;" horiz-adv-x="1024" 
 />
    <glyph glyph-name="uni02C9" unicode="&#x2c9;" horiz-adv-x="1024" 
 />
    <glyph glyph-name="breve" unicode="&#x2d8;" horiz-adv-x="1024" 
 />
    <glyph glyph-name="dotaccent" unicode="&#x2d9;" horiz-adv-x="1024" 
 />
    <glyph glyph-name="ring" unicode="&#x2da;" horiz-adv-x="1024" 
 />
    <glyph glyph-name="ogonek" unicode="&#x2db;" horiz-adv-x="1024" 
 />
    <glyph glyph-name="tilde" unicode="&#x2dc;" horiz-adv-x="1024" 
 />
    <glyph glyph-name="hungarumlaut" unicode="&#x2dd;" horiz-adv-x="1024" 
 />
    <glyph glyph-name="endash" unicode="&#x2013;" horiz-adv-x="1108" 
 />
    <glyph glyph-name="emdash" unicode="&#x2014;" horiz-adv-x="2048" 
 />
    <glyph glyph-name="quoteleft" unicode="&#x2018;" horiz-adv-x="557" 
 />
    <glyph glyph-name="quoteright" unicode="&#x2019;" horiz-adv-x="557" 
 />
    <glyph glyph-name="quotesinglbase" unicode="&#x201a;" horiz-adv-x="557" 
 />
    <glyph glyph-name="quotedblleft" unicode="&#x201c;" horiz-adv-x="910" 
 />
    <glyph glyph-name="quotedblright" unicode="&#x201d;" horiz-adv-x="910" 
 />
    <glyph glyph-name="quotedblbase" unicode="&#x201e;" horiz-adv-x="910" 
 />
    <glyph glyph-name="dagger" unicode="&#x2020;" horiz-adv-x="1014" 
 />
    <glyph glyph-name="daggerdbl" unicode="&#x2021;" horiz-adv-x="1014" 
 />
    <glyph glyph-name="bullet" unicode="&#x2022;" horiz-adv-x="1024" 
 />
    <glyph glyph-name="ellipsis" unicode="&#x2026;" horiz-adv-x="2048" 
 />
    <glyph glyph-name="guilsinglleft" unicode="&#x2039;" horiz-adv-x="631" 
 />
    <glyph glyph-name="guilsinglright" unicode="&#x203a;" horiz-adv-x="631" 
 />
    <glyph glyph-name="fraction" unicode="&#x2044;" horiz-adv-x="342" 
 />
    <glyph glyph-name="fraction" unicode="&#x2215;" horiz-adv-x="342" 
 />
    <glyph glyph-name="franc" unicode="&#x20a3;" horiz-adv-x="1014" 
 />
    <glyph glyph-name="lira" unicode="&#x20a4;" horiz-adv-x="1014" 
 />
    <glyph glyph-name="peseta" unicode="&#x20a7;" horiz-adv-x="2028" 
 />
    <glyph glyph-name="Euro" unicode="&#x20ac;" horiz-adv-x="1014" 
 />
    <glyph glyph-name="uni2116" unicode="&#x2116;" horiz-adv-x="2271" 
 />
    <glyph glyph-name="trademark" unicode="&#x2122;" horiz-adv-x="1497" 
 />
    <glyph glyph-name="partialdiff" unicode="&#x2202;" horiz-adv-x="1014" 
 />
    <glyph glyph-name="Delta" unicode="&#x2206;" horiz-adv-x="1081" 
 />
    <glyph glyph-name="product" unicode="&#x220f;" horiz-adv-x="1515" 
 />
    <glyph glyph-name="summation" unicode="&#x2211;" horiz-adv-x="1206" 
 />
    <glyph glyph-name="minus" unicode="&#x2212;" horiz-adv-x="1014" 
 />
    <glyph glyph-name="radical" unicode="&#x221a;" horiz-adv-x="1014" 
 />
    <glyph glyph-name="infinity" unicode="&#x221e;" horiz-adv-x="1014" 
 />
    <glyph glyph-name="integral" unicode="&#x222b;" horiz-adv-x="665" 
 />
    <glyph glyph-name="approxequal" unicode="&#x2248;" horiz-adv-x="1014" 
 />
    <glyph glyph-name="lessequal" unicode="&#x2264;" horiz-adv-x="1014" 
 />
    <glyph glyph-name="greaterequal" unicode="&#x2265;" horiz-adv-x="1014" 
 />
    <glyph glyph-name="uniF001" unicode="&#xf001;" horiz-adv-x="1073" 
 />
    <glyph glyph-name="uniF001" unicode="&#xfb01;" horiz-adv-x="1073" 
 />
    <glyph glyph-name="uniF002" unicode="&#xf002;" horiz-adv-x="1081" 
 />
    <glyph glyph-name="uniF002" unicode="&#xfb02;" horiz-adv-x="1081" 
 />
  </font>
</defs>
</svg>
